<?xml version="1.0" encoding="UTF-8" standalone="no"?><svg xmlns="http://www.w3.org/2000/svg" xmlns:xlink="http://www.w3.org/1999/xlink" clip-rule="evenodd" stroke-miterlimit="10" viewBox="0 0 372 70"><desc>SVG generated by Keynote</desc><defs></defs><g transform="matrix(1.00, 0.00, -0.00, -1.00, 0.0, 70.0)"><g><clipPath id="clip0x7fbff12aac70"><path d="M 0.2 0.9 L 69.2 0.9 L 69.2 69.9 L 0.2 69.9 Z M 0.2 0.9 "></path></clipPath><g clip-path="url(#clip0x7fbff12aac70)"><image xlink:href="../../F5F7C295-AB87-4E9F-8E10-39488A5480FF/assets/D93F090722A5269D0B30C3E05CCA40BA.png" width="225.00" height="225.00" transform="matrix(0.31, 0.00, -0.00, -0.31, 0.0, 70.0)"></image></g></g><g><clipPath id="clip0x7fbff0fcdd40"><path d="M 23.6 4.2 L 373.7 4.2 L 373.7 66.7 L 23.6 66.7 Z M 23.6 4.2 "></path></clipPath><g clip-path="url(#clip0x7fbff0fcdd40)"><text xml:space="preserve" font-family="Helvetica-Light,Helvetica" font-size="37.0" fill="#FEFFFF" transform="matrix(1.00, 0.00, -0.00, -1.00, 96.9, 21.9)">S</text><text xml:space="preserve" font-family="Helvetica-Light,Helvetica" font-size="37.0" fill="#FEFFFF" transform="matrix(1.00, 0.00, -0.00, -1.00, 119.5, 21.9)">w</text><text xml:space="preserve" font-family="Helvetica-Light,Helvetica" font-size="37.0" fill="#FEFFFF" transform="matrix(1.00, 0.00, -0.00, -1.00, 146.2, 21.9)">i</text><text xml:space="preserve" font-family="Helvetica-Light,Helvetica" font-size="37.0" fill="#FEFFFF" transform="matrix(1.00, 0.00, -0.00, -1.00, 154.4, 21.9)">t</text><text xml:space="preserve" font-family="Helvetica-Light,Helvetica" font-size="37.0" fill="#FEFFFF" transform="matrix(1.00, 0.00, -0.00, -1.00, 164.7, 21.9)">f</text><text xml:space="preserve" font-family="Helvetica-Light,Helvetica" font-size="37.0" fill="#FEFFFF" transform="matrix(1.00, 0.00, -0.00, -1.00, 175.0, 21.9)">t</text><text xml:space="preserve" font-family="Helvetica-Light,Helvetica" font-size="37.0" fill="#FEFFFF" transform="matrix(1.00, 0.00, -0.00, -1.00, 185.3, 21.9)">y</text><text xml:space="preserve" font-family="Helvetica-Light,Helvetica" font-size="37.0" fill="#FEFFFF" transform="matrix(1.00, 0.00, -0.00, -1.00, 203.8, 21.9)">J</text><text xml:space="preserve" font-family="Helvetica-Light,Helvetica" font-size="37.0" fill="#FEFFFF" transform="matrix(1.00, 0.00, -0.00, -1.00, 222.3, 21.9)">S</text><text xml:space="preserve" font-family="Helvetica-Light,Helvetica" font-size="37.0" fill="#FEFFFF" transform="matrix(1.00, 0.00, -0.00, -1.00, 244.9, 21.9)">O</text><text xml:space="preserve" font-family="Helvetica-Light,Helvetica" font-size="37.0" fill="#FEFFFF" transform="matrix(1.00, 0.00, -0.00, -1.00, 273.7, 21.9)">N</text><text xml:space="preserve" font-family="Helvetica-Light,Helvetica" font-size="37.0" fill="#FEFFFF" transform="matrix(1.00, 0.00, -0.00, -1.00, 300.4, 21.9)"> </text><text xml:space="preserve" font-family="Helvetica-Light,Helvetica" font-size="37.0" fill="#FEFFFF" transform="matrix(1.00, 0.00, -0.00, -1.00, 310.7, 21.9)"> </text><text xml:space="preserve" font-family="Helvetica-Light,Helvetica" font-size="37.0" fill="#FEFFFF" transform="matrix(1.00, 0.00, -0.00, -1.00, 321.0, 21.9)"> </text><path d="M 69.7 43.9 L 273.2 43.9 " fill="none" stroke="#FEFFFF" stroke-width="1.85" transform="matrix(1.00, 0.00, 0.00, -1.00, 27.2, 63.0)"></path></g></g></g></svg>