<?xml version="1.0" encoding="UTF-8" standalone="no"?><svg xmlns="http://www.w3.org/2000/svg" xmlns:xlink="http://www.w3.org/1999/xlink" clip-rule="evenodd" stroke-miterlimit="10" viewBox="0 0 1920 1080"><desc>SVG generated by Keynote</desc><defs></defs><g transform="matrix(1.00, 0.00, -0.00, -1.00, 0.0, 1080.0)"><path d="M 0.0 1080.0 L 1920.0 1080.0 L 1920.0 0.0 L 0.0 0.0 Z M 0.0 1080.0 " fill="#52575F"></path><text xml:space="preserve" font-family="Courier,Courier" font-size="94.0" fill="#FEFFFF" transform="matrix(1.00, 0.00, -0.00, -1.00, 112.9, 991.1)">f</text><text xml:space="preserve" font-family="Courier,Courier" font-size="94.0" fill="#FEFFFF" transform="matrix(1.00, 0.00, -0.00, -1.00, 169.3, 991.1)">u</text><text xml:space="preserve" font-family="Courier,Courier" font-size="94.0" fill="#FEFFFF" transform="matrix(1.00, 0.00, -0.00, -1.00, 225.7, 991.1)">n</text><text xml:space="preserve" font-family="Courier,Courier" font-size="94.0" fill="#FEFFFF" transform="matrix(1.00, 0.00, -0.00, -1.00, 282.2, 991.1)">c</text><text xml:space="preserve" font-family="Courier,Courier" font-size="94.0" fill="#FEFFFF" transform="matrix(1.00, 0.00, -0.00, -1.00, 338.6, 991.1)">t</text><text xml:space="preserve" font-family="Courier,Courier" font-size="94.0" fill="#FEFFFF" transform="matrix(1.00, 0.00, -0.00, -1.00, 395.0, 991.1)">i</text><text xml:space="preserve" font-family="Courier,Courier" font-size="94.0" fill="#FEFFFF" transform="matrix(1.00, 0.00, -0.00, -1.00, 451.4, 991.1)">o</text><text xml:space="preserve" font-family="Courier,Courier" font-size="94.0" fill="#FEFFFF" transform="matrix(1.00, 0.00, -0.00, -1.00, 507.8, 991.1)">n</text><text xml:space="preserve" font-family="Courier,Courier" font-size="94.0" fill="#FEFFFF" transform="matrix(1.00, 0.00, -0.00, -1.00, 564.3, 991.1)"> </text><text xml:space="preserve" font-family="Courier,Courier" font-size="94.0" fill="#FEFFFF" transform="matrix(1.00, 0.00, -0.00, -1.00, 620.7, 991.1)">c</text><text xml:space="preserve" font-family="Courier,Courier" font-size="94.0" fill="#FEFFFF" transform="matrix(1.00, 0.00, -0.00, -1.00, 677.1, 991.1)">o</text><text xml:space="preserve" font-family="Courier,Courier" font-size="94.0" fill="#FEFFFF" transform="matrix(1.00, 0.00, -0.00, -1.00, 733.5, 991.1)">m</text><text xml:space="preserve" font-family="Courier,Courier" font-size="94.0" fill="#FEFFFF" transform="matrix(1.00, 0.00, -0.00, -1.00, 789.9, 991.1)">p</text><text xml:space="preserve" font-family="Courier,Courier" font-size="94.0" fill="#FEFFFF" transform="matrix(1.00, 0.00, -0.00, -1.00, 846.3, 991.1)">o</text><text xml:space="preserve" font-family="Courier,Courier" font-size="94.0" fill="#FEFFFF" transform="matrix(1.00, 0.00, -0.00, -1.00, 902.8, 991.1)">s</text><text xml:space="preserve" font-family="Courier,Courier" font-size="94.0" fill="#FEFFFF" transform="matrix(1.00, 0.00, -0.00, -1.00, 959.2, 991.1)">i</text><text xml:space="preserve" font-family="Courier,Courier" font-size="94.0" fill="#FEFFFF" transform="matrix(1.00, 0.00, -0.00, -1.00, 1015.6, 991.1)">t</text><text xml:space="preserve" font-family="Courier,Courier" font-size="94.0" fill="#FEFFFF" transform="matrix(1.00, 0.00, -0.00, -1.00, 1072.0, 991.1)">i</text><text xml:space="preserve" font-family="Courier,Courier" font-size="94.0" fill="#FEFFFF" transform="matrix(1.00, 0.00, -0.00, -1.00, 1128.4, 991.1)">o</text><text xml:space="preserve" font-family="Courier,Courier" font-size="94.0" fill="#FEFFFF" transform="matrix(1.00, 0.00, -0.00, -1.00, 1184.9, 991.1)">n</text></g></svg>