<?xml version="1.0" encoding="UTF-8" standalone="no"?><svg xmlns="http://www.w3.org/2000/svg" xmlns:xlink="http://www.w3.org/1999/xlink" clip-rule="evenodd" stroke-miterlimit="10" viewBox="0 0 1540 196"><desc>SVG generated by Keynote</desc><defs></defs><g transform="matrix(1.00, 0.00, -0.00, -1.00, 0.0, 196.0)"><path d="M 0.4 -0.3 L 1532.4 -0.3 L 1532.4 188.7 L 0.4 188.7 Z M 0.0 0.0 " fill="none" stroke="#961817" stroke-width="5.00" transform="matrix(1.00, 0.00, 0.00, -1.00, 4.1, 192.2)"></path><g><clipPath id="clip0x7fbff9bb6530"><path d="M 1.4 1.3 L 3038.4 1.3 L 3038.4 194.9 L 1.4 194.9 Z M 1.4 1.3 "></path></clipPath><g clip-path="url(#clip0x7fbff9bb6530)"><text xml:space="preserve" font-family="Menlo-Regular,Menlo" font-size="37.0" fill="#C1339A" transform="matrix(1.00, 0.00, -0.00, -1.00, 12.2, 149.8)">l</text><text xml:space="preserve" font-family="Menlo-Regular,Menlo" font-size="37.0" fill="#C1339A" transform="matrix(1.00, 0.00, -0.00, -1.00, 34.5, 149.8)">e</text><text xml:space="preserve" font-family="Menlo-Regular,Menlo" font-size="37.0" fill="#C1339A" transform="matrix(1.00, 0.00, -0.00, -1.00, 56.8, 149.8)">t</text><text xml:space="preserve" font-family="Menlo-Regular,Menlo" font-size="37.0" fill="#FFFFFF" transform="matrix(1.00, 0.00, -0.00, -1.00, 79.0, 149.8)"> </text><text xml:space="preserve" font-family="Menlo-Regular,Menlo" font-size="37.0" fill="#FFFFFF" transform="matrix(1.00, 0.00, -0.00, -1.00, 101.3, 149.8)">j</text><text xml:space="preserve" font-family="Menlo-Regular,Menlo" font-size="37.0" fill="#FFFFFF" transform="matrix(1.00, 0.00, -0.00, -1.00, 123.6, 149.8)">u</text><text xml:space="preserve" font-family="Menlo-Regular,Menlo" font-size="37.0" fill="#FFFFFF" transform="matrix(1.00, 0.00, -0.00, -1.00, 145.9, 149.8)">l</text><text xml:space="preserve" font-family="Menlo-Regular,Menlo" font-size="37.0" fill="#FFFFFF" transform="matrix(1.00, 0.00, -0.00, -1.00, 168.2, 149.8)">i</text><text xml:space="preserve" font-family="Menlo-Regular,Menlo" font-size="37.0" fill="#FFFFFF" transform="matrix(1.00, 0.00, -0.00, -1.00, 190.4, 149.8)">a</text><text xml:space="preserve" font-family="Menlo-Regular,Menlo" font-size="37.0" fill="#FFFFFF" transform="matrix(1.00, 0.00, -0.00, -1.00, 212.7, 149.8)"> </text><text xml:space="preserve" font-family="Menlo-Regular,Menlo" font-size="37.0" fill="#FFFFFF" transform="matrix(1.00, 0.00, -0.00, -1.00, 235.0, 149.8)">=</text><text xml:space="preserve" font-family="Menlo-Regular,Menlo" font-size="37.0" fill="#FFFFFF" transform="matrix(1.00, 0.00, -0.00, -1.00, 257.3, 149.8)"> </text><text xml:space="preserve" font-family="Menlo-Regular,Menlo" font-size="37.0" fill="#93C869" transform="matrix(1.00, 0.00, -0.00, -1.00, 279.5, 149.8)">G</text><text xml:space="preserve" font-family="Menlo-Regular,Menlo" font-size="37.0" fill="#93C869" transform="matrix(1.00, 0.00, -0.00, -1.00, 301.8, 149.8)">o</text><text xml:space="preserve" font-family="Menlo-Regular,Menlo" font-size="37.0" fill="#93C869" transform="matrix(1.00, 0.00, -0.00, -1.00, 324.1, 149.8)">r</text><text xml:space="preserve" font-family="Menlo-Regular,Menlo" font-size="37.0" fill="#93C869" transform="matrix(1.00, 0.00, -0.00, -1.00, 346.4, 149.8)">i</text><text xml:space="preserve" font-family="Menlo-Regular,Menlo" font-size="37.0" fill="#93C869" transform="matrix(1.00, 0.00, -0.00, -1.00, 368.6, 149.8)">l</text><text xml:space="preserve" font-family="Menlo-Regular,Menlo" font-size="37.0" fill="#93C869" transform="matrix(1.00, 0.00, -0.00, -1.00, 390.9, 149.8)">l</text><text xml:space="preserve" font-family="Menlo-Regular,Menlo" font-size="37.0" fill="#93C869" transform="matrix(1.00, 0.00, -0.00, -1.00, 413.2, 149.8)">a</text><text xml:space="preserve" font-family="Menlo-Regular,Menlo" font-size="37.0" fill="#FFFFFF" transform="matrix(1.00, 0.00, -0.00, -1.00, 435.5, 149.8)">(</text><text xml:space="preserve" font-family="Menlo-Regular,Menlo" font-size="37.0" fill="#FFFFFF" transform="matrix(1.00, 0.00, -0.00, -1.00, 457.7, 149.8)">n</text><text xml:space="preserve" font-family="Menlo-Regular,Menlo" font-size="37.0" fill="#FFFFFF" transform="matrix(1.00, 0.00, -0.00, -1.00, 480.0, 149.8)">a</text><text xml:space="preserve" font-family="Menlo-Regular,Menlo" font-size="37.0" fill="#FFFFFF" transform="matrix(1.00, 0.00, -0.00, -1.00, 502.3, 149.8)">m</text><text xml:space="preserve" font-family="Menlo-Regular,Menlo" font-size="37.0" fill="#FFFFFF" transform="matrix(1.00, 0.00, -0.00, -1.00, 524.6, 149.8)">e</text><text xml:space="preserve" font-family="Menlo-Regular,Menlo" font-size="37.0" fill="#FFFFFF" transform="matrix(1.00, 0.00, -0.00, -1.00, 546.8, 149.8)">:</text><text xml:space="preserve" font-family="Menlo-Regular,Menlo" font-size="37.0" fill="#FFFFFF" transform="matrix(1.00, 0.00, -0.00, -1.00, 569.1, 149.8)"> </text><text xml:space="preserve" font-family="Menlo-Regular,Menlo" font-size="37.0" fill="#E44347" transform="matrix(1.00, 0.00, -0.00, -1.00, 591.4, 149.8)">"</text><text xml:space="preserve" font-family="Menlo-Regular,Menlo" font-size="37.0" fill="#E44347" transform="matrix(1.00, 0.00, -0.00, -1.00, 613.7, 149.8)">J</text><text xml:space="preserve" font-family="Menlo-Regular,Menlo" font-size="37.0" fill="#E44347" transform="matrix(1.00, 0.00, -0.00, -1.00, 635.9, 149.8)">u</text><text xml:space="preserve" font-family="Menlo-Regular,Menlo" font-size="37.0" fill="#E44347" transform="matrix(1.00, 0.00, -0.00, -1.00, 658.2, 149.8)">l</text><text xml:space="preserve" font-family="Menlo-Regular,Menlo" font-size="37.0" fill="#E44347" transform="matrix(1.00, 0.00, -0.00, -1.00, 680.5, 149.8)">i</text><text xml:space="preserve" font-family="Menlo-Regular,Menlo" font-size="37.0" fill="#E44347" transform="matrix(1.00, 0.00, -0.00, -1.00, 702.8, 149.8)">a</text><text xml:space="preserve" font-family="Menlo-Regular,Menlo" font-size="37.0" fill="#E44347" transform="matrix(1.00, 0.00, -0.00, -1.00, 725.1, 149.8)">"</text><text xml:space="preserve" font-family="Menlo-Regular,Menlo" font-size="37.0" fill="#FFFFFF" transform="matrix(1.00, 0.00, -0.00, -1.00, 747.3, 149.8)">,</text><text xml:space="preserve" font-family="Menlo-Regular,Menlo" font-size="37.0" fill="#FFFFFF" transform="matrix(1.00, 0.00, -0.00, -1.00, 769.6, 149.8)"> </text><text xml:space="preserve" font-family="Menlo-Regular,Menlo" font-size="37.0" fill="#FFFFFF" transform="matrix(1.00, 0.00, -0.00, -1.00, 791.9, 149.8)">p</text><text xml:space="preserve" font-family="Menlo-Regular,Menlo" font-size="37.0" fill="#FFFFFF" transform="matrix(1.00, 0.00, -0.00, -1.00, 814.2, 149.8)">o</text><text xml:space="preserve" font-family="Menlo-Regular,Menlo" font-size="37.0" fill="#FFFFFF" transform="matrix(1.00, 0.00, -0.00, -1.00, 836.4, 149.8)">s</text><text xml:space="preserve" font-family="Menlo-Regular,Menlo" font-size="37.0" fill="#FFFFFF" transform="matrix(1.00, 0.00, -0.00, -1.00, 858.7, 149.8)">i</text><text xml:space="preserve" font-family="Menlo-Regular,Menlo" font-size="37.0" fill="#FFFFFF" transform="matrix(1.00, 0.00, -0.00, -1.00, 881.0, 149.8)">t</text><text xml:space="preserve" font-family="Menlo-Regular,Menlo" font-size="37.0" fill="#FFFFFF" transform="matrix(1.00, 0.00, -0.00, -1.00, 903.3, 149.8)">i</text><text xml:space="preserve" font-family="Menlo-Regular,Menlo" font-size="37.0" fill="#FFFFFF" transform="matrix(1.00, 0.00, -0.00, -1.00, 925.6, 149.8)">o</text><text xml:space="preserve" font-family="Menlo-Regular,Menlo" font-size="37.0" fill="#FFFFFF" transform="matrix(1.00, 0.00, -0.00, -1.00, 947.8, 149.8)">n</text><text xml:space="preserve" font-family="Menlo-Regular,Menlo" font-size="37.0" fill="#FFFFFF" transform="matrix(1.00, 0.00, -0.00, -1.00, 970.1, 149.8)">:</text><text xml:space="preserve" font-family="Menlo-Regular,Menlo" font-size="37.0" fill="#FFFFFF" transform="matrix(1.00, 0.00, -0.00, -1.00, 992.4, 149.8)"> </text><text xml:space="preserve" font-family="Menlo-Regular,Menlo" font-size="37.0" fill="#FFFFFF" transform="matrix(1.00, 0.00, -0.00, -1.00, 1014.7, 149.8)">P</text><text xml:space="preserve" font-family="Menlo-Regular,Menlo" font-size="37.0" fill="#FFFFFF" transform="matrix(1.00, 0.00, -0.00, -1.00, 1036.9, 149.8)">o</text><text xml:space="preserve" font-family="Menlo-Regular,Menlo" font-size="37.0" fill="#FFFFFF" transform="matrix(1.00, 0.00, -0.00, -1.00, 1059.2, 149.8)">s</text><text xml:space="preserve" font-family="Menlo-Regular,Menlo" font-size="37.0" fill="#FFFFFF" transform="matrix(1.00, 0.00, -0.00, -1.00, 1081.5, 149.8)">i</text><text xml:space="preserve" font-family="Menlo-Regular,Menlo" font-size="37.0" fill="#FFFFFF" transform="matrix(1.00, 0.00, -0.00, -1.00, 1103.8, 149.8)">t</text><text xml:space="preserve" font-family="Menlo-Regular,Menlo" font-size="37.0" fill="#FFFFFF" transform="matrix(1.00, 0.00, -0.00, -1.00, 1126.1, 149.8)">i</text><text xml:space="preserve" font-family="Menlo-Regular,Menlo" font-size="37.0" fill="#FFFFFF" transform="matrix(1.00, 0.00, -0.00, -1.00, 1148.3, 149.8)">o</text><text xml:space="preserve" font-family="Menlo-Regular,Menlo" font-size="37.0" fill="#FFFFFF" transform="matrix(1.00, 0.00, -0.00, -1.00, 1170.6, 149.8)">n</text><text xml:space="preserve" font-family="Menlo-Regular,Menlo" font-size="37.0" fill="#FFFFFF" transform="matrix(1.00, 0.00, -0.00, -1.00, 1192.9, 149.8)">(</text><text xml:space="preserve" font-family="Menlo-Regular,Menlo" font-size="37.0" fill="#FFFFFF" transform="matrix(1.00, 0.00, -0.00, -1.00, 1215.2, 149.8)">x</text><text xml:space="preserve" font-family="Menlo-Regular,Menlo" font-size="37.0" fill="#FFFFFF" transform="matrix(1.00, 0.00, -0.00, -1.00, 1237.5, 149.8)">:</text><text xml:space="preserve" font-family="Menlo-Regular,Menlo" font-size="37.0" fill="#FFFFFF" transform="matrix(1.00, 0.00, -0.00, -1.00, 1259.7, 149.8)"> </text><text xml:space="preserve" font-family="Menlo-Regular,Menlo" font-size="37.0" fill="#8B83CE" transform="matrix(1.00, 0.00, -0.00, -1.00, 1281.9, 149.8)">1</text><text xml:space="preserve" font-family="Menlo-Regular,Menlo" font-size="37.0" fill="#8B83CE" transform="matrix(1.00, 0.00, -0.00, -1.00, 1304.2, 149.8)">2</text><text xml:space="preserve" font-family="Menlo-Regular,Menlo" font-size="37.0" fill="#FFFFFF" transform="matrix(1.00, 0.00, -0.00, -1.00, 1326.5, 149.8)">,</text><text xml:space="preserve" font-family="Menlo-Regular,Menlo" font-size="37.0" fill="#FFFFFF" transform="matrix(1.00, 0.00, -0.00, -1.00, 1348.8, 149.8)"> </text><text xml:space="preserve" font-family="Menlo-Regular,Menlo" font-size="37.0" fill="#FFFFFF" transform="matrix(1.00, 0.00, -0.00, -1.00, 1371.0, 149.8)">y</text><text xml:space="preserve" font-family="Menlo-Regular,Menlo" font-size="37.0" fill="#FFFFFF" transform="matrix(1.00, 0.00, -0.00, -1.00, 1393.3, 149.8)">:</text><text xml:space="preserve" font-family="Menlo-Regular,Menlo" font-size="37.0" fill="#FFFFFF" transform="matrix(1.00, 0.00, -0.00, -1.00, 1415.6, 149.8)"> </text><text xml:space="preserve" font-family="Menlo-Regular,Menlo" font-size="37.0" fill="#8B83CE" transform="matrix(1.00, 0.00, -0.00, -1.00, 1437.9, 149.8)">5</text><text xml:space="preserve" font-family="Menlo-Regular,Menlo" font-size="37.0" fill="#FFFFFF" transform="matrix(1.00, 0.00, -0.00, -1.00, 1460.1, 149.8)">)</text><text xml:space="preserve" font-family="Menlo-Regular,Menlo" font-size="37.0" fill="#FFFFFF" transform="matrix(1.00, 0.00, -0.00, -1.00, 1482.4, 149.8)">)</text><text xml:space="preserve" font-family="Menlo-Regular,Menlo" font-size="37.0" fill="#FFFFFF" transform="matrix(1.00, 0.00, -0.00, -1.00, 1504.7, 149.8)"> </text><text xml:space="preserve" font-family="Menlo-Regular,Menlo" font-size="37.0" fill="#C1339A" transform="matrix(1.00, 0.00, -0.00, -1.00, 12.2, 106.8)">l</text><text xml:space="preserve" font-family="Menlo-Regular,Menlo" font-size="37.0" fill="#C1339A" transform="matrix(1.00, 0.00, -0.00, -1.00, 34.5, 106.8)">e</text><text xml:space="preserve" font-family="Menlo-Regular,Menlo" font-size="37.0" fill="#C1339A" transform="matrix(1.00, 0.00, -0.00, -1.00, 56.8, 106.8)">t</text><text xml:space="preserve" font-family="Menlo-Regular,Menlo" font-size="37.0" fill="#FFFFFF" transform="matrix(1.00, 0.00, -0.00, -1.00, 79.0, 106.8)"> </text><text xml:space="preserve" font-family="Menlo-Regular,Menlo" font-size="37.0" fill="#FFFFFF" transform="matrix(1.00, 0.00, -0.00, -1.00, 101.3, 106.8)">e</text><text xml:space="preserve" font-family="Menlo-Regular,Menlo" font-size="37.0" fill="#FFFFFF" transform="matrix(1.00, 0.00, -0.00, -1.00, 123.6, 106.8)">m</text><text xml:space="preserve" font-family="Menlo-Regular,Menlo" font-size="37.0" fill="#FFFFFF" transform="matrix(1.00, 0.00, -0.00, -1.00, 145.9, 106.8)">i</text><text xml:space="preserve" font-family="Menlo-Regular,Menlo" font-size="37.0" fill="#FFFFFF" transform="matrix(1.00, 0.00, -0.00, -1.00, 168.2, 106.8)">l</text><text xml:space="preserve" font-family="Menlo-Regular,Menlo" font-size="37.0" fill="#FFFFFF" transform="matrix(1.00, 0.00, -0.00, -1.00, 190.4, 106.8)">y</text><text xml:space="preserve" font-family="Menlo-Regular,Menlo" font-size="37.0" fill="#FFFFFF" transform="matrix(1.00, 0.00, -0.00, -1.00, 212.7, 106.8)"> </text><text xml:space="preserve" font-family="Menlo-Regular,Menlo" font-size="37.0" fill="#FFFFFF" transform="matrix(1.00, 0.00, -0.00, -1.00, 235.0, 106.8)">=</text><text xml:space="preserve" font-family="Menlo-Regular,Menlo" font-size="37.0" fill="#FFFFFF" transform="matrix(1.00, 0.00, -0.00, -1.00, 257.3, 106.8)"> </text><text xml:space="preserve" font-family="Menlo-Regular,Menlo" font-size="37.0" fill="#93C869" transform="matrix(1.00, 0.00, -0.00, -1.00, 279.5, 106.8)">G</text><text xml:space="preserve" font-family="Menlo-Regular,Menlo" font-size="37.0" fill="#93C869" transform="matrix(1.00, 0.00, -0.00, -1.00, 301.8, 106.8)">o</text><text xml:space="preserve" font-family="Menlo-Regular,Menlo" font-size="37.0" fill="#93C869" transform="matrix(1.00, 0.00, -0.00, -1.00, 324.1, 106.8)">r</text><text xml:space="preserve" font-family="Menlo-Regular,Menlo" font-size="37.0" fill="#93C869" transform="matrix(1.00, 0.00, -0.00, -1.00, 346.4, 106.8)">i</text><text xml:space="preserve" font-family="Menlo-Regular,Menlo" font-size="37.0" fill="#93C869" transform="matrix(1.00, 0.00, -0.00, -1.00, 368.6, 106.8)">l</text><text xml:space="preserve" font-family="Menlo-Regular,Menlo" font-size="37.0" fill="#93C869" transform="matrix(1.00, 0.00, -0.00, -1.00, 390.9, 106.8)">l</text><text xml:space="preserve" font-family="Menlo-Regular,Menlo" font-size="37.0" fill="#93C869" transform="matrix(1.00, 0.00, -0.00, -1.00, 413.2, 106.8)">a</text><text xml:space="preserve" font-family="Menlo-Regular,Menlo" font-size="37.0" fill="#FFFFFF" transform="matrix(1.00, 0.00, -0.00, -1.00, 435.5, 106.8)">(</text><text xml:space="preserve" font-family="Menlo-Regular,Menlo" font-size="37.0" fill="#FFFFFF" transform="matrix(1.00, 0.00, -0.00, -1.00, 457.7, 106.8)">n</text><text xml:space="preserve" font-family="Menlo-Regular,Menlo" font-size="37.0" fill="#FFFFFF" transform="matrix(1.00, 0.00, -0.00, -1.00, 480.0, 106.8)">a</text><text xml:space="preserve" font-family="Menlo-Regular,Menlo" font-size="37.0" fill="#FFFFFF" transform="matrix(1.00, 0.00, -0.00, -1.00, 502.3, 106.8)">m</text><text xml:space="preserve" font-family="Menlo-Regular,Menlo" font-size="37.0" fill="#FFFFFF" transform="matrix(1.00, 0.00, -0.00, -1.00, 524.6, 106.8)">e</text><text xml:space="preserve" font-family="Menlo-Regular,Menlo" font-size="37.0" fill="#FFFFFF" transform="matrix(1.00, 0.00, -0.00, -1.00, 546.8, 106.8)">:</text><text xml:space="preserve" font-family="Menlo-Regular,Menlo" font-size="37.0" fill="#FFFFFF" transform="matrix(1.00, 0.00, -0.00, -1.00, 569.1, 106.8)"> </text><text xml:space="preserve" font-family="Menlo-Regular,Menlo" font-size="37.0" fill="#E44347" transform="matrix(1.00, 0.00, -0.00, -1.00, 591.4, 106.8)">"</text><text xml:space="preserve" font-family="Menlo-Regular,Menlo" font-size="37.0" fill="#E44347" transform="matrix(1.00, 0.00, -0.00, -1.00, 613.7, 106.8)">E</text><text xml:space="preserve" font-family="Menlo-Regular,Menlo" font-size="37.0" fill="#E44347" transform="matrix(1.00, 0.00, -0.00, -1.00, 635.9, 106.8)">m</text><text xml:space="preserve" font-family="Menlo-Regular,Menlo" font-size="37.0" fill="#E44347" transform="matrix(1.00, 0.00, -0.00, -1.00, 658.2, 106.8)">i</text><text xml:space="preserve" font-family="Menlo-Regular,Menlo" font-size="37.0" fill="#E44347" transform="matrix(1.00, 0.00, -0.00, -1.00, 680.5, 106.8)">l</text><text xml:space="preserve" font-family="Menlo-Regular,Menlo" font-size="37.0" fill="#E44347" transform="matrix(1.00, 0.00, -0.00, -1.00, 702.8, 106.8)">y</text><text xml:space="preserve" font-family="Menlo-Regular,Menlo" font-size="37.0" fill="#E44347" transform="matrix(1.00, 0.00, -0.00, -1.00, 725.1, 106.8)">"</text><text xml:space="preserve" font-family="Menlo-Regular,Menlo" font-size="37.0" fill="#FFFFFF" transform="matrix(1.00, 0.00, -0.00, -1.00, 747.3, 106.8)">,</text><text xml:space="preserve" font-family="Menlo-Regular,Menlo" font-size="37.0" fill="#FFFFFF" transform="matrix(1.00, 0.00, -0.00, -1.00, 769.6, 106.8)"> </text><text xml:space="preserve" font-family="Menlo-Regular,Menlo" font-size="37.0" fill="#FFFFFF" transform="matrix(1.00, 0.00, -0.00, -1.00, 791.9, 106.8)">p</text><text xml:space="preserve" font-family="Menlo-Regular,Menlo" font-size="37.0" fill="#FFFFFF" transform="matrix(1.00, 0.00, -0.00, -1.00, 814.2, 106.8)">o</text><text xml:space="preserve" font-family="Menlo-Regular,Menlo" font-size="37.0" fill="#FFFFFF" transform="matrix(1.00, 0.00, -0.00, -1.00, 836.4, 106.8)">s</text><text xml:space="preserve" font-family="Menlo-Regular,Menlo" font-size="37.0" fill="#FFFFFF" transform="matrix(1.00, 0.00, -0.00, -1.00, 858.7, 106.8)">i</text><text xml:space="preserve" font-family="Menlo-Regular,Menlo" font-size="37.0" fill="#FFFFFF" transform="matrix(1.00, 0.00, -0.00, -1.00, 881.0, 106.8)">t</text><text xml:space="preserve" font-family="Menlo-Regular,Menlo" font-size="37.0" fill="#FFFFFF" transform="matrix(1.00, 0.00, -0.00, -1.00, 903.3, 106.8)">i</text><text xml:space="preserve" font-family="Menlo-Regular,Menlo" font-size="37.0" fill="#FFFFFF" transform="matrix(1.00, 0.00, -0.00, -1.00, 925.6, 106.8)">o</text><text xml:space="preserve" font-family="Menlo-Regular,Menlo" font-size="37.0" fill="#FFFFFF" transform="matrix(1.00, 0.00, -0.00, -1.00, 947.8, 106.8)">n</text><text xml:space="preserve" font-family="Menlo-Regular,Menlo" font-size="37.0" fill="#FFFFFF" transform="matrix(1.00, 0.00, -0.00, -1.00, 970.1, 106.8)">:</text><text xml:space="preserve" font-family="Menlo-Regular,Menlo" font-size="37.0" fill="#FFFFFF" transform="matrix(1.00, 0.00, -0.00, -1.00, 992.4, 106.8)"> </text><text xml:space="preserve" font-family="Menlo-Regular,Menlo" font-size="37.0" fill="#FFFFFF" transform="matrix(1.00, 0.00, -0.00, -1.00, 1014.7, 106.8)">P</text><text xml:space="preserve" font-family="Menlo-Regular,Menlo" font-size="37.0" fill="#FFFFFF" transform="matrix(1.00, 0.00, -0.00, -1.00, 1036.9, 106.8)">o</text><text xml:space="preserve" font-family="Menlo-Regular,Menlo" font-size="37.0" fill="#FFFFFF" transform="matrix(1.00, 0.00, -0.00, -1.00, 1059.2, 106.8)">s</text><text xml:space="preserve" font-family="Menlo-Regular,Menlo" font-size="37.0" fill="#FFFFFF" transform="matrix(1.00, 0.00, -0.00, -1.00, 1081.5, 106.8)">i</text><text xml:space="preserve" font-family="Menlo-Regular,Menlo" font-size="37.0" fill="#FFFFFF" transform="matrix(1.00, 0.00, -0.00, -1.00, 1103.8, 106.8)">t</text><text xml:space="preserve" font-family="Menlo-Regular,Menlo" font-size="37.0" fill="#FFFFFF" transform="matrix(1.00, 0.00, -0.00, -1.00, 1126.1, 106.8)">i</text><text xml:space="preserve" font-family="Menlo-Regular,Menlo" font-size="37.0" fill="#FFFFFF" transform="matrix(1.00, 0.00, -0.00, -1.00, 1148.3, 106.8)">o</text><text xml:space="preserve" font-family="Menlo-Regular,Menlo" font-size="37.0" fill="#FFFFFF" transform="matrix(1.00, 0.00, -0.00, -1.00, 1170.6, 106.8)">n</text><text xml:space="preserve" font-family="Menlo-Regular,Menlo" font-size="37.0" fill="#FFFFFF" transform="matrix(1.00, 0.00, -0.00, -1.00, 1192.9, 106.8)">(</text><text xml:space="preserve" font-family="Menlo-Regular,Menlo" font-size="37.0" fill="#FFFFFF" transform="matrix(1.00, 0.00, -0.00, -1.00, 1215.2, 106.8)">x</text><text xml:space="preserve" font-family="Menlo-Regular,Menlo" font-size="37.0" fill="#FFFFFF" transform="matrix(1.00, 0.00, -0.00, -1.00, 1237.5, 106.8)">:</text><text xml:space="preserve" font-family="Menlo-Regular,Menlo" font-size="37.0" fill="#FFFFFF" transform="matrix(1.00, 0.00, -0.00, -1.00, 1259.7, 106.8)"> </text><text xml:space="preserve" font-family="Menlo-Regular,Menlo" font-size="37.0" fill="#8B83CE" transform="matrix(1.00, 0.00, -0.00, -1.00, 1281.9, 106.8)">5</text><text xml:space="preserve" font-family="Menlo-Regular,Menlo" font-size="37.0" fill="#FFFFFF" transform="matrix(1.00, 0.00, -0.00, -1.00, 1304.2, 106.8)">,</text><text xml:space="preserve" font-family="Menlo-Regular,Menlo" font-size="37.0" fill="#FFFFFF" transform="matrix(1.00, 0.00, -0.00, -1.00, 1326.5, 106.8)"> </text><text xml:space="preserve" font-family="Menlo-Regular,Menlo" font-size="37.0" fill="#FFFFFF" transform="matrix(1.00, 0.00, -0.00, -1.00, 1348.8, 106.8)">y</text><text xml:space="preserve" font-family="Menlo-Regular,Menlo" font-size="37.0" fill="#FFFFFF" transform="matrix(1.00, 0.00, -0.00, -1.00, 1371.0, 106.8)">:</text><text xml:space="preserve" font-family="Menlo-Regular,Menlo" font-size="37.0" fill="#FFFFFF" transform="matrix(1.00, 0.00, -0.00, -1.00, 1393.3, 106.8)"> </text><text xml:space="preserve" font-family="Menlo-Regular,Menlo" font-size="37.0" fill="#8B83CE" transform="matrix(1.00, 0.00, -0.00, -1.00, 1415.6, 106.8)">5</text><text xml:space="preserve" font-family="Menlo-Regular,Menlo" font-size="37.0" fill="#FFFFFF" transform="matrix(1.00, 0.00, -0.00, -1.00, 1437.9, 106.8)">)</text><text xml:space="preserve" font-family="Menlo-Regular,Menlo" font-size="37.0" fill="#FFFFFF" transform="matrix(1.00, 0.00, -0.00, -1.00, 1460.1, 106.8)">)</text><text xml:space="preserve" font-family="Menlo-Regular,Menlo" font-size="37.0" fill="#FFFFFF" transform="matrix(1.00, 0.00, -0.00, -1.00, 1482.4, 106.8)"> </text><text xml:space="preserve" font-family="Menlo-Regular,Menlo" font-size="37.0" fill="#C1339A" transform="matrix(1.00, 0.00, -0.00, -1.00, 12.2, 63.8)">l</text><text xml:space="preserve" font-family="Menlo-Regular,Menlo" font-size="37.0" fill="#C1339A" transform="matrix(1.00, 0.00, -0.00, -1.00, 34.5, 63.8)">e</text><text xml:space="preserve" font-family="Menlo-Regular,Menlo" font-size="37.0" fill="#C1339A" transform="matrix(1.00, 0.00, -0.00, -1.00, 56.8, 63.8)">t</text><text xml:space="preserve" font-family="Menlo-Regular,Menlo" font-size="37.0" fill="#FFFFFF" transform="matrix(1.00, 0.00, -0.00, -1.00, 79.0, 63.8)"> </text><text xml:space="preserve" font-family="Menlo-Regular,Menlo" font-size="37.0" fill="#FFFFFF" transform="matrix(1.00, 0.00, -0.00, -1.00, 101.3, 63.8)">e</text><text xml:space="preserve" font-family="Menlo-Regular,Menlo" font-size="37.0" fill="#FFFFFF" transform="matrix(1.00, 0.00, -0.00, -1.00, 123.6, 63.8)">v</text><text xml:space="preserve" font-family="Menlo-Regular,Menlo" font-size="37.0" fill="#FFFFFF" transform="matrix(1.00, 0.00, -0.00, -1.00, 145.9, 63.8)">a</text><text xml:space="preserve" font-family="Menlo-Regular,Menlo" font-size="37.0" fill="#FFFFFF" transform="matrix(1.00, 0.00, -0.00, -1.00, 168.2, 63.8)"> </text><text xml:space="preserve" font-family="Menlo-Regular,Menlo" font-size="37.0" fill="#FFFFFF" transform="matrix(1.00, 0.00, -0.00, -1.00, 190.4, 63.8)">=</text><text xml:space="preserve" font-family="Menlo-Regular,Menlo" font-size="37.0" fill="#FFFFFF" transform="matrix(1.00, 0.00, -0.00, -1.00, 212.7, 63.8)"> </text><text xml:space="preserve" font-family="Menlo-Regular,Menlo" font-size="37.0" fill="#93C869" transform="matrix(1.00, 0.00, -0.00, -1.00, 235.0, 63.8)">G</text><text xml:space="preserve" font-family="Menlo-Regular,Menlo" font-size="37.0" fill="#93C869" transform="matrix(1.00, 0.00, -0.00, -1.00, 257.2, 63.8)">o</text><text xml:space="preserve" font-family="Menlo-Regular,Menlo" font-size="37.0" fill="#93C869" transform="matrix(1.00, 0.00, -0.00, -1.00, 279.5, 63.8)">r</text><text xml:space="preserve" font-family="Menlo-Regular,Menlo" font-size="37.0" fill="#93C869" transform="matrix(1.00, 0.00, -0.00, -1.00, 301.8, 63.8)">i</text><text xml:space="preserve" font-family="Menlo-Regular,Menlo" font-size="37.0" fill="#93C869" transform="matrix(1.00, 0.00, -0.00, -1.00, 324.1, 63.8)">l</text><text xml:space="preserve" font-family="Menlo-Regular,Menlo" font-size="37.0" fill="#93C869" transform="matrix(1.00, 0.00, -0.00, -1.00, 346.4, 63.8)">l</text><text xml:space="preserve" font-family="Menlo-Regular,Menlo" font-size="37.0" fill="#93C869" transform="matrix(1.00, 0.00, -0.00, -1.00, 368.6, 63.8)">a</text><text xml:space="preserve" font-family="Menlo-Regular,Menlo" font-size="37.0" fill="#FFFFFF" transform="matrix(1.00, 0.00, -0.00, -1.00, 390.9, 63.8)">(</text><text xml:space="preserve" font-family="Menlo-Regular,Menlo" font-size="37.0" fill="#FFFFFF" transform="matrix(1.00, 0.00, -0.00, -1.00, 413.2, 63.8)">n</text><text xml:space="preserve" font-family="Menlo-Regular,Menlo" font-size="37.0" fill="#FFFFFF" transform="matrix(1.00, 0.00, -0.00, -1.00, 435.5, 63.8)">a</text><text xml:space="preserve" font-family="Menlo-Regular,Menlo" font-size="37.0" fill="#FFFFFF" transform="matrix(1.00, 0.00, -0.00, -1.00, 457.7, 63.8)">m</text><text xml:space="preserve" font-family="Menlo-Regular,Menlo" font-size="37.0" fill="#FFFFFF" transform="matrix(1.00, 0.00, -0.00, -1.00, 480.0, 63.8)">e</text><text xml:space="preserve" font-family="Menlo-Regular,Menlo" font-size="37.0" fill="#FFFFFF" transform="matrix(1.00, 0.00, -0.00, -1.00, 502.3, 63.8)">:</text><text xml:space="preserve" font-family="Menlo-Regular,Menlo" font-size="37.0" fill="#FFFFFF" transform="matrix(1.00, 0.00, -0.00, -1.00, 524.6, 63.8)"> </text><text xml:space="preserve" font-family="Menlo-Regular,Menlo" font-size="37.0" fill="#E44347" transform="matrix(1.00, 0.00, -0.00, -1.00, 546.8, 63.8)">"</text><text xml:space="preserve" font-family="Menlo-Regular,Menlo" font-size="37.0" fill="#E44347" transform="matrix(1.00, 0.00, -0.00, -1.00, 569.1, 63.8)">E</text><text xml:space="preserve" font-family="Menlo-Regular,Menlo" font-size="37.0" fill="#E44347" transform="matrix(1.00, 0.00, -0.00, -1.00, 591.4, 63.8)">v</text><text xml:space="preserve" font-family="Menlo-Regular,Menlo" font-size="37.0" fill="#E44347" transform="matrix(1.00, 0.00, -0.00, -1.00, 613.7, 63.8)">a</text><text xml:space="preserve" font-family="Menlo-Regular,Menlo" font-size="37.0" fill="#E44347" transform="matrix(1.00, 0.00, -0.00, -1.00, 635.9, 63.8)">"</text><text xml:space="preserve" font-family="Menlo-Regular,Menlo" font-size="37.0" fill="#FFFFFF" transform="matrix(1.00, 0.00, -0.00, -1.00, 658.2, 63.8)">,</text><text xml:space="preserve" font-family="Menlo-Regular,Menlo" font-size="37.0" fill="#FFFFFF" transform="matrix(1.00, 0.00, -0.00, -1.00, 680.5, 63.8)"> </text><text xml:space="preserve" font-family="Menlo-Regular,Menlo" font-size="37.0" fill="#FFFFFF" transform="matrix(1.00, 0.00, -0.00, -1.00, 702.8, 63.8)">p</text><text xml:space="preserve" font-family="Menlo-Regular,Menlo" font-size="37.0" fill="#FFFFFF" transform="matrix(1.00, 0.00, -0.00, -1.00, 725.0, 63.8)">o</text><text xml:space="preserve" font-family="Menlo-Regular,Menlo" font-size="37.0" fill="#FFFFFF" transform="matrix(1.00, 0.00, -0.00, -1.00, 747.3, 63.8)">s</text><text xml:space="preserve" font-family="Menlo-Regular,Menlo" font-size="37.0" fill="#FFFFFF" transform="matrix(1.00, 0.00, -0.00, -1.00, 769.6, 63.8)">i</text><text xml:space="preserve" font-family="Menlo-Regular,Menlo" font-size="37.0" fill="#FFFFFF" transform="matrix(1.00, 0.00, -0.00, -1.00, 791.9, 63.8)">t</text><text xml:space="preserve" font-family="Menlo-Regular,Menlo" font-size="37.0" fill="#FFFFFF" transform="matrix(1.00, 0.00, -0.00, -1.00, 814.2, 63.8)">i</text><text xml:space="preserve" font-family="Menlo-Regular,Menlo" font-size="37.0" fill="#FFFFFF" transform="matrix(1.00, 0.00, -0.00, -1.00, 836.4, 63.8)">o</text><text xml:space="preserve" font-family="Menlo-Regular,Menlo" font-size="37.0" fill="#FFFFFF" transform="matrix(1.00, 0.00, -0.00, -1.00, 858.7, 63.8)">n</text><text xml:space="preserve" font-family="Menlo-Regular,Menlo" font-size="37.0" fill="#FFFFFF" transform="matrix(1.00, 0.00, -0.00, -1.00, 881.0, 63.8)">:</text><text xml:space="preserve" font-family="Menlo-Regular,Menlo" font-size="37.0" fill="#FFFFFF" transform="matrix(1.00, 0.00, -0.00, -1.00, 903.3, 63.8)"> </text><text xml:space="preserve" font-family="Menlo-Regular,Menlo" font-size="37.0" fill="#FFFFFF" transform="matrix(1.00, 0.00, -0.00, -1.00, 925.6, 63.8)">P</text><text xml:space="preserve" font-family="Menlo-Regular,Menlo" font-size="37.0" fill="#FFFFFF" transform="matrix(1.00, 0.00, -0.00, -1.00, 947.8, 63.8)">o</text><text xml:space="preserve" font-family="Menlo-Regular,Menlo" font-size="37.0" fill="#FFFFFF" transform="matrix(1.00, 0.00, -0.00, -1.00, 970.1, 63.8)">s</text><text xml:space="preserve" font-family="Menlo-Regular,Menlo" font-size="37.0" fill="#FFFFFF" transform="matrix(1.00, 0.00, -0.00, -1.00, 992.4, 63.8)">i</text><text xml:space="preserve" font-family="Menlo-Regular,Menlo" font-size="37.0" fill="#FFFFFF" transform="matrix(1.00, 0.00, -0.00, -1.00, 1014.7, 63.8)">t</text><text xml:space="preserve" font-family="Menlo-Regular,Menlo" font-size="37.0" fill="#FFFFFF" transform="matrix(1.00, 0.00, -0.00, -1.00, 1037.0, 63.8)">i</text><text xml:space="preserve" font-family="Menlo-Regular,Menlo" font-size="37.0" fill="#FFFFFF" transform="matrix(1.00, 0.00, -0.00, -1.00, 1059.2, 63.8)">o</text><text xml:space="preserve" font-family="Menlo-Regular,Menlo" font-size="37.0" fill="#FFFFFF" transform="matrix(1.00, 0.00, -0.00, -1.00, 1081.5, 63.8)">n</text><text xml:space="preserve" font-family="Menlo-Regular,Menlo" font-size="37.0" fill="#FFFFFF" transform="matrix(1.00, 0.00, -0.00, -1.00, 1103.8, 63.8)">(</text><text xml:space="preserve" font-family="Menlo-Regular,Menlo" font-size="37.0" fill="#FFFFFF" transform="matrix(1.00, 0.00, -0.00, -1.00, 1126.1, 63.8)">x</text><text xml:space="preserve" font-family="Menlo-Regular,Menlo" font-size="37.0" fill="#FFFFFF" transform="matrix(1.00, 0.00, -0.00, -1.00, 1148.4, 63.8)">:</text><text xml:space="preserve" font-family="Menlo-Regular,Menlo" font-size="37.0" fill="#FFFFFF" transform="matrix(1.00, 0.00, -0.00, -1.00, 1170.6, 63.8)"> </text><text xml:space="preserve" font-family="Menlo-Regular,Menlo" font-size="37.0" fill="#8B83CE" transform="matrix(1.00, 0.00, -0.00, -1.00, 1192.8, 63.8)">1</text><text xml:space="preserve" font-family="Menlo-Regular,Menlo" font-size="37.0" fill="#8B83CE" transform="matrix(1.00, 0.00, -0.00, -1.00, 1215.1, 63.8)">0</text><text xml:space="preserve" font-family="Menlo-Regular,Menlo" font-size="37.0" fill="#FFFFFF" transform="matrix(1.00, 0.00, -0.00, -1.00, 1237.4, 63.8)">,</text><text xml:space="preserve" font-family="Menlo-Regular,Menlo" font-size="37.0" fill="#FFFFFF" transform="matrix(1.00, 0.00, -0.00, -1.00, 1259.7, 63.8)"> </text><text xml:space="preserve" font-family="Menlo-Regular,Menlo" font-size="37.0" fill="#FFFFFF" transform="matrix(1.00, 0.00, -0.00, -1.00, 1281.9, 63.8)">y</text><text xml:space="preserve" font-family="Menlo-Regular,Menlo" font-size="37.0" fill="#FFFFFF" transform="matrix(1.00, 0.00, -0.00, -1.00, 1304.2, 63.8)">:</text><text xml:space="preserve" font-family="Menlo-Regular,Menlo" font-size="37.0" fill="#FFFFFF" transform="matrix(1.00, 0.00, -0.00, -1.00, 1326.5, 63.8)"> </text><text xml:space="preserve" font-family="Menlo-Regular,Menlo" font-size="37.0" fill="#8B83CE" transform="matrix(1.00, 0.00, -0.00, -1.00, 1348.8, 63.8)">1</text><text xml:space="preserve" font-family="Menlo-Regular,Menlo" font-size="37.0" fill="#8B83CE" transform="matrix(1.00, 0.00, -0.00, -1.00, 1371.0, 63.8)">0</text><text xml:space="preserve" font-family="Menlo-Regular,Menlo" font-size="37.0" fill="#FFFFFF" transform="matrix(1.00, 0.00, -0.00, -1.00, 1393.3, 63.8)">)</text><text xml:space="preserve" font-family="Menlo-Regular,Menlo" font-size="37.0" fill="#FFFFFF" transform="matrix(1.00, 0.00, -0.00, -1.00, 1415.6, 63.8)">)</text><text xml:space="preserve" font-family="Menlo-Regular,Menlo" font-size="37.0" fill="#FFFFFF" transform="matrix(1.00, 0.00, -0.00, -1.00, 1437.9, 63.8)"> </text><text xml:space="preserve" font-family="Menlo-Regular,Menlo" font-size="37.0" fill="#C1339A" transform="matrix(1.00, 0.00, -0.00, -1.00, 12.2, 20.8)">l</text><text xml:space="preserve" font-family="Menlo-Regular,Menlo" font-size="37.0" fill="#C1339A" transform="matrix(1.00, 0.00, -0.00, -1.00, 34.5, 20.8)">e</text><text xml:space="preserve" font-family="Menlo-Regular,Menlo" font-size="37.0" fill="#C1339A" transform="matrix(1.00, 0.00, -0.00, -1.00, 56.8, 20.8)">t</text><text xml:space="preserve" font-family="Menlo-Regular,Menlo" font-size="37.0" fill="#FFFFFF" transform="matrix(1.00, 0.00, -0.00, -1.00, 79.0, 20.8)"> </text><text xml:space="preserve" font-family="Menlo-Regular,Menlo" font-size="37.0" fill="#FFFFFF" transform="matrix(1.00, 0.00, -0.00, -1.00, 101.3, 20.8)">l</text><text xml:space="preserve" font-family="Menlo-Regular,Menlo" font-size="37.0" fill="#FFFFFF" transform="matrix(1.00, 0.00, -0.00, -1.00, 123.6, 20.8)">i</text><text xml:space="preserve" font-family="Menlo-Regular,Menlo" font-size="37.0" fill="#FFFFFF" transform="matrix(1.00, 0.00, -0.00, -1.00, 145.9, 20.8)">s</text><text xml:space="preserve" font-family="Menlo-Regular,Menlo" font-size="37.0" fill="#FFFFFF" transform="matrix(1.00, 0.00, -0.00, -1.00, 168.2, 20.8)">t</text><text xml:space="preserve" font-family="Menlo-Regular,Menlo" font-size="37.0" fill="#FFFFFF" transform="matrix(1.00, 0.00, -0.00, -1.00, 190.4, 20.8)">O</text><text xml:space="preserve" font-family="Menlo-Regular,Menlo" font-size="37.0" fill="#FFFFFF" transform="matrix(1.00, 0.00, -0.00, -1.00, 212.7, 20.8)">f</text><text xml:space="preserve" font-family="Menlo-Regular,Menlo" font-size="37.0" fill="#FFFFFF" transform="matrix(1.00, 0.00, -0.00, -1.00, 235.0, 20.8)">G</text><text xml:space="preserve" font-family="Menlo-Regular,Menlo" font-size="37.0" fill="#FFFFFF" transform="matrix(1.00, 0.00, -0.00, -1.00, 257.3, 20.8)">o</text><text xml:space="preserve" font-family="Menlo-Regular,Menlo" font-size="37.0" fill="#FFFFFF" transform="matrix(1.00, 0.00, -0.00, -1.00, 279.6, 20.8)">r</text><text xml:space="preserve" font-family="Menlo-Regular,Menlo" font-size="37.0" fill="#FFFFFF" transform="matrix(1.00, 0.00, -0.00, -1.00, 301.8, 20.8)">i</text><text xml:space="preserve" font-family="Menlo-Regular,Menlo" font-size="37.0" fill="#FFFFFF" transform="matrix(1.00, 0.00, -0.00, -1.00, 324.1, 20.8)">l</text><text xml:space="preserve" font-family="Menlo-Regular,Menlo" font-size="37.0" fill="#FFFFFF" transform="matrix(1.00, 0.00, -0.00, -1.00, 346.4, 20.8)">l</text><text xml:space="preserve" font-family="Menlo-Regular,Menlo" font-size="37.0" fill="#FFFFFF" transform="matrix(1.00, 0.00, -0.00, -1.00, 368.7, 20.8)">a</text><text xml:space="preserve" font-family="Menlo-Regular,Menlo" font-size="37.0" fill="#FFFFFF" transform="matrix(1.00, 0.00, -0.00, -1.00, 391.0, 20.8)">s</text><text xml:space="preserve" font-family="Menlo-Regular,Menlo" font-size="37.0" fill="#FFFFFF" transform="matrix(1.00, 0.00, -0.00, -1.00, 413.2, 20.8)">I</text><text xml:space="preserve" font-family="Menlo-Regular,Menlo" font-size="37.0" fill="#FFFFFF" transform="matrix(1.00, 0.00, -0.00, -1.00, 435.5, 20.8)">n</text><text xml:space="preserve" font-family="Menlo-Regular,Menlo" font-size="37.0" fill="#FFFFFF" transform="matrix(1.00, 0.00, -0.00, -1.00, 457.8, 20.8)">B</text><text xml:space="preserve" font-family="Menlo-Regular,Menlo" font-size="37.0" fill="#FFFFFF" transform="matrix(1.00, 0.00, -0.00, -1.00, 480.1, 20.8)">a</text><text xml:space="preserve" font-family="Menlo-Regular,Menlo" font-size="37.0" fill="#FFFFFF" transform="matrix(1.00, 0.00, -0.00, -1.00, 502.3, 20.8)">n</text><text xml:space="preserve" font-family="Menlo-Regular,Menlo" font-size="37.0" fill="#FFFFFF" transform="matrix(1.00, 0.00, -0.00, -1.00, 524.6, 20.8)">a</text><text xml:space="preserve" font-family="Menlo-Regular,Menlo" font-size="37.0" fill="#FFFFFF" transform="matrix(1.00, 0.00, -0.00, -1.00, 546.9, 20.8)">n</text><text xml:space="preserve" font-family="Menlo-Regular,Menlo" font-size="37.0" fill="#FFFFFF" transform="matrix(1.00, 0.00, -0.00, -1.00, 569.2, 20.8)">a</text><text xml:space="preserve" font-family="Menlo-Regular,Menlo" font-size="37.0" fill="#FFFFFF" transform="matrix(1.00, 0.00, -0.00, -1.00, 591.5, 20.8)">A</text><text xml:space="preserve" font-family="Menlo-Regular,Menlo" font-size="37.0" fill="#FFFFFF" transform="matrix(1.00, 0.00, -0.00, -1.00, 613.7, 20.8)">e</text><text xml:space="preserve" font-family="Menlo-Regular,Menlo" font-size="37.0" fill="#FFFFFF" transform="matrix(1.00, 0.00, -0.00, -1.00, 636.0, 20.8)">r</text><text xml:space="preserve" font-family="Menlo-Regular,Menlo" font-size="37.0" fill="#FFFFFF" transform="matrix(1.00, 0.00, -0.00, -1.00, 658.3, 20.8)">a</text><text xml:space="preserve" font-family="Menlo-Regular,Menlo" font-size="37.0" fill="#FFFFFF" transform="matrix(1.00, 0.00, -0.00, -1.00, 680.6, 20.8)"> </text><text xml:space="preserve" font-family="Menlo-Regular,Menlo" font-size="37.0" fill="#FFFFFF" transform="matrix(1.00, 0.00, -0.00, -1.00, 702.9, 20.8)">=</text><text xml:space="preserve" font-family="Menlo-Regular,Menlo" font-size="37.0" fill="#FFFFFF" transform="matrix(1.00, 0.00, -0.00, -1.00, 725.1, 20.8)"> </text><text xml:space="preserve" font-family="Menlo-Regular,Menlo" font-size="37.0" fill="#FFFFFF" transform="matrix(1.00, 0.00, -0.00, -1.00, 747.4, 20.8)">[</text><text xml:space="preserve" font-family="Menlo-Regular,Menlo" font-size="37.0" fill="#93C869" transform="matrix(1.00, 0.00, -0.00, -1.00, 769.6, 20.8)">j</text><text xml:space="preserve" font-family="Menlo-Regular,Menlo" font-size="37.0" fill="#93C869" transform="matrix(1.00, 0.00, -0.00, -1.00, 791.9, 20.8)">u</text><text xml:space="preserve" font-family="Menlo-Regular,Menlo" font-size="37.0" fill="#93C869" transform="matrix(1.00, 0.00, -0.00, -1.00, 814.1, 20.8)">l</text><text xml:space="preserve" font-family="Menlo-Regular,Menlo" font-size="37.0" fill="#93C869" transform="matrix(1.00, 0.00, -0.00, -1.00, 836.4, 20.8)">i</text><text xml:space="preserve" font-family="Menlo-Regular,Menlo" font-size="37.0" fill="#93C869" transform="matrix(1.00, 0.00, -0.00, -1.00, 858.7, 20.8)">a</text><text xml:space="preserve" font-family="Menlo-Regular,Menlo" font-size="37.0" fill="#FFFFFF" transform="matrix(1.00, 0.00, -0.00, -1.00, 881.0, 20.8)">,</text><text xml:space="preserve" font-family="Menlo-Regular,Menlo" font-size="37.0" fill="#FFFFFF" transform="matrix(1.00, 0.00, -0.00, -1.00, 903.2, 20.8)"> </text><text xml:space="preserve" font-family="Menlo-Regular,Menlo" font-size="37.0" fill="#93C869" transform="matrix(1.00, 0.00, -0.00, -1.00, 925.5, 20.8)">e</text><text xml:space="preserve" font-family="Menlo-Regular,Menlo" font-size="37.0" fill="#93C869" transform="matrix(1.00, 0.00, -0.00, -1.00, 947.8, 20.8)">m</text><text xml:space="preserve" font-family="Menlo-Regular,Menlo" font-size="37.0" fill="#93C869" transform="matrix(1.00, 0.00, -0.00, -1.00, 970.1, 20.8)">i</text><text xml:space="preserve" font-family="Menlo-Regular,Menlo" font-size="37.0" fill="#93C869" transform="matrix(1.00, 0.00, -0.00, -1.00, 992.4, 20.8)">l</text><text xml:space="preserve" font-family="Menlo-Regular,Menlo" font-size="37.0" fill="#93C869" transform="matrix(1.00, 0.00, -0.00, -1.00, 1014.6, 20.8)">y</text><text xml:space="preserve" font-family="Menlo-Regular,Menlo" font-size="37.0" fill="#FFFFFF" transform="matrix(1.00, 0.00, -0.00, -1.00, 1036.9, 20.8)">,</text><text xml:space="preserve" font-family="Menlo-Regular,Menlo" font-size="37.0" fill="#FFFFFF" transform="matrix(1.00, 0.00, -0.00, -1.00, 1059.2, 20.8)"> </text><text xml:space="preserve" font-family="Menlo-Regular,Menlo" font-size="37.0" fill="#93C869" transform="matrix(1.00, 0.00, -0.00, -1.00, 1081.5, 20.8)">e</text><text xml:space="preserve" font-family="Menlo-Regular,Menlo" font-size="37.0" fill="#93C869" transform="matrix(1.00, 0.00, -0.00, -1.00, 1103.7, 20.8)">v</text><text xml:space="preserve" font-family="Menlo-Regular,Menlo" font-size="37.0" fill="#93C869" transform="matrix(1.00, 0.00, -0.00, -1.00, 1126.0, 20.8)">a</text><text xml:space="preserve" font-family="Menlo-Regular,Menlo" font-size="37.0" fill="#FFFFFF" transform="matrix(1.00, 0.00, -0.00, -1.00, 1148.3, 20.8)">]</text><text xml:space="preserve" font-family="Menlo-Regular,Menlo" font-size="37.0" fill="#FFFFFF" transform="matrix(1.00, 0.00, -0.00, -1.00, 1170.6, 20.8)">.</text><text xml:space="preserve" font-family="Menlo-Regular,Menlo" font-size="37.0" fill="#00AFC9" transform="matrix(1.00, 0.00, -0.00, -1.00, 1192.8, 20.8)">f</text><text xml:space="preserve" font-family="Menlo-Regular,Menlo" font-size="37.0" fill="#00AFC9" transform="matrix(1.00, 0.00, -0.00, -1.00, 1215.1, 20.8)">i</text><text xml:space="preserve" font-family="Menlo-Regular,Menlo" font-size="37.0" fill="#00AFC9" transform="matrix(1.00, 0.00, -0.00, -1.00, 1237.4, 20.8)">l</text><text xml:space="preserve" font-family="Menlo-Regular,Menlo" font-size="37.0" fill="#00AFC9" transform="matrix(1.00, 0.00, -0.00, -1.00, 1259.7, 20.8)">t</text><text xml:space="preserve" font-family="Menlo-Regular,Menlo" font-size="37.0" fill="#00AFC9" transform="matrix(1.00, 0.00, -0.00, -1.00, 1282.0, 20.8)">e</text><text xml:space="preserve" font-family="Menlo-Regular,Menlo" font-size="37.0" fill="#00AFC9" transform="matrix(1.00, 0.00, -0.00, -1.00, 1304.2, 20.8)">r</text><text xml:space="preserve" font-family="Menlo-Regular,Menlo" font-size="37.0" fill="#FFFFFF" transform="matrix(1.00, 0.00, -0.00, -1.00, 1326.5, 20.8)">(</text><text xml:space="preserve" font-family="Menlo-Regular,Menlo" font-size="37.0" fill="#93C869" transform="matrix(1.00, 0.00, -0.00, -1.00, 1348.8, 20.8)">i</text><text xml:space="preserve" font-family="Menlo-Regular,Menlo" font-size="37.0" fill="#93C869" transform="matrix(1.00, 0.00, -0.00, -1.00, 1371.0, 20.8)">n</text><text xml:space="preserve" font-family="Menlo-Regular,Menlo" font-size="37.0" fill="#93C869" transform="matrix(1.00, 0.00, -0.00, -1.00, 1393.3, 20.8)">R</text><text xml:space="preserve" font-family="Menlo-Regular,Menlo" font-size="37.0" fill="#93C869" transform="matrix(1.00, 0.00, -0.00, -1.00, 1415.6, 20.8)">a</text><text xml:space="preserve" font-family="Menlo-Regular,Menlo" font-size="37.0" fill="#93C869" transform="matrix(1.00, 0.00, -0.00, -1.00, 1437.9, 20.8)">n</text><text xml:space="preserve" font-family="Menlo-Regular,Menlo" font-size="37.0" fill="#93C869" transform="matrix(1.00, 0.00, -0.00, -1.00, 1460.2, 20.8)">g</text><text xml:space="preserve" font-family="Menlo-Regular,Menlo" font-size="37.0" fill="#93C869" transform="matrix(1.00, 0.00, -0.00, -1.00, 1482.4, 20.8)">e</text><text xml:space="preserve" font-family="Menlo-Regular,Menlo" font-size="37.0" fill="#FFFFFF" transform="matrix(1.00, 0.00, -0.00, -1.00, 1504.7, 20.8)">)</text></g></g></g></svg>