<?xml version="1.0" encoding="UTF-8" standalone="no"?><svg xmlns="http://www.w3.org/2000/svg" xmlns:xlink="http://www.w3.org/1999/xlink" clip-rule="evenodd" stroke-miterlimit="10" viewBox="0 0 912 313"><desc>SVG generated by Keynote</desc><defs></defs><g transform="matrix(1.00, 0.00, -0.00, -1.00, 0.0, 313.0)"><g><clipPath id="clip0x7fbff53caa80"><path d="M -3.3 252.1 L 915.3 252.1 L 915.3 316.6 L -3.3 316.6 Z M -3.3 252.1 "></path></clipPath><g clip-path="url(#clip0x7fbff53caa80)"><text xml:space="preserve" font-family="Menlo-Bold,Menlo" font-weight="bold" font-size="37.0" fill="#FFFFFF" transform="matrix(1.00, 0.00, -0.00, -1.00, 7.5, 271.6)">&gt;</text><text xml:space="preserve" font-family="Menlo-Bold,Menlo" font-weight="bold" font-size="37.0" fill="#FFFFFF" transform="matrix(1.00, 0.00, -0.00, -1.00, 29.7, 271.6)">&gt;</text><text xml:space="preserve" font-family="Menlo-Bold,Menlo" font-weight="bold" font-size="37.0" fill="#FFFFFF" transform="matrix(1.00, 0.00, -0.00, -1.00, 52.0, 271.6)"> </text><text xml:space="preserve" font-family="Menlo-Bold,Menlo" font-weight="bold" font-size="37.0" fill="#FFFFFF" transform="matrix(1.00, 0.00, -0.00, -1.00, 74.3, 271.6)">D</text><text xml:space="preserve" font-family="Menlo-Bold,Menlo" font-weight="bold" font-size="37.0" fill="#FFFFFF" transform="matrix(1.00, 0.00, -0.00, -1.00, 96.6, 271.6)">i</text><text xml:space="preserve" font-family="Menlo-Bold,Menlo" font-weight="bold" font-size="37.0" fill="#FFFFFF" transform="matrix(1.00, 0.00, -0.00, -1.00, 118.8, 271.6)">a</text><text xml:space="preserve" font-family="Menlo-Bold,Menlo" font-weight="bold" font-size="37.0" fill="#FFFFFF" transform="matrix(1.00, 0.00, -0.00, -1.00, 141.1, 271.6)">1</text><text xml:space="preserve" font-family="Menlo-Bold,Menlo" font-weight="bold" font-size="37.0" fill="#FFFFFF" transform="matrix(1.00, 0.00, -0.00, -1.00, 163.4, 271.6)">'</text><text xml:space="preserve" font-family="Menlo-Bold,Menlo" font-weight="bold" font-size="37.0" fill="#FFFFFF" transform="matrix(1.00, 0.00, -0.00, -1.00, 185.7, 271.6)">s</text><text xml:space="preserve" font-family="Menlo-Bold,Menlo" font-weight="bold" font-size="37.0" fill="#FFFFFF" transform="matrix(1.00, 0.00, -0.00, -1.00, 208.0, 271.6)"> </text><text xml:space="preserve" font-family="Menlo-Bold,Menlo" font-weight="bold" font-size="37.0" fill="#FFFFFF" transform="matrix(1.00, 0.00, -0.00, -1.00, 230.2, 271.6)">r</text><text xml:space="preserve" font-family="Menlo-Bold,Menlo" font-weight="bold" font-size="37.0" fill="#FFFFFF" transform="matrix(1.00, 0.00, -0.00, -1.00, 252.5, 271.6)">e</text><text xml:space="preserve" font-family="Menlo-Bold,Menlo" font-weight="bold" font-size="37.0" fill="#FFFFFF" transform="matrix(1.00, 0.00, -0.00, -1.00, 274.8, 271.6)">c</text><text xml:space="preserve" font-family="Menlo-Bold,Menlo" font-weight="bold" font-size="37.0" fill="#FFFFFF" transform="matrix(1.00, 0.00, -0.00, -1.00, 297.1, 271.6)">t</text><text xml:space="preserve" font-family="Menlo-Bold,Menlo" font-weight="bold" font-size="37.0" fill="#FFFFFF" transform="matrix(1.00, 0.00, -0.00, -1.00, 319.4, 271.6)"> </text><text xml:space="preserve" font-family="Menlo-Bold,Menlo" font-weight="bold" font-size="37.0" fill="#FFFFFF" transform="matrix(1.00, 0.00, -0.00, -1.00, 341.6, 271.6)">1</text><text xml:space="preserve" font-family="Menlo-Bold,Menlo" font-weight="bold" font-size="37.0" fill="#FFFFFF" transform="matrix(1.00, 0.00, -0.00, -1.00, 363.9, 271.6)">2</text><text xml:space="preserve" font-family="Menlo-Bold,Menlo" font-weight="bold" font-size="37.0" fill="#FFFFFF" transform="matrix(1.00, 0.00, -0.00, -1.00, 386.2, 271.6)"> </text><text xml:space="preserve" font-family="Menlo-Bold,Menlo" font-weight="bold" font-size="37.0" fill="#FFFFFF" transform="matrix(1.00, 0.00, -0.00, -1.00, 408.5, 271.6)">t</text><text xml:space="preserve" font-family="Menlo-Bold,Menlo" font-weight="bold" font-size="37.0" fill="#FFFFFF" transform="matrix(1.00, 0.00, -0.00, -1.00, 430.8, 271.6)">r</text><text xml:space="preserve" font-family="Menlo-Bold,Menlo" font-weight="bold" font-size="37.0" fill="#FFFFFF" transform="matrix(1.00, 0.00, -0.00, -1.00, 453.0, 271.6)">i</text><text xml:space="preserve" font-family="Menlo-Bold,Menlo" font-weight="bold" font-size="37.0" fill="#FFFFFF" transform="matrix(1.00, 0.00, -0.00, -1.00, 475.3, 271.6)"> </text><text xml:space="preserve" font-family="Menlo-Bold,Menlo" font-weight="bold" font-size="37.0" fill="#FFFFFF" transform="matrix(1.00, 0.00, -0.00, -1.00, 497.6, 271.6)">1</text><text xml:space="preserve" font-family="Menlo-Bold,Menlo" font-weight="bold" font-size="37.0" fill="#FFFFFF" transform="matrix(1.00, 0.00, -0.00, -1.00, 519.9, 271.6)">0</text><text xml:space="preserve" font-family="Menlo-Bold,Menlo" font-weight="bold" font-size="37.0" fill="#FFFFFF" transform="matrix(1.00, 0.00, -0.00, -1.00, 542.1, 271.6)"> </text><text xml:space="preserve" font-family="Menlo-Bold,Menlo" font-weight="bold" font-size="37.0" fill="#FFFFFF" transform="matrix(1.00, 0.00, -0.00, -1.00, 564.4, 271.6)"> </text><text xml:space="preserve" font-family="Menlo-Bold,Menlo" font-weight="bold" font-size="37.0" fill="#FFFFFF" transform="matrix(1.00, 0.00, -0.00, -1.00, 586.6, 271.6)"> </text><text xml:space="preserve" font-family="Menlo-Bold,Menlo" font-weight="bold" font-size="37.0" fill="#FFFFFF" transform="matrix(1.00, 0.00, -0.00, -1.00, 608.9, 271.6)"> </text><text xml:space="preserve" font-family="Menlo-Bold,Menlo" font-weight="bold" font-size="37.0" fill="#FFFFFF" transform="matrix(1.00, 0.00, -0.00, -1.00, 631.2, 271.6)"> </text><text xml:space="preserve" font-family="Menlo-Bold,Menlo" font-weight="bold" font-size="37.0" fill="#FFFFFF" transform="matrix(1.00, 0.00, -0.00, -1.00, 653.5, 271.6)"> </text><text xml:space="preserve" font-family="Menlo-Bold,Menlo" font-weight="bold" font-size="37.0" fill="#FFFFFF" transform="matrix(1.00, 0.00, -0.00, -1.00, 675.7, 271.6)"> </text><text xml:space="preserve" font-family="Menlo-Bold,Menlo" font-weight="bold" font-size="37.0" fill="#FFFFFF" transform="matrix(1.00, 0.00, -0.00, -1.00, 698.0, 271.6)"> </text><text xml:space="preserve" font-family="Menlo-Bold,Menlo" font-weight="bold" font-size="37.0" fill="#FFFFFF" transform="matrix(1.00, 0.00, -0.00, -1.00, 720.3, 271.6)"> </text><text xml:space="preserve" font-family="Menlo-Bold,Menlo" font-weight="bold" font-size="37.0" fill="#FFFFFF" transform="matrix(1.00, 0.00, -0.00, -1.00, 742.6, 271.6)"> </text><text xml:space="preserve" font-family="Menlo-Bold,Menlo" font-weight="bold" font-size="37.0" fill="#FFFFFF" transform="matrix(1.00, 0.00, -0.00, -1.00, 764.9, 271.6)"> </text><text xml:space="preserve" font-family="Menlo-Bold,Menlo" font-weight="bold" font-size="37.0" fill="#FFFFFF" transform="matrix(1.00, 0.00, -0.00, -1.00, 787.1, 271.6)"> </text><text xml:space="preserve" font-family="Menlo-Bold,Menlo" font-weight="bold" font-size="37.0" fill="#FFFFFF" transform="matrix(1.00, 0.00, -0.00, -1.00, 809.4, 271.6)"> </text><text xml:space="preserve" font-family="Menlo-Bold,Menlo" font-weight="bold" font-size="37.0" fill="#FFFFFF" transform="matrix(1.00, 0.00, -0.00, -1.00, 831.7, 271.6)"> </text><text xml:space="preserve" font-family="Menlo-Bold,Menlo" font-weight="bold" font-size="37.0" fill="#FFFFFF" transform="matrix(1.00, 0.00, -0.00, -1.00, 854.0, 271.6)"> </text><text xml:space="preserve" font-family="Menlo-Bold,Menlo" font-weight="bold" font-size="37.0" fill="#FFFFFF" transform="matrix(1.00, 0.00, -0.00, -1.00, 876.3, 271.6)"> </text></g></g><g><clipPath id="clip0x7fbff53dde60"><path d="M -3.3 124.4 L 915.3 124.4 L 915.3 189.0 L -3.3 189.0 Z M -3.3 124.4 "></path></clipPath><g clip-path="url(#clip0x7fbff53dde60)"><text xml:space="preserve" font-family="Menlo-Bold,Menlo" font-weight="bold" font-size="37.0" fill="#FFFFFF" transform="matrix(1.00, 0.00, -0.00, -1.00, 7.5, 143.9)">&gt;</text><text xml:space="preserve" font-family="Menlo-Bold,Menlo" font-weight="bold" font-size="37.0" fill="#FFFFFF" transform="matrix(1.00, 0.00, -0.00, -1.00, 29.7, 143.9)">&gt;</text><text xml:space="preserve" font-family="Menlo-Bold,Menlo" font-weight="bold" font-size="37.0" fill="#FFFFFF" transform="matrix(1.00, 0.00, -0.00, -1.00, 52.0, 143.9)"> </text><text xml:space="preserve" font-family="Menlo-Bold,Menlo" font-weight="bold" font-size="37.0" fill="#FFFFFF" transform="matrix(1.00, 0.00, -0.00, -1.00, 74.3, 143.9)">D</text><text xml:space="preserve" font-family="Menlo-Bold,Menlo" font-weight="bold" font-size="37.0" fill="#FFFFFF" transform="matrix(1.00, 0.00, -0.00, -1.00, 96.6, 143.9)">i</text><text xml:space="preserve" font-family="Menlo-Bold,Menlo" font-weight="bold" font-size="37.0" fill="#FFFFFF" transform="matrix(1.00, 0.00, -0.00, -1.00, 118.8, 143.9)">a</text><text xml:space="preserve" font-family="Menlo-Bold,Menlo" font-weight="bold" font-size="37.0" fill="#FFFFFF" transform="matrix(1.00, 0.00, -0.00, -1.00, 141.1, 143.9)">1</text><text xml:space="preserve" font-family="Menlo-Bold,Menlo" font-weight="bold" font-size="37.0" fill="#FFFFFF" transform="matrix(1.00, 0.00, -0.00, -1.00, 163.4, 143.9)">'</text><text xml:space="preserve" font-family="Menlo-Bold,Menlo" font-weight="bold" font-size="37.0" fill="#FFFFFF" transform="matrix(1.00, 0.00, -0.00, -1.00, 185.7, 143.9)">s</text><text xml:space="preserve" font-family="Menlo-Bold,Menlo" font-weight="bold" font-size="37.0" fill="#FFFFFF" transform="matrix(1.00, 0.00, -0.00, -1.00, 208.0, 143.9)"> </text><text xml:space="preserve" font-family="Menlo-Bold,Menlo" font-weight="bold" font-size="37.0" fill="#FFFFFF" transform="matrix(1.00, 0.00, -0.00, -1.00, 230.2, 143.9)">r</text><text xml:space="preserve" font-family="Menlo-Bold,Menlo" font-weight="bold" font-size="37.0" fill="#FFFFFF" transform="matrix(1.00, 0.00, -0.00, -1.00, 252.5, 143.9)">e</text><text xml:space="preserve" font-family="Menlo-Bold,Menlo" font-weight="bold" font-size="37.0" fill="#FFFFFF" transform="matrix(1.00, 0.00, -0.00, -1.00, 274.8, 143.9)">c</text><text xml:space="preserve" font-family="Menlo-Bold,Menlo" font-weight="bold" font-size="37.0" fill="#FFFFFF" transform="matrix(1.00, 0.00, -0.00, -1.00, 297.1, 143.9)">t</text><text xml:space="preserve" font-family="Menlo-Bold,Menlo" font-weight="bold" font-size="37.0" fill="#FFFFFF" transform="matrix(1.00, 0.00, -0.00, -1.00, 319.4, 143.9)"> </text><text xml:space="preserve" font-family="Menlo-Bold,Menlo" font-weight="bold" font-size="37.0" fill="#FFFFFF" transform="matrix(1.00, 0.00, -0.00, -1.00, 341.6, 143.9)">1</text><text xml:space="preserve" font-family="Menlo-Bold,Menlo" font-weight="bold" font-size="37.0" fill="#FFFFFF" transform="matrix(1.00, 0.00, -0.00, -1.00, 363.9, 143.9)">3</text><text xml:space="preserve" font-family="Menlo-Bold,Menlo" font-weight="bold" font-size="37.0" fill="#FFFFFF" transform="matrix(1.00, 0.00, -0.00, -1.00, 386.2, 143.9)"> </text><text xml:space="preserve" font-family="Menlo-Bold,Menlo" font-weight="bold" font-size="37.0" fill="#FFFFFF" transform="matrix(1.00, 0.00, -0.00, -1.00, 408.5, 143.9)">t</text><text xml:space="preserve" font-family="Menlo-Bold,Menlo" font-weight="bold" font-size="37.0" fill="#FFFFFF" transform="matrix(1.00, 0.00, -0.00, -1.00, 430.8, 143.9)">r</text><text xml:space="preserve" font-family="Menlo-Bold,Menlo" font-weight="bold" font-size="37.0" fill="#FFFFFF" transform="matrix(1.00, 0.00, -0.00, -1.00, 453.0, 143.9)">i</text><text xml:space="preserve" font-family="Menlo-Bold,Menlo" font-weight="bold" font-size="37.0" fill="#FFFFFF" transform="matrix(1.00, 0.00, -0.00, -1.00, 475.3, 143.9)"> </text><text xml:space="preserve" font-family="Menlo-Bold,Menlo" font-weight="bold" font-size="37.0" fill="#FFFFFF" transform="matrix(1.00, 0.00, -0.00, -1.00, 497.6, 143.9)">1</text><text xml:space="preserve" font-family="Menlo-Bold,Menlo" font-weight="bold" font-size="37.0" fill="#FFFFFF" transform="matrix(1.00, 0.00, -0.00, -1.00, 519.8, 143.9)">1</text><text xml:space="preserve" font-family="Menlo-Bold,Menlo" font-weight="bold" font-size="37.0" fill="#FFFFFF" transform="matrix(1.00, 0.00, -0.00, -1.00, 542.1, 143.9)"> </text><text xml:space="preserve" font-family="Menlo-Bold,Menlo" font-weight="bold" font-size="37.0" fill="#FFFFFF" transform="matrix(1.00, 0.00, -0.00, -1.00, 564.4, 143.9)"> </text><text xml:space="preserve" font-family="Menlo-Bold,Menlo" font-weight="bold" font-size="37.0" fill="#FFFFFF" transform="matrix(1.00, 0.00, -0.00, -1.00, 586.6, 143.9)"> </text><text xml:space="preserve" font-family="Menlo-Bold,Menlo" font-weight="bold" font-size="37.0" fill="#FFFFFF" transform="matrix(1.00, 0.00, -0.00, -1.00, 608.9, 143.9)"> </text><text xml:space="preserve" font-family="Menlo-Bold,Menlo" font-weight="bold" font-size="37.0" fill="#FFFFFF" transform="matrix(1.00, 0.00, -0.00, -1.00, 631.2, 143.9)"> </text><text xml:space="preserve" font-family="Menlo-Bold,Menlo" font-weight="bold" font-size="37.0" fill="#FFFFFF" transform="matrix(1.00, 0.00, -0.00, -1.00, 653.5, 143.9)"> </text><text xml:space="preserve" font-family="Menlo-Bold,Menlo" font-weight="bold" font-size="37.0" fill="#FFFFFF" transform="matrix(1.00, 0.00, -0.00, -1.00, 675.8, 143.9)"> </text><text xml:space="preserve" font-family="Menlo-Bold,Menlo" font-weight="bold" font-size="37.0" fill="#FFFFFF" transform="matrix(1.00, 0.00, -0.00, -1.00, 698.0, 143.9)"> </text><text xml:space="preserve" font-family="Menlo-Bold,Menlo" font-weight="bold" font-size="37.0" fill="#FFFFFF" transform="matrix(1.00, 0.00, -0.00, -1.00, 720.3, 143.9)"> </text><text xml:space="preserve" font-family="Menlo-Bold,Menlo" font-weight="bold" font-size="37.0" fill="#FFFFFF" transform="matrix(1.00, 0.00, -0.00, -1.00, 742.6, 143.9)"> </text><text xml:space="preserve" font-family="Menlo-Bold,Menlo" font-weight="bold" font-size="37.0" fill="#FFFFFF" transform="matrix(1.00, 0.00, -0.00, -1.00, 764.9, 143.9)"> </text><text xml:space="preserve" font-family="Menlo-Bold,Menlo" font-weight="bold" font-size="37.0" fill="#FFFFFF" transform="matrix(1.00, 0.00, -0.00, -1.00, 787.2, 143.9)"> </text><text xml:space="preserve" font-family="Menlo-Bold,Menlo" font-weight="bold" font-size="37.0" fill="#FFFFFF" transform="matrix(1.00, 0.00, -0.00, -1.00, 809.4, 143.9)"> </text><text xml:space="preserve" font-family="Menlo-Bold,Menlo" font-weight="bold" font-size="37.0" fill="#FFFFFF" transform="matrix(1.00, 0.00, -0.00, -1.00, 831.7, 143.9)"> </text><text xml:space="preserve" font-family="Menlo-Bold,Menlo" font-weight="bold" font-size="37.0" fill="#FFFFFF" transform="matrix(1.00, 0.00, -0.00, -1.00, 854.0, 143.9)"> </text><text xml:space="preserve" font-family="Menlo-Bold,Menlo" font-weight="bold" font-size="37.0" fill="#FFFFFF" transform="matrix(1.00, 0.00, -0.00, -1.00, 876.3, 143.9)"> </text></g></g><g><clipPath id="clip0x7fbff53ef2c0"><path d="M -3.3 -3.2 L 915.3 -3.2 L 915.3 61.3 L -3.3 61.3 Z M -3.3 -3.2 "></path></clipPath><g clip-path="url(#clip0x7fbff53ef2c0)"><text xml:space="preserve" font-family="Menlo-Bold,Menlo" font-weight="bold" font-size="37.0" fill="#FFFFFF" transform="matrix(1.00, 0.00, -0.00, -1.00, 7.5, 16.3)">&gt;</text><text xml:space="preserve" font-family="Menlo-Bold,Menlo" font-weight="bold" font-size="37.0" fill="#FFFFFF" transform="matrix(1.00, 0.00, -0.00, -1.00, 29.7, 16.3)">&gt;</text><text xml:space="preserve" font-family="Menlo-Bold,Menlo" font-weight="bold" font-size="37.0" fill="#FFFFFF" transform="matrix(1.00, 0.00, -0.00, -1.00, 52.0, 16.3)"> </text><text xml:space="preserve" font-family="Menlo-Bold,Menlo" font-weight="bold" font-size="37.0" fill="#FFFFFF" transform="matrix(1.00, 0.00, -0.00, -1.00, 74.3, 16.3)">D</text><text xml:space="preserve" font-family="Menlo-Bold,Menlo" font-weight="bold" font-size="37.0" fill="#FFFFFF" transform="matrix(1.00, 0.00, -0.00, -1.00, 96.6, 16.3)">i</text><text xml:space="preserve" font-family="Menlo-Bold,Menlo" font-weight="bold" font-size="37.0" fill="#FFFFFF" transform="matrix(1.00, 0.00, -0.00, -1.00, 118.8, 16.3)">a</text><text xml:space="preserve" font-family="Menlo-Bold,Menlo" font-weight="bold" font-size="37.0" fill="#FFFFFF" transform="matrix(1.00, 0.00, -0.00, -1.00, 141.1, 16.3)">1</text><text xml:space="preserve" font-family="Menlo-Bold,Menlo" font-weight="bold" font-size="37.0" fill="#FFFFFF" transform="matrix(1.00, 0.00, -0.00, -1.00, 163.4, 16.3)">'</text><text xml:space="preserve" font-family="Menlo-Bold,Menlo" font-weight="bold" font-size="37.0" fill="#FFFFFF" transform="matrix(1.00, 0.00, -0.00, -1.00, 185.7, 16.3)">s</text><text xml:space="preserve" font-family="Menlo-Bold,Menlo" font-weight="bold" font-size="37.0" fill="#FFFFFF" transform="matrix(1.00, 0.00, -0.00, -1.00, 208.0, 16.3)"> </text><text xml:space="preserve" font-family="Menlo-Bold,Menlo" font-weight="bold" font-size="37.0" fill="#FFFFFF" transform="matrix(1.00, 0.00, -0.00, -1.00, 230.2, 16.3)">r</text><text xml:space="preserve" font-family="Menlo-Bold,Menlo" font-weight="bold" font-size="37.0" fill="#FFFFFF" transform="matrix(1.00, 0.00, -0.00, -1.00, 252.5, 16.3)">e</text><text xml:space="preserve" font-family="Menlo-Bold,Menlo" font-weight="bold" font-size="37.0" fill="#FFFFFF" transform="matrix(1.00, 0.00, -0.00, -1.00, 274.8, 16.3)">c</text><text xml:space="preserve" font-family="Menlo-Bold,Menlo" font-weight="bold" font-size="37.0" fill="#FFFFFF" transform="matrix(1.00, 0.00, -0.00, -1.00, 297.1, 16.3)">t</text><text xml:space="preserve" font-family="Menlo-Bold,Menlo" font-weight="bold" font-size="37.0" fill="#FFFFFF" transform="matrix(1.00, 0.00, -0.00, -1.00, 319.4, 16.3)"> </text><text xml:space="preserve" font-family="Menlo-Bold,Menlo" font-weight="bold" font-size="37.0" fill="#FFFFFF" transform="matrix(1.00, 0.00, -0.00, -1.00, 341.6, 16.3)">1</text><text xml:space="preserve" font-family="Menlo-Bold,Menlo" font-weight="bold" font-size="37.0" fill="#FFFFFF" transform="matrix(1.00, 0.00, -0.00, -1.00, 363.9, 16.3)">3</text><text xml:space="preserve" font-family="Menlo-Bold,Menlo" font-weight="bold" font-size="37.0" fill="#FFFFFF" transform="matrix(1.00, 0.00, -0.00, -1.00, 386.2, 16.3)"> </text><text xml:space="preserve" font-family="Menlo-Bold,Menlo" font-weight="bold" font-size="37.0" fill="#FFFFFF" transform="matrix(1.00, 0.00, -0.00, -1.00, 408.5, 16.3)">t</text><text xml:space="preserve" font-family="Menlo-Bold,Menlo" font-weight="bold" font-size="37.0" fill="#FFFFFF" transform="matrix(1.00, 0.00, -0.00, -1.00, 430.8, 16.3)">r</text><text xml:space="preserve" font-family="Menlo-Bold,Menlo" font-weight="bold" font-size="37.0" fill="#FFFFFF" transform="matrix(1.00, 0.00, -0.00, -1.00, 453.0, 16.3)">i</text><text xml:space="preserve" font-family="Menlo-Bold,Menlo" font-weight="bold" font-size="37.0" fill="#FFFFFF" transform="matrix(1.00, 0.00, -0.00, -1.00, 475.3, 16.3)"> </text><text xml:space="preserve" font-family="Menlo-Bold,Menlo" font-weight="bold" font-size="37.0" fill="#FFFFFF" transform="matrix(1.00, 0.00, -0.00, -1.00, 497.5, 16.3)">1</text><text xml:space="preserve" font-family="Menlo-Bold,Menlo" font-weight="bold" font-size="37.0" fill="#FFFFFF" transform="matrix(1.00, 0.00, -0.00, -1.00, 519.8, 16.3)">1</text><text xml:space="preserve" font-family="Menlo-Bold,Menlo" font-weight="bold" font-size="37.0" fill="#FFFFFF" transform="matrix(1.00, 0.00, -0.00, -1.00, 542.1, 16.3)"> </text><text xml:space="preserve" font-family="Menlo-Bold,Menlo" font-weight="bold" font-size="37.0" fill="#FFFFFF" transform="matrix(1.00, 0.00, -0.00, -1.00, 564.4, 16.3)"> </text><text xml:space="preserve" font-family="Menlo-Bold,Menlo" font-weight="bold" font-size="37.0" fill="#FFFFFF" transform="matrix(1.00, 0.00, -0.00, -1.00, 586.6, 16.3)"> </text><text xml:space="preserve" font-family="Menlo-Bold,Menlo" font-weight="bold" font-size="37.0" fill="#FFFFFF" transform="matrix(1.00, 0.00, -0.00, -1.00, 608.9, 16.3)"> </text><text xml:space="preserve" font-family="Menlo-Bold,Menlo" font-weight="bold" font-size="37.0" fill="#FFFFFF" transform="matrix(1.00, 0.00, -0.00, -1.00, 631.2, 16.3)"> </text><text xml:space="preserve" font-family="Menlo-Bold,Menlo" font-weight="bold" font-size="37.0" fill="#FFFFFF" transform="matrix(1.00, 0.00, -0.00, -1.00, 653.5, 16.3)"> </text><text xml:space="preserve" font-family="Menlo-Bold,Menlo" font-weight="bold" font-size="37.0" fill="#FFFFFF" transform="matrix(1.00, 0.00, -0.00, -1.00, 675.8, 16.3)"> </text><text xml:space="preserve" font-family="Menlo-Bold,Menlo" font-weight="bold" font-size="37.0" fill="#FFFFFF" transform="matrix(1.00, 0.00, -0.00, -1.00, 698.0, 16.3)"> </text><text xml:space="preserve" font-family="Menlo-Bold,Menlo" font-weight="bold" font-size="37.0" fill="#FFFFFF" transform="matrix(1.00, 0.00, -0.00, -1.00, 720.3, 16.3)"> </text><text xml:space="preserve" font-family="Menlo-Bold,Menlo" font-weight="bold" font-size="37.0" fill="#FFFFFF" transform="matrix(1.00, 0.00, -0.00, -1.00, 742.6, 16.3)"> </text><text xml:space="preserve" font-family="Menlo-Bold,Menlo" font-weight="bold" font-size="37.0" fill="#FFFFFF" transform="matrix(1.00, 0.00, -0.00, -1.00, 764.9, 16.3)"> </text><text xml:space="preserve" font-family="Menlo-Bold,Menlo" font-weight="bold" font-size="37.0" fill="#FFFFFF" transform="matrix(1.00, 0.00, -0.00, -1.00, 787.2, 16.3)"> </text><text xml:space="preserve" font-family="Menlo-Bold,Menlo" font-weight="bold" font-size="37.0" fill="#FFFFFF" transform="matrix(1.00, 0.00, -0.00, -1.00, 809.4, 16.3)"> </text><text xml:space="preserve" font-family="Menlo-Bold,Menlo" font-weight="bold" font-size="37.0" fill="#FFFFFF" transform="matrix(1.00, 0.00, -0.00, -1.00, 831.7, 16.3)"> </text><text xml:space="preserve" font-family="Menlo-Bold,Menlo" font-weight="bold" font-size="37.0" fill="#FFFFFF" transform="matrix(1.00, 0.00, -0.00, -1.00, 854.0, 16.3)"> </text><text xml:space="preserve" font-family="Menlo-Bold,Menlo" font-weight="bold" font-size="37.0" fill="#FFFFFF" transform="matrix(1.00, 0.00, -0.00, -1.00, 876.3, 16.3)"> </text></g></g></g></svg>