<?xml version="1.0" encoding="UTF-8" standalone="no"?><svg xmlns="http://www.w3.org/2000/svg" xmlns:xlink="http://www.w3.org/1999/xlink" clip-rule="evenodd" stroke-miterlimit="10" viewBox="0 0 1451 411"><desc>SVG generated by Keynote</desc><defs></defs><g transform="matrix(1.00, 0.00, -0.00, -1.00, 0.0, 411.0)"><path d="M 0.1 0.3 L 1443.1 0.3 L 1443.1 403.3 L 0.1 403.3 Z M 0.0 0.0 " fill="none" stroke="#961817" stroke-width="5.00" transform="matrix(1.00, 0.00, 0.00, -1.00, 4.4, 406.8)"></path><g><clipPath id="clip0x7fbff32c0900"><path d="M 1.8 0.9 L 2860.5 0.9 L 2860.5 409.4 L 1.8 409.4 Z M 1.8 0.9 "></path></clipPath><g clip-path="url(#clip0x7fbff32c0900)"><text xml:space="preserve" font-family="Menlo-Regular,Menlo" font-size="37.0" fill="#C1339A" transform="matrix(1.00, 0.00, -0.00, -1.00, 12.6, 364.4)">v</text><text xml:space="preserve" font-family="Menlo-Regular,Menlo" font-size="37.0" fill="#C1339A" transform="matrix(1.00, 0.00, -0.00, -1.00, 34.8, 364.4)">a</text><text xml:space="preserve" font-family="Menlo-Regular,Menlo" font-size="37.0" fill="#C1339A" transform="matrix(1.00, 0.00, -0.00, -1.00, 57.1, 364.4)">r</text><text xml:space="preserve" font-family="Menlo-Regular,Menlo" font-size="37.0" fill="#FFFFFF" transform="matrix(1.00, 0.00, -0.00, -1.00, 79.4, 364.4)"> </text><text xml:space="preserve" font-family="Menlo-Regular,Menlo" font-size="37.0" fill="#FFFFFF" transform="matrix(1.00, 0.00, -0.00, -1.00, 101.7, 364.4)">d</text><text xml:space="preserve" font-family="Menlo-Regular,Menlo" font-size="37.0" fill="#FFFFFF" transform="matrix(1.00, 0.00, -0.00, -1.00, 123.9, 364.4)">i</text><text xml:space="preserve" font-family="Menlo-Regular,Menlo" font-size="37.0" fill="#FFFFFF" transform="matrix(1.00, 0.00, -0.00, -1.00, 146.2, 364.4)">a</text><text xml:space="preserve" font-family="Menlo-Regular,Menlo" font-size="37.0" fill="#FFFFFF" transform="matrix(1.00, 0.00, -0.00, -1.00, 168.5, 364.4)">1</text><text xml:space="preserve" font-family="Menlo-Regular,Menlo" font-size="37.0" fill="#FFFFFF" transform="matrix(1.00, 0.00, -0.00, -1.00, 190.8, 364.4)"> </text><text xml:space="preserve" font-family="Menlo-Regular,Menlo" font-size="37.0" fill="#FFFFFF" transform="matrix(1.00, 0.00, -0.00, -1.00, 213.1, 364.4)">=</text><text xml:space="preserve" font-family="Menlo-Regular,Menlo" font-size="37.0" fill="#FFFFFF" transform="matrix(1.00, 0.00, -0.00, -1.00, 235.3, 364.4)"> </text><text xml:space="preserve" font-family="Menlo-Regular,Menlo" font-size="37.0" fill="#93C869" transform="matrix(1.00, 0.00, -0.00, -1.00, 257.6, 364.4)">D</text><text xml:space="preserve" font-family="Menlo-Regular,Menlo" font-size="37.0" fill="#93C869" transform="matrix(1.00, 0.00, -0.00, -1.00, 279.9, 364.4)">i</text><text xml:space="preserve" font-family="Menlo-Regular,Menlo" font-size="37.0" fill="#93C869" transform="matrix(1.00, 0.00, -0.00, -1.00, 302.2, 364.4)">a</text><text xml:space="preserve" font-family="Menlo-Regular,Menlo" font-size="37.0" fill="#93C869" transform="matrix(1.00, 0.00, -0.00, -1.00, 324.4, 364.4)">g</text><text xml:space="preserve" font-family="Menlo-Regular,Menlo" font-size="37.0" fill="#93C869" transform="matrix(1.00, 0.00, -0.00, -1.00, 346.7, 364.4)">r</text><text xml:space="preserve" font-family="Menlo-Regular,Menlo" font-size="37.0" fill="#93C869" transform="matrix(1.00, 0.00, -0.00, -1.00, 369.0, 364.4)">a</text><text xml:space="preserve" font-family="Menlo-Regular,Menlo" font-size="37.0" fill="#93C869" transform="matrix(1.00, 0.00, -0.00, -1.00, 391.3, 364.4)">m</text><text xml:space="preserve" font-family="Menlo-Regular,Menlo" font-size="37.0" fill="#FFFFFF" transform="matrix(1.00, 0.00, -0.00, -1.00, 413.5, 364.4)">(</text><text xml:space="preserve" font-family="Menlo-Regular,Menlo" font-size="37.0" fill="#FFFFFF" transform="matrix(1.00, 0.00, -0.00, -1.00, 435.8, 364.4)">r</text><text xml:space="preserve" font-family="Menlo-Regular,Menlo" font-size="37.0" fill="#FFFFFF" transform="matrix(1.00, 0.00, -0.00, -1.00, 458.1, 364.4)">e</text><text xml:space="preserve" font-family="Menlo-Regular,Menlo" font-size="37.0" fill="#FFFFFF" transform="matrix(1.00, 0.00, -0.00, -1.00, 480.4, 364.4)">c</text><text xml:space="preserve" font-family="Menlo-Regular,Menlo" font-size="37.0" fill="#FFFFFF" transform="matrix(1.00, 0.00, -0.00, -1.00, 502.6, 364.4)">t</text><text xml:space="preserve" font-family="Menlo-Regular,Menlo" font-size="37.0" fill="#FFFFFF" transform="matrix(1.00, 0.00, -0.00, -1.00, 524.9, 364.4)">:</text><text xml:space="preserve" font-family="Menlo-Regular,Menlo" font-size="37.0" fill="#FFFFFF" transform="matrix(1.00, 0.00, -0.00, -1.00, 547.2, 364.4)"> </text><text xml:space="preserve" font-family="Menlo-Regular,Menlo" font-size="37.0" fill="#93C869" transform="matrix(1.00, 0.00, -0.00, -1.00, 569.5, 364.4)">r</text><text xml:space="preserve" font-family="Menlo-Regular,Menlo" font-size="37.0" fill="#93C869" transform="matrix(1.00, 0.00, -0.00, -1.00, 591.7, 364.4)">e</text><text xml:space="preserve" font-family="Menlo-Regular,Menlo" font-size="37.0" fill="#93C869" transform="matrix(1.00, 0.00, -0.00, -1.00, 614.0, 364.4)">c</text><text xml:space="preserve" font-family="Menlo-Regular,Menlo" font-size="37.0" fill="#93C869" transform="matrix(1.00, 0.00, -0.00, -1.00, 636.3, 364.4)">t</text><text xml:space="preserve" font-family="Menlo-Regular,Menlo" font-size="37.0" fill="#93C869" transform="matrix(1.00, 0.00, -0.00, -1.00, 658.6, 364.4)">1</text><text xml:space="preserve" font-family="Menlo-Regular,Menlo" font-size="37.0" fill="#FFFFFF" transform="matrix(1.00, 0.00, -0.00, -1.00, 680.8, 364.4)">,</text><text xml:space="preserve" font-family="Menlo-Regular,Menlo" font-size="37.0" fill="#FFFFFF" transform="matrix(1.00, 0.00, -0.00, -1.00, 703.1, 364.4)"> </text><text xml:space="preserve" font-family="Menlo-Regular,Menlo" font-size="37.0" fill="#FFFFFF" transform="matrix(1.00, 0.00, -0.00, -1.00, 725.4, 364.4)">t</text><text xml:space="preserve" font-family="Menlo-Regular,Menlo" font-size="37.0" fill="#FFFFFF" transform="matrix(1.00, 0.00, -0.00, -1.00, 747.7, 364.4)">r</text><text xml:space="preserve" font-family="Menlo-Regular,Menlo" font-size="37.0" fill="#FFFFFF" transform="matrix(1.00, 0.00, -0.00, -1.00, 770.0, 364.4)">i</text><text xml:space="preserve" font-family="Menlo-Regular,Menlo" font-size="37.0" fill="#FFFFFF" transform="matrix(1.00, 0.00, -0.00, -1.00, 792.2, 364.4)">:</text><text xml:space="preserve" font-family="Menlo-Regular,Menlo" font-size="37.0" fill="#FFFFFF" transform="matrix(1.00, 0.00, -0.00, -1.00, 814.5, 364.4)"> </text><text xml:space="preserve" font-family="Menlo-Regular,Menlo" font-size="37.0" fill="#93C869" transform="matrix(1.00, 0.00, -0.00, -1.00, 836.8, 364.4)">t</text><text xml:space="preserve" font-family="Menlo-Regular,Menlo" font-size="37.0" fill="#93C869" transform="matrix(1.00, 0.00, -0.00, -1.00, 859.0, 364.4)">r</text><text xml:space="preserve" font-family="Menlo-Regular,Menlo" font-size="37.0" fill="#93C869" transform="matrix(1.00, 0.00, -0.00, -1.00, 881.3, 364.4)">i</text><text xml:space="preserve" font-family="Menlo-Regular,Menlo" font-size="37.0" fill="#93C869" transform="matrix(1.00, 0.00, -0.00, -1.00, 903.6, 364.4)">1</text><text xml:space="preserve" font-family="Menlo-Regular,Menlo" font-size="37.0" fill="#FFFFFF" transform="matrix(1.00, 0.00, -0.00, -1.00, 925.9, 364.4)">)</text><text xml:space="preserve" font-family="Menlo-Regular,Menlo" font-size="37.0" fill="#FFFFFF" transform="matrix(1.00, 0.00, -0.00, -1.00, 948.1, 364.4)"> </text><text xml:space="preserve" font-family="Menlo-Regular,Menlo" font-size="37.0" fill="#00AFC9" transform="matrix(1.00, 0.00, -0.00, -1.00, 12.6, 321.4)">p</text><text xml:space="preserve" font-family="Menlo-Regular,Menlo" font-size="37.0" fill="#00AFC9" transform="matrix(1.00, 0.00, -0.00, -1.00, 34.8, 321.4)">r</text><text xml:space="preserve" font-family="Menlo-Regular,Menlo" font-size="37.0" fill="#00AFC9" transform="matrix(1.00, 0.00, -0.00, -1.00, 57.1, 321.4)">i</text><text xml:space="preserve" font-family="Menlo-Regular,Menlo" font-size="37.0" fill="#00AFC9" transform="matrix(1.00, 0.00, -0.00, -1.00, 79.4, 321.4)">n</text><text xml:space="preserve" font-family="Menlo-Regular,Menlo" font-size="37.0" fill="#00AFC9" transform="matrix(1.00, 0.00, -0.00, -1.00, 101.7, 321.4)">t</text><text xml:space="preserve" font-family="Menlo-Regular,Menlo" font-size="37.0" fill="#FFFFFF" transform="matrix(1.00, 0.00, -0.00, -1.00, 123.9, 321.4)">(</text><text xml:space="preserve" font-family="Menlo-Regular,Menlo" font-size="37.0" fill="#E44347" transform="matrix(1.00, 0.00, -0.00, -1.00, 146.2, 321.4)">"</text><text xml:space="preserve" font-family="Menlo-Regular,Menlo" font-size="37.0" fill="#E44347" transform="matrix(1.00, 0.00, -0.00, -1.00, 168.5, 321.4)">D</text><text xml:space="preserve" font-family="Menlo-Regular,Menlo" font-size="37.0" fill="#E44347" transform="matrix(1.00, 0.00, -0.00, -1.00, 190.8, 321.4)">i</text><text xml:space="preserve" font-family="Menlo-Regular,Menlo" font-size="37.0" fill="#E44347" transform="matrix(1.00, 0.00, -0.00, -1.00, 213.1, 321.4)">a</text><text xml:space="preserve" font-family="Menlo-Regular,Menlo" font-size="37.0" fill="#E44347" transform="matrix(1.00, 0.00, -0.00, -1.00, 235.3, 321.4)">1</text><text xml:space="preserve" font-family="Menlo-Regular,Menlo" font-size="37.0" fill="#E44347" transform="matrix(1.00, 0.00, -0.00, -1.00, 257.6, 321.4)">'</text><text xml:space="preserve" font-family="Menlo-Regular,Menlo" font-size="37.0" fill="#E44347" transform="matrix(1.00, 0.00, -0.00, -1.00, 279.9, 321.4)">s</text><text xml:space="preserve" font-family="Menlo-Regular,Menlo" font-size="37.0" fill="#E44347" transform="matrix(1.00, 0.00, -0.00, -1.00, 302.2, 321.4)"> </text><text xml:space="preserve" font-family="Menlo-Regular,Menlo" font-size="37.0" fill="#E44347" transform="matrix(1.00, 0.00, -0.00, -1.00, 324.4, 321.4)">r</text><text xml:space="preserve" font-family="Menlo-Regular,Menlo" font-size="37.0" fill="#E44347" transform="matrix(1.00, 0.00, -0.00, -1.00, 346.7, 321.4)">e</text><text xml:space="preserve" font-family="Menlo-Regular,Menlo" font-size="37.0" fill="#E44347" transform="matrix(1.00, 0.00, -0.00, -1.00, 369.0, 321.4)">c</text><text xml:space="preserve" font-family="Menlo-Regular,Menlo" font-size="37.0" fill="#E44347" transform="matrix(1.00, 0.00, -0.00, -1.00, 391.3, 321.4)">t</text><text xml:space="preserve" font-family="Menlo-Regular,Menlo" font-size="37.0" fill="#E44347" transform="matrix(1.00, 0.00, -0.00, -1.00, 413.6, 321.4)"> </text><text xml:space="preserve" font-family="Menlo-Regular,Menlo" font-size="37.0" fill="#FFFFFF" transform="matrix(1.00, 0.00, -0.00, -1.00, 435.8, 321.4)">\</text><text xml:space="preserve" font-family="Menlo-Regular,Menlo" font-size="37.0" fill="#E44347" transform="matrix(1.00, 0.00, -0.00, -1.00, 458.1, 321.4)">(</text><text xml:space="preserve" font-family="Menlo-Regular,Menlo" font-size="37.0" fill="#93C869" transform="matrix(1.00, 0.00, -0.00, -1.00, 480.4, 321.4)">d</text><text xml:space="preserve" font-family="Menlo-Regular,Menlo" font-size="37.0" fill="#93C869" transform="matrix(1.00, 0.00, -0.00, -1.00, 502.6, 321.4)">i</text><text xml:space="preserve" font-family="Menlo-Regular,Menlo" font-size="37.0" fill="#93C869" transform="matrix(1.00, 0.00, -0.00, -1.00, 524.9, 321.4)">a</text><text xml:space="preserve" font-family="Menlo-Regular,Menlo" font-size="37.0" fill="#93C869" transform="matrix(1.00, 0.00, -0.00, -1.00, 547.2, 321.4)">1</text><text xml:space="preserve" font-family="Menlo-Regular,Menlo" font-size="37.0" fill="#FFFFFF" transform="matrix(1.00, 0.00, -0.00, -1.00, 569.5, 321.4)">.</text><text xml:space="preserve" font-family="Menlo-Regular,Menlo" font-size="37.0" fill="#93C869" transform="matrix(1.00, 0.00, -0.00, -1.00, 591.7, 321.4)">r</text><text xml:space="preserve" font-family="Menlo-Regular,Menlo" font-size="37.0" fill="#93C869" transform="matrix(1.00, 0.00, -0.00, -1.00, 614.0, 321.4)">e</text><text xml:space="preserve" font-family="Menlo-Regular,Menlo" font-size="37.0" fill="#93C869" transform="matrix(1.00, 0.00, -0.00, -1.00, 636.3, 321.4)">c</text><text xml:space="preserve" font-family="Menlo-Regular,Menlo" font-size="37.0" fill="#93C869" transform="matrix(1.00, 0.00, -0.00, -1.00, 658.6, 321.4)">t</text><text xml:space="preserve" font-family="Menlo-Regular,Menlo" font-size="37.0" fill="#FFFFFF" transform="matrix(1.00, 0.00, -0.00, -1.00, 680.8, 321.4)">.</text><text xml:space="preserve" font-family="Menlo-Regular,Menlo" font-size="37.0" fill="#93C869" transform="matrix(1.00, 0.00, -0.00, -1.00, 703.1, 321.4)">l</text><text xml:space="preserve" font-family="Menlo-Regular,Menlo" font-size="37.0" fill="#93C869" transform="matrix(1.00, 0.00, -0.00, -1.00, 725.4, 321.4)">e</text><text xml:space="preserve" font-family="Menlo-Regular,Menlo" font-size="37.0" fill="#93C869" transform="matrix(1.00, 0.00, -0.00, -1.00, 747.7, 321.4)">n</text><text xml:space="preserve" font-family="Menlo-Regular,Menlo" font-size="37.0" fill="#93C869" transform="matrix(1.00, 0.00, -0.00, -1.00, 769.9, 321.4)">g</text><text xml:space="preserve" font-family="Menlo-Regular,Menlo" font-size="37.0" fill="#93C869" transform="matrix(1.00, 0.00, -0.00, -1.00, 792.2, 321.4)">t</text><text xml:space="preserve" font-family="Menlo-Regular,Menlo" font-size="37.0" fill="#93C869" transform="matrix(1.00, 0.00, -0.00, -1.00, 814.5, 321.4)">h</text><text xml:space="preserve" font-family="Menlo-Regular,Menlo" font-size="37.0" fill="#E44347" transform="matrix(1.00, 0.00, -0.00, -1.00, 836.8, 321.4)">)</text><text xml:space="preserve" font-family="Menlo-Regular,Menlo" font-size="37.0" fill="#E44347" transform="matrix(1.00, 0.00, -0.00, -1.00, 859.0, 321.4)"> </text><text xml:space="preserve" font-family="Menlo-Regular,Menlo" font-size="37.0" fill="#E44347" transform="matrix(1.00, 0.00, -0.00, -1.00, 881.3, 321.4)">t</text><text xml:space="preserve" font-family="Menlo-Regular,Menlo" font-size="37.0" fill="#E44347" transform="matrix(1.00, 0.00, -0.00, -1.00, 903.6, 321.4)">r</text><text xml:space="preserve" font-family="Menlo-Regular,Menlo" font-size="37.0" fill="#E44347" transform="matrix(1.00, 0.00, -0.00, -1.00, 925.9, 321.4)">i</text><text xml:space="preserve" font-family="Menlo-Regular,Menlo" font-size="37.0" fill="#E44347" transform="matrix(1.00, 0.00, -0.00, -1.00, 948.2, 321.4)"> </text><text xml:space="preserve" font-family="Menlo-Regular,Menlo" font-size="37.0" fill="#FFFFFF" transform="matrix(1.00, 0.00, -0.00, -1.00, 970.4, 321.4)">\</text><text xml:space="preserve" font-family="Menlo-Regular,Menlo" font-size="37.0" fill="#E44347" transform="matrix(1.00, 0.00, -0.00, -1.00, 992.7, 321.4)">(</text><text xml:space="preserve" font-family="Menlo-Regular,Menlo" font-size="37.0" fill="#93C869" transform="matrix(1.00, 0.00, -0.00, -1.00, 1015.0, 321.4)">d</text><text xml:space="preserve" font-family="Menlo-Regular,Menlo" font-size="37.0" fill="#93C869" transform="matrix(1.00, 0.00, -0.00, -1.00, 1037.3, 321.4)">i</text><text xml:space="preserve" font-family="Menlo-Regular,Menlo" font-size="37.0" fill="#93C869" transform="matrix(1.00, 0.00, -0.00, -1.00, 1059.5, 321.4)">a</text><text xml:space="preserve" font-family="Menlo-Regular,Menlo" font-size="37.0" fill="#93C869" transform="matrix(1.00, 0.00, -0.00, -1.00, 1081.8, 321.4)">1</text><text xml:space="preserve" font-family="Menlo-Regular,Menlo" font-size="37.0" fill="#FFFFFF" transform="matrix(1.00, 0.00, -0.00, -1.00, 1104.1, 321.4)">.</text><text xml:space="preserve" font-family="Menlo-Regular,Menlo" font-size="37.0" fill="#93C869" transform="matrix(1.00, 0.00, -0.00, -1.00, 1126.4, 321.4)">t</text><text xml:space="preserve" font-family="Menlo-Regular,Menlo" font-size="37.0" fill="#93C869" transform="matrix(1.00, 0.00, -0.00, -1.00, 1148.6, 321.4)">r</text><text xml:space="preserve" font-family="Menlo-Regular,Menlo" font-size="37.0" fill="#93C869" transform="matrix(1.00, 0.00, -0.00, -1.00, 1170.9, 321.4)">i</text><text xml:space="preserve" font-family="Menlo-Regular,Menlo" font-size="37.0" fill="#FFFFFF" transform="matrix(1.00, 0.00, -0.00, -1.00, 1193.2, 321.4)">.</text><text xml:space="preserve" font-family="Menlo-Regular,Menlo" font-size="37.0" fill="#93C869" transform="matrix(1.00, 0.00, -0.00, -1.00, 1215.5, 321.4)">l</text><text xml:space="preserve" font-family="Menlo-Regular,Menlo" font-size="37.0" fill="#93C869" transform="matrix(1.00, 0.00, -0.00, -1.00, 1237.7, 321.4)">e</text><text xml:space="preserve" font-family="Menlo-Regular,Menlo" font-size="37.0" fill="#93C869" transform="matrix(1.00, 0.00, -0.00, -1.00, 1260.0, 321.4)">n</text><text xml:space="preserve" font-family="Menlo-Regular,Menlo" font-size="37.0" fill="#93C869" transform="matrix(1.00, 0.00, -0.00, -1.00, 1282.3, 321.4)">g</text><text xml:space="preserve" font-family="Menlo-Regular,Menlo" font-size="37.0" fill="#93C869" transform="matrix(1.00, 0.00, -0.00, -1.00, 1304.6, 321.4)">t</text><text xml:space="preserve" font-family="Menlo-Regular,Menlo" font-size="37.0" fill="#93C869" transform="matrix(1.00, 0.00, -0.00, -1.00, 1326.9, 321.4)">h</text><text xml:space="preserve" font-family="Menlo-Regular,Menlo" font-size="37.0" fill="#E44347" transform="matrix(1.00, 0.00, -0.00, -1.00, 1349.1, 321.4)">)</text><text xml:space="preserve" font-family="Menlo-Regular,Menlo" font-size="37.0" fill="#E44347" transform="matrix(1.00, 0.00, -0.00, -1.00, 1371.4, 321.4)">”</text><text xml:space="preserve" font-family="Menlo-Regular,Menlo" font-size="37.0" fill="#FFFFFF" transform="matrix(1.00, 0.00, -0.00, -1.00, 1393.7, 321.4)">)</text><text xml:space="preserve" font-family="Menlo-Regular,Menlo" font-size="37.0" fill="#FFFFFF" transform="matrix(1.00, 0.00, -0.00, -1.00, 1415.9, 321.4)"> </text><text xml:space="preserve" font-family="Menlo-Regular,Menlo" font-size="37.0" fill="#93C869" transform="matrix(1.00, 0.00, -0.00, -1.00, 12.6, 235.4)">d</text><text xml:space="preserve" font-family="Menlo-Regular,Menlo" font-size="37.0" fill="#93C869" transform="matrix(1.00, 0.00, -0.00, -1.00, 34.8, 235.4)">i</text><text xml:space="preserve" font-family="Menlo-Regular,Menlo" font-size="37.0" fill="#93C869" transform="matrix(1.00, 0.00, -0.00, -1.00, 57.1, 235.4)">a</text><text xml:space="preserve" font-family="Menlo-Regular,Menlo" font-size="37.0" fill="#93C869" transform="matrix(1.00, 0.00, -0.00, -1.00, 79.4, 235.4)">1</text><text xml:space="preserve" font-family="Menlo-Regular,Menlo" font-size="37.0" fill="#FFFFFF" transform="matrix(1.00, 0.00, -0.00, -1.00, 101.7, 235.4)">.</text><text xml:space="preserve" font-family="Menlo-Regular,Menlo" font-size="37.0" fill="#93C869" transform="matrix(1.00, 0.00, -0.00, -1.00, 123.9, 235.4)">n</text><text xml:space="preserve" font-family="Menlo-Regular,Menlo" font-size="37.0" fill="#93C869" transform="matrix(1.00, 0.00, -0.00, -1.00, 146.2, 235.4)">e</text><text xml:space="preserve" font-family="Menlo-Regular,Menlo" font-size="37.0" fill="#93C869" transform="matrix(1.00, 0.00, -0.00, -1.00, 168.5, 235.4)">x</text><text xml:space="preserve" font-family="Menlo-Regular,Menlo" font-size="37.0" fill="#93C869" transform="matrix(1.00, 0.00, -0.00, -1.00, 190.8, 235.4)">t</text><text xml:space="preserve" font-family="Menlo-Regular,Menlo" font-size="37.0" fill="#93C869" transform="matrix(1.00, 0.00, -0.00, -1.00, 213.1, 235.4)">T</text><text xml:space="preserve" font-family="Menlo-Regular,Menlo" font-size="37.0" fill="#93C869" transform="matrix(1.00, 0.00, -0.00, -1.00, 235.3, 235.4)">r</text><text xml:space="preserve" font-family="Menlo-Regular,Menlo" font-size="37.0" fill="#93C869" transform="matrix(1.00, 0.00, -0.00, -1.00, 257.6, 235.4)">i</text><text xml:space="preserve" font-family="Menlo-Regular,Menlo" font-size="37.0" fill="#FFFFFF" transform="matrix(1.00, 0.00, -0.00, -1.00, 279.9, 235.4)">(</text><text xml:space="preserve" font-family="Menlo-Regular,Menlo" font-size="37.0" fill="#FFFFFF" transform="matrix(1.00, 0.00, -0.00, -1.00, 302.1, 235.4)">)</text><text xml:space="preserve" font-family="Menlo-Regular,Menlo" font-size="37.0" fill="#FFFFFF" transform="matrix(1.00, 0.00, -0.00, -1.00, 324.4, 235.4)">;</text><text xml:space="preserve" font-family="Menlo-Regular,Menlo" font-size="37.0" fill="#FFFFFF" transform="matrix(1.00, 0.00, -0.00, -1.00, 346.7, 235.4)"> </text><text xml:space="preserve" font-family="Menlo-Regular,Menlo" font-size="37.0" fill="#93C869" transform="matrix(1.00, 0.00, -0.00, -1.00, 369.0, 235.4)">d</text><text xml:space="preserve" font-family="Menlo-Regular,Menlo" font-size="37.0" fill="#93C869" transform="matrix(1.00, 0.00, -0.00, -1.00, 391.3, 235.4)">i</text><text xml:space="preserve" font-family="Menlo-Regular,Menlo" font-size="37.0" fill="#93C869" transform="matrix(1.00, 0.00, -0.00, -1.00, 413.5, 235.4)">a</text><text xml:space="preserve" font-family="Menlo-Regular,Menlo" font-size="37.0" fill="#93C869" transform="matrix(1.00, 0.00, -0.00, -1.00, 435.8, 235.4)">1</text><text xml:space="preserve" font-family="Menlo-Regular,Menlo" font-size="37.0" fill="#FFFFFF" transform="matrix(1.00, 0.00, -0.00, -1.00, 458.1, 235.4)">.</text><text xml:space="preserve" font-family="Menlo-Regular,Menlo" font-size="37.0" fill="#93C869" transform="matrix(1.00, 0.00, -0.00, -1.00, 480.4, 235.4)">n</text><text xml:space="preserve" font-family="Menlo-Regular,Menlo" font-size="37.0" fill="#93C869" transform="matrix(1.00, 0.00, -0.00, -1.00, 502.6, 235.4)">e</text><text xml:space="preserve" font-family="Menlo-Regular,Menlo" font-size="37.0" fill="#93C869" transform="matrix(1.00, 0.00, -0.00, -1.00, 524.9, 235.4)">x</text><text xml:space="preserve" font-family="Menlo-Regular,Menlo" font-size="37.0" fill="#93C869" transform="matrix(1.00, 0.00, -0.00, -1.00, 547.2, 235.4)">t</text><text xml:space="preserve" font-family="Menlo-Regular,Menlo" font-size="37.0" fill="#93C869" transform="matrix(1.00, 0.00, -0.00, -1.00, 569.5, 235.4)">R</text><text xml:space="preserve" font-family="Menlo-Regular,Menlo" font-size="37.0" fill="#93C869" transform="matrix(1.00, 0.00, -0.00, -1.00, 591.7, 235.4)">e</text><text xml:space="preserve" font-family="Menlo-Regular,Menlo" font-size="37.0" fill="#93C869" transform="matrix(1.00, 0.00, -0.00, -1.00, 614.0, 235.4)">c</text><text xml:space="preserve" font-family="Menlo-Regular,Menlo" font-size="37.0" fill="#93C869" transform="matrix(1.00, 0.00, -0.00, -1.00, 636.3, 235.4)">t</text><text xml:space="preserve" font-family="Menlo-Regular,Menlo" font-size="37.0" fill="#FFFFFF" transform="matrix(1.00, 0.00, -0.00, -1.00, 658.6, 235.4)">(</text><text xml:space="preserve" font-family="Menlo-Regular,Menlo" font-size="37.0" fill="#FFFFFF" transform="matrix(1.00, 0.00, -0.00, -1.00, 680.8, 235.4)">)</text><text xml:space="preserve" font-family="Menlo-Regular,Menlo" font-size="37.0" fill="#FFFFFF" transform="matrix(1.00, 0.00, -0.00, -1.00, 703.1, 235.4)"> </text><text xml:space="preserve" font-family="Menlo-Regular,Menlo" font-size="37.0" fill="#00AFC9" transform="matrix(1.00, 0.00, -0.00, -1.00, 12.6, 192.4)">p</text><text xml:space="preserve" font-family="Menlo-Regular,Menlo" font-size="37.0" fill="#00AFC9" transform="matrix(1.00, 0.00, -0.00, -1.00, 34.8, 192.4)">r</text><text xml:space="preserve" font-family="Menlo-Regular,Menlo" font-size="37.0" fill="#00AFC9" transform="matrix(1.00, 0.00, -0.00, -1.00, 57.1, 192.4)">i</text><text xml:space="preserve" font-family="Menlo-Regular,Menlo" font-size="37.0" fill="#00AFC9" transform="matrix(1.00, 0.00, -0.00, -1.00, 79.4, 192.4)">n</text><text xml:space="preserve" font-family="Menlo-Regular,Menlo" font-size="37.0" fill="#00AFC9" transform="matrix(1.00, 0.00, -0.00, -1.00, 101.7, 192.4)">t</text><text xml:space="preserve" font-family="Menlo-Regular,Menlo" font-size="37.0" fill="#FFFFFF" transform="matrix(1.00, 0.00, -0.00, -1.00, 123.9, 192.4)">(</text><text xml:space="preserve" font-family="Menlo-Regular,Menlo" font-size="37.0" fill="#E44347" transform="matrix(1.00, 0.00, -0.00, -1.00, 146.2, 192.4)">"</text><text xml:space="preserve" font-family="Menlo-Regular,Menlo" font-size="37.0" fill="#E44347" transform="matrix(1.00, 0.00, -0.00, -1.00, 168.5, 192.4)">D</text><text xml:space="preserve" font-family="Menlo-Regular,Menlo" font-size="37.0" fill="#E44347" transform="matrix(1.00, 0.00, -0.00, -1.00, 190.8, 192.4)">i</text><text xml:space="preserve" font-family="Menlo-Regular,Menlo" font-size="37.0" fill="#E44347" transform="matrix(1.00, 0.00, -0.00, -1.00, 213.1, 192.4)">a</text><text xml:space="preserve" font-family="Menlo-Regular,Menlo" font-size="37.0" fill="#E44347" transform="matrix(1.00, 0.00, -0.00, -1.00, 235.3, 192.4)">1</text><text xml:space="preserve" font-family="Menlo-Regular,Menlo" font-size="37.0" fill="#E44347" transform="matrix(1.00, 0.00, -0.00, -1.00, 257.6, 192.4)">'</text><text xml:space="preserve" font-family="Menlo-Regular,Menlo" font-size="37.0" fill="#E44347" transform="matrix(1.00, 0.00, -0.00, -1.00, 279.9, 192.4)">s</text><text xml:space="preserve" font-family="Menlo-Regular,Menlo" font-size="37.0" fill="#E44347" transform="matrix(1.00, 0.00, -0.00, -1.00, 302.2, 192.4)"> </text><text xml:space="preserve" font-family="Menlo-Regular,Menlo" font-size="37.0" fill="#E44347" transform="matrix(1.00, 0.00, -0.00, -1.00, 324.4, 192.4)">r</text><text xml:space="preserve" font-family="Menlo-Regular,Menlo" font-size="37.0" fill="#E44347" transform="matrix(1.00, 0.00, -0.00, -1.00, 346.7, 192.4)">e</text><text xml:space="preserve" font-family="Menlo-Regular,Menlo" font-size="37.0" fill="#E44347" transform="matrix(1.00, 0.00, -0.00, -1.00, 369.0, 192.4)">c</text><text xml:space="preserve" font-family="Menlo-Regular,Menlo" font-size="37.0" fill="#E44347" transform="matrix(1.00, 0.00, -0.00, -1.00, 391.3, 192.4)">t</text><text xml:space="preserve" font-family="Menlo-Regular,Menlo" font-size="37.0" fill="#E44347" transform="matrix(1.00, 0.00, -0.00, -1.00, 413.6, 192.4)"> </text><text xml:space="preserve" font-family="Menlo-Regular,Menlo" font-size="37.0" fill="#FFFFFF" transform="matrix(1.00, 0.00, -0.00, -1.00, 435.8, 192.4)">\</text><text xml:space="preserve" font-family="Menlo-Regular,Menlo" font-size="37.0" fill="#E44347" transform="matrix(1.00, 0.00, -0.00, -1.00, 458.1, 192.4)">(</text><text xml:space="preserve" font-family="Menlo-Regular,Menlo" font-size="37.0" fill="#93C869" transform="matrix(1.00, 0.00, -0.00, -1.00, 480.4, 192.4)">d</text><text xml:space="preserve" font-family="Menlo-Regular,Menlo" font-size="37.0" fill="#93C869" transform="matrix(1.00, 0.00, -0.00, -1.00, 502.6, 192.4)">i</text><text xml:space="preserve" font-family="Menlo-Regular,Menlo" font-size="37.0" fill="#93C869" transform="matrix(1.00, 0.00, -0.00, -1.00, 524.9, 192.4)">a</text><text xml:space="preserve" font-family="Menlo-Regular,Menlo" font-size="37.0" fill="#93C869" transform="matrix(1.00, 0.00, -0.00, -1.00, 547.2, 192.4)">1</text><text xml:space="preserve" font-family="Menlo-Regular,Menlo" font-size="37.0" fill="#FFFFFF" transform="matrix(1.00, 0.00, -0.00, -1.00, 569.5, 192.4)">.</text><text xml:space="preserve" font-family="Menlo-Regular,Menlo" font-size="37.0" fill="#93C869" transform="matrix(1.00, 0.00, -0.00, -1.00, 591.7, 192.4)">r</text><text xml:space="preserve" font-family="Menlo-Regular,Menlo" font-size="37.0" fill="#93C869" transform="matrix(1.00, 0.00, -0.00, -1.00, 614.0, 192.4)">e</text><text xml:space="preserve" font-family="Menlo-Regular,Menlo" font-size="37.0" fill="#93C869" transform="matrix(1.00, 0.00, -0.00, -1.00, 636.3, 192.4)">c</text><text xml:space="preserve" font-family="Menlo-Regular,Menlo" font-size="37.0" fill="#93C869" transform="matrix(1.00, 0.00, -0.00, -1.00, 658.6, 192.4)">t</text><text xml:space="preserve" font-family="Menlo-Regular,Menlo" font-size="37.0" fill="#FFFFFF" transform="matrix(1.00, 0.00, -0.00, -1.00, 680.8, 192.4)">.</text><text xml:space="preserve" font-family="Menlo-Regular,Menlo" font-size="37.0" fill="#93C869" transform="matrix(1.00, 0.00, -0.00, -1.00, 703.1, 192.4)">l</text><text xml:space="preserve" font-family="Menlo-Regular,Menlo" font-size="37.0" fill="#93C869" transform="matrix(1.00, 0.00, -0.00, -1.00, 725.4, 192.4)">e</text><text xml:space="preserve" font-family="Menlo-Regular,Menlo" font-size="37.0" fill="#93C869" transform="matrix(1.00, 0.00, -0.00, -1.00, 747.7, 192.4)">n</text><text xml:space="preserve" font-family="Menlo-Regular,Menlo" font-size="37.0" fill="#93C869" transform="matrix(1.00, 0.00, -0.00, -1.00, 769.9, 192.4)">g</text><text xml:space="preserve" font-family="Menlo-Regular,Menlo" font-size="37.0" fill="#93C869" transform="matrix(1.00, 0.00, -0.00, -1.00, 792.2, 192.4)">t</text><text xml:space="preserve" font-family="Menlo-Regular,Menlo" font-size="37.0" fill="#93C869" transform="matrix(1.00, 0.00, -0.00, -1.00, 814.5, 192.4)">h</text><text xml:space="preserve" font-family="Menlo-Regular,Menlo" font-size="37.0" fill="#E44347" transform="matrix(1.00, 0.00, -0.00, -1.00, 836.8, 192.4)">)</text><text xml:space="preserve" font-family="Menlo-Regular,Menlo" font-size="37.0" fill="#E44347" transform="matrix(1.00, 0.00, -0.00, -1.00, 859.0, 192.4)"> </text><text xml:space="preserve" font-family="Menlo-Regular,Menlo" font-size="37.0" fill="#E44347" transform="matrix(1.00, 0.00, -0.00, -1.00, 881.3, 192.4)">t</text><text xml:space="preserve" font-family="Menlo-Regular,Menlo" font-size="37.0" fill="#E44347" transform="matrix(1.00, 0.00, -0.00, -1.00, 903.6, 192.4)">r</text><text xml:space="preserve" font-family="Menlo-Regular,Menlo" font-size="37.0" fill="#E44347" transform="matrix(1.00, 0.00, -0.00, -1.00, 925.9, 192.4)">i</text><text xml:space="preserve" font-family="Menlo-Regular,Menlo" font-size="37.0" fill="#E44347" transform="matrix(1.00, 0.00, -0.00, -1.00, 948.2, 192.4)"> </text><text xml:space="preserve" font-family="Menlo-Regular,Menlo" font-size="37.0" fill="#FFFFFF" transform="matrix(1.00, 0.00, -0.00, -1.00, 970.4, 192.4)">\</text><text xml:space="preserve" font-family="Menlo-Regular,Menlo" font-size="37.0" fill="#E44347" transform="matrix(1.00, 0.00, -0.00, -1.00, 992.7, 192.4)">(</text><text xml:space="preserve" font-family="Menlo-Regular,Menlo" font-size="37.0" fill="#93C869" transform="matrix(1.00, 0.00, -0.00, -1.00, 1015.0, 192.4)">d</text><text xml:space="preserve" font-family="Menlo-Regular,Menlo" font-size="37.0" fill="#93C869" transform="matrix(1.00, 0.00, -0.00, -1.00, 1037.3, 192.4)">i</text><text xml:space="preserve" font-family="Menlo-Regular,Menlo" font-size="37.0" fill="#93C869" transform="matrix(1.00, 0.00, -0.00, -1.00, 1059.5, 192.4)">a</text><text xml:space="preserve" font-family="Menlo-Regular,Menlo" font-size="37.0" fill="#93C869" transform="matrix(1.00, 0.00, -0.00, -1.00, 1081.8, 192.4)">1</text><text xml:space="preserve" font-family="Menlo-Regular,Menlo" font-size="37.0" fill="#FFFFFF" transform="matrix(1.00, 0.00, -0.00, -1.00, 1104.1, 192.4)">.</text><text xml:space="preserve" font-family="Menlo-Regular,Menlo" font-size="37.0" fill="#93C869" transform="matrix(1.00, 0.00, -0.00, -1.00, 1126.4, 192.4)">t</text><text xml:space="preserve" font-family="Menlo-Regular,Menlo" font-size="37.0" fill="#93C869" transform="matrix(1.00, 0.00, -0.00, -1.00, 1148.6, 192.4)">r</text><text xml:space="preserve" font-family="Menlo-Regular,Menlo" font-size="37.0" fill="#93C869" transform="matrix(1.00, 0.00, -0.00, -1.00, 1170.9, 192.4)">i</text><text xml:space="preserve" font-family="Menlo-Regular,Menlo" font-size="37.0" fill="#FFFFFF" transform="matrix(1.00, 0.00, -0.00, -1.00, 1193.2, 192.4)">.</text><text xml:space="preserve" font-family="Menlo-Regular,Menlo" font-size="37.0" fill="#93C869" transform="matrix(1.00, 0.00, -0.00, -1.00, 1215.5, 192.4)">l</text><text xml:space="preserve" font-family="Menlo-Regular,Menlo" font-size="37.0" fill="#93C869" transform="matrix(1.00, 0.00, -0.00, -1.00, 1237.7, 192.4)">e</text><text xml:space="preserve" font-family="Menlo-Regular,Menlo" font-size="37.0" fill="#93C869" transform="matrix(1.00, 0.00, -0.00, -1.00, 1260.0, 192.4)">n</text><text xml:space="preserve" font-family="Menlo-Regular,Menlo" font-size="37.0" fill="#93C869" transform="matrix(1.00, 0.00, -0.00, -1.00, 1282.3, 192.4)">g</text><text xml:space="preserve" font-family="Menlo-Regular,Menlo" font-size="37.0" fill="#93C869" transform="matrix(1.00, 0.00, -0.00, -1.00, 1304.6, 192.4)">t</text><text xml:space="preserve" font-family="Menlo-Regular,Menlo" font-size="37.0" fill="#93C869" transform="matrix(1.00, 0.00, -0.00, -1.00, 1326.9, 192.4)">h</text><text xml:space="preserve" font-family="Menlo-Regular,Menlo" font-size="37.0" fill="#E44347" transform="matrix(1.00, 0.00, -0.00, -1.00, 1349.1, 192.4)">)</text><text xml:space="preserve" font-family="Menlo-Regular,Menlo" font-size="37.0" fill="#E44347" transform="matrix(1.00, 0.00, -0.00, -1.00, 1371.4, 192.4)">”</text><text xml:space="preserve" font-family="Menlo-Regular,Menlo" font-size="37.0" fill="#FFFFFF" transform="matrix(1.00, 0.00, -0.00, -1.00, 1393.7, 192.4)">)</text><text xml:space="preserve" font-family="Menlo-Regular,Menlo" font-size="37.0" fill="#FFFFFF" transform="matrix(1.00, 0.00, -0.00, -1.00, 1415.9, 192.4)"> </text><text xml:space="preserve" font-family="Menlo-Regular,Menlo" font-size="37.0" fill="#93C869" transform="matrix(1.00, 0.00, -0.00, -1.00, 12.6, 106.4)">r</text><text xml:space="preserve" font-family="Menlo-Regular,Menlo" font-size="37.0" fill="#93C869" transform="matrix(1.00, 0.00, -0.00, -1.00, 34.8, 106.4)">e</text><text xml:space="preserve" font-family="Menlo-Regular,Menlo" font-size="37.0" fill="#93C869" transform="matrix(1.00, 0.00, -0.00, -1.00, 57.1, 106.4)">c</text><text xml:space="preserve" font-family="Menlo-Regular,Menlo" font-size="37.0" fill="#93C869" transform="matrix(1.00, 0.00, -0.00, -1.00, 79.4, 106.4)">t</text><text xml:space="preserve" font-family="Menlo-Regular,Menlo" font-size="37.0" fill="#93C869" transform="matrix(1.00, 0.00, -0.00, -1.00, 101.7, 106.4)">1</text><text xml:space="preserve" font-family="Menlo-Regular,Menlo" font-size="37.0" fill="#FFFFFF" transform="matrix(1.00, 0.00, -0.00, -1.00, 123.9, 106.4)">.</text><text xml:space="preserve" font-family="Menlo-Regular,Menlo" font-size="37.0" fill="#93C869" transform="matrix(1.00, 0.00, -0.00, -1.00, 146.2, 106.4)">l</text><text xml:space="preserve" font-family="Menlo-Regular,Menlo" font-size="37.0" fill="#93C869" transform="matrix(1.00, 0.00, -0.00, -1.00, 168.5, 106.4)">e</text><text xml:space="preserve" font-family="Menlo-Regular,Menlo" font-size="37.0" fill="#93C869" transform="matrix(1.00, 0.00, -0.00, -1.00, 190.8, 106.4)">n</text><text xml:space="preserve" font-family="Menlo-Regular,Menlo" font-size="37.0" fill="#93C869" transform="matrix(1.00, 0.00, -0.00, -1.00, 213.1, 106.4)">g</text><text xml:space="preserve" font-family="Menlo-Regular,Menlo" font-size="37.0" fill="#93C869" transform="matrix(1.00, 0.00, -0.00, -1.00, 235.3, 106.4)">t</text><text xml:space="preserve" font-family="Menlo-Regular,Menlo" font-size="37.0" fill="#93C869" transform="matrix(1.00, 0.00, -0.00, -1.00, 257.6, 106.4)">h</text><text xml:space="preserve" font-family="Menlo-Regular,Menlo" font-size="37.0" fill="#FFFFFF" transform="matrix(1.00, 0.00, -0.00, -1.00, 279.9, 106.4)"> </text><text xml:space="preserve" font-family="Menlo-Regular,Menlo" font-size="37.0" fill="#FFFFFF" transform="matrix(1.00, 0.00, -0.00, -1.00, 302.1, 106.4)">=</text><text xml:space="preserve" font-family="Menlo-Regular,Menlo" font-size="37.0" fill="#FFFFFF" transform="matrix(1.00, 0.00, -0.00, -1.00, 324.4, 106.4)"> </text><text xml:space="preserve" font-family="Menlo-Regular,Menlo" font-size="37.0" fill="#8B83CE" transform="matrix(1.00, 0.00, -0.00, -1.00, 346.7, 106.4)">4</text><text xml:space="preserve" font-family="Menlo-Regular,Menlo" font-size="37.0" fill="#8B83CE" transform="matrix(1.00, 0.00, -0.00, -1.00, 369.0, 106.4)">5</text><text xml:space="preserve" font-family="Menlo-Regular,Menlo" font-size="37.0" fill="#8B83CE" transform="matrix(1.00, 0.00, -0.00, -1.00, 391.3, 106.4)">;</text><text xml:space="preserve" font-family="Menlo-Regular,Menlo" font-size="37.0" fill="#FFFFFF" transform="matrix(1.00, 0.00, -0.00, -1.00, 413.5, 106.4)"> </text><text xml:space="preserve" font-family="Menlo-Regular,Menlo" font-size="37.0" fill="#93C869" transform="matrix(1.00, 0.00, -0.00, -1.00, 435.8, 106.4)">t</text><text xml:space="preserve" font-family="Menlo-Regular,Menlo" font-size="37.0" fill="#93C869" transform="matrix(1.00, 0.00, -0.00, -1.00, 458.1, 106.4)">r</text><text xml:space="preserve" font-family="Menlo-Regular,Menlo" font-size="37.0" fill="#93C869" transform="matrix(1.00, 0.00, -0.00, -1.00, 480.4, 106.4)">i</text><text xml:space="preserve" font-family="Menlo-Regular,Menlo" font-size="37.0" fill="#93C869" transform="matrix(1.00, 0.00, -0.00, -1.00, 502.6, 106.4)">1</text><text xml:space="preserve" font-family="Menlo-Regular,Menlo" font-size="37.0" fill="#FFFFFF" transform="matrix(1.00, 0.00, -0.00, -1.00, 524.9, 106.4)">.</text><text xml:space="preserve" font-family="Menlo-Regular,Menlo" font-size="37.0" fill="#93C869" transform="matrix(1.00, 0.00, -0.00, -1.00, 547.2, 106.4)">l</text><text xml:space="preserve" font-family="Menlo-Regular,Menlo" font-size="37.0" fill="#93C869" transform="matrix(1.00, 0.00, -0.00, -1.00, 569.5, 106.4)">e</text><text xml:space="preserve" font-family="Menlo-Regular,Menlo" font-size="37.0" fill="#93C869" transform="matrix(1.00, 0.00, -0.00, -1.00, 591.7, 106.4)">n</text><text xml:space="preserve" font-family="Menlo-Regular,Menlo" font-size="37.0" fill="#93C869" transform="matrix(1.00, 0.00, -0.00, -1.00, 614.0, 106.4)">g</text><text xml:space="preserve" font-family="Menlo-Regular,Menlo" font-size="37.0" fill="#93C869" transform="matrix(1.00, 0.00, -0.00, -1.00, 636.3, 106.4)">t</text><text xml:space="preserve" font-family="Menlo-Regular,Menlo" font-size="37.0" fill="#93C869" transform="matrix(1.00, 0.00, -0.00, -1.00, 658.6, 106.4)">h</text><text xml:space="preserve" font-family="Menlo-Regular,Menlo" font-size="37.0" fill="#FFFFFF" transform="matrix(1.00, 0.00, -0.00, -1.00, 680.8, 106.4)"> </text><text xml:space="preserve" font-family="Menlo-Regular,Menlo" font-size="37.0" fill="#FFFFFF" transform="matrix(1.00, 0.00, -0.00, -1.00, 703.1, 106.4)">=</text><text xml:space="preserve" font-family="Menlo-Regular,Menlo" font-size="37.0" fill="#FFFFFF" transform="matrix(1.00, 0.00, -0.00, -1.00, 725.4, 106.4)"> </text><text xml:space="preserve" font-family="Menlo-Regular,Menlo" font-size="37.0" fill="#8B83CE" transform="matrix(1.00, 0.00, -0.00, -1.00, 747.7, 106.4)">4</text><text xml:space="preserve" font-family="Menlo-Regular,Menlo" font-size="37.0" fill="#8B83CE" transform="matrix(1.00, 0.00, -0.00, -1.00, 769.9, 106.4)">5</text><text xml:space="preserve" font-family="Menlo-Regular,Menlo" font-size="37.0" fill="#FFFFFF" transform="matrix(1.00, 0.00, -0.00, -1.00, 792.2, 106.4)"> </text><text xml:space="preserve" font-family="Menlo-Regular,Menlo" font-size="37.0" fill="#00AFC9" transform="matrix(1.00, 0.00, -0.00, -1.00, 12.6, 63.4)">p</text><text xml:space="preserve" font-family="Menlo-Regular,Menlo" font-size="37.0" fill="#00AFC9" transform="matrix(1.00, 0.00, -0.00, -1.00, 34.8, 63.4)">r</text><text xml:space="preserve" font-family="Menlo-Regular,Menlo" font-size="37.0" fill="#00AFC9" transform="matrix(1.00, 0.00, -0.00, -1.00, 57.1, 63.4)">i</text><text xml:space="preserve" font-family="Menlo-Regular,Menlo" font-size="37.0" fill="#00AFC9" transform="matrix(1.00, 0.00, -0.00, -1.00, 79.4, 63.4)">n</text><text xml:space="preserve" font-family="Menlo-Regular,Menlo" font-size="37.0" fill="#00AFC9" transform="matrix(1.00, 0.00, -0.00, -1.00, 101.7, 63.4)">t</text><text xml:space="preserve" font-family="Menlo-Regular,Menlo" font-size="37.0" fill="#FFFFFF" transform="matrix(1.00, 0.00, -0.00, -1.00, 123.9, 63.4)">(</text><text xml:space="preserve" font-family="Menlo-Regular,Menlo" font-size="37.0" fill="#E44347" transform="matrix(1.00, 0.00, -0.00, -1.00, 146.2, 63.4)">"</text><text xml:space="preserve" font-family="Menlo-Regular,Menlo" font-size="37.0" fill="#E44347" transform="matrix(1.00, 0.00, -0.00, -1.00, 168.5, 63.4)">D</text><text xml:space="preserve" font-family="Menlo-Regular,Menlo" font-size="37.0" fill="#E44347" transform="matrix(1.00, 0.00, -0.00, -1.00, 190.8, 63.4)">i</text><text xml:space="preserve" font-family="Menlo-Regular,Menlo" font-size="37.0" fill="#E44347" transform="matrix(1.00, 0.00, -0.00, -1.00, 213.1, 63.4)">a</text><text xml:space="preserve" font-family="Menlo-Regular,Menlo" font-size="37.0" fill="#E44347" transform="matrix(1.00, 0.00, -0.00, -1.00, 235.3, 63.4)">1</text><text xml:space="preserve" font-family="Menlo-Regular,Menlo" font-size="37.0" fill="#E44347" transform="matrix(1.00, 0.00, -0.00, -1.00, 257.6, 63.4)">'</text><text xml:space="preserve" font-family="Menlo-Regular,Menlo" font-size="37.0" fill="#E44347" transform="matrix(1.00, 0.00, -0.00, -1.00, 279.9, 63.4)">s</text><text xml:space="preserve" font-family="Menlo-Regular,Menlo" font-size="37.0" fill="#E44347" transform="matrix(1.00, 0.00, -0.00, -1.00, 302.2, 63.4)"> </text><text xml:space="preserve" font-family="Menlo-Regular,Menlo" font-size="37.0" fill="#E44347" transform="matrix(1.00, 0.00, -0.00, -1.00, 324.4, 63.4)">r</text><text xml:space="preserve" font-family="Menlo-Regular,Menlo" font-size="37.0" fill="#E44347" transform="matrix(1.00, 0.00, -0.00, -1.00, 346.7, 63.4)">e</text><text xml:space="preserve" font-family="Menlo-Regular,Menlo" font-size="37.0" fill="#E44347" transform="matrix(1.00, 0.00, -0.00, -1.00, 369.0, 63.4)">c</text><text xml:space="preserve" font-family="Menlo-Regular,Menlo" font-size="37.0" fill="#E44347" transform="matrix(1.00, 0.00, -0.00, -1.00, 391.3, 63.4)">t</text><text xml:space="preserve" font-family="Menlo-Regular,Menlo" font-size="37.0" fill="#E44347" transform="matrix(1.00, 0.00, -0.00, -1.00, 413.6, 63.4)"> </text><text xml:space="preserve" font-family="Menlo-Regular,Menlo" font-size="37.0" fill="#FFFFFF" transform="matrix(1.00, 0.00, -0.00, -1.00, 435.8, 63.4)">\</text><text xml:space="preserve" font-family="Menlo-Regular,Menlo" font-size="37.0" fill="#E44347" transform="matrix(1.00, 0.00, -0.00, -1.00, 458.1, 63.4)">(</text><text xml:space="preserve" font-family="Menlo-Regular,Menlo" font-size="37.0" fill="#93C869" transform="matrix(1.00, 0.00, -0.00, -1.00, 480.4, 63.4)">d</text><text xml:space="preserve" font-family="Menlo-Regular,Menlo" font-size="37.0" fill="#93C869" transform="matrix(1.00, 0.00, -0.00, -1.00, 502.6, 63.4)">i</text><text xml:space="preserve" font-family="Menlo-Regular,Menlo" font-size="37.0" fill="#93C869" transform="matrix(1.00, 0.00, -0.00, -1.00, 524.9, 63.4)">a</text><text xml:space="preserve" font-family="Menlo-Regular,Menlo" font-size="37.0" fill="#93C869" transform="matrix(1.00, 0.00, -0.00, -1.00, 547.2, 63.4)">1</text><text xml:space="preserve" font-family="Menlo-Regular,Menlo" font-size="37.0" fill="#FFFFFF" transform="matrix(1.00, 0.00, -0.00, -1.00, 569.5, 63.4)">.</text><text xml:space="preserve" font-family="Menlo-Regular,Menlo" font-size="37.0" fill="#93C869" transform="matrix(1.00, 0.00, -0.00, -1.00, 591.7, 63.4)">r</text><text xml:space="preserve" font-family="Menlo-Regular,Menlo" font-size="37.0" fill="#93C869" transform="matrix(1.00, 0.00, -0.00, -1.00, 614.0, 63.4)">e</text><text xml:space="preserve" font-family="Menlo-Regular,Menlo" font-size="37.0" fill="#93C869" transform="matrix(1.00, 0.00, -0.00, -1.00, 636.3, 63.4)">c</text><text xml:space="preserve" font-family="Menlo-Regular,Menlo" font-size="37.0" fill="#93C869" transform="matrix(1.00, 0.00, -0.00, -1.00, 658.6, 63.4)">t</text><text xml:space="preserve" font-family="Menlo-Regular,Menlo" font-size="37.0" fill="#FFFFFF" transform="matrix(1.00, 0.00, -0.00, -1.00, 680.8, 63.4)">.</text><text xml:space="preserve" font-family="Menlo-Regular,Menlo" font-size="37.0" fill="#93C869" transform="matrix(1.00, 0.00, -0.00, -1.00, 703.1, 63.4)">l</text><text xml:space="preserve" font-family="Menlo-Regular,Menlo" font-size="37.0" fill="#93C869" transform="matrix(1.00, 0.00, -0.00, -1.00, 725.4, 63.4)">e</text><text xml:space="preserve" font-family="Menlo-Regular,Menlo" font-size="37.0" fill="#93C869" transform="matrix(1.00, 0.00, -0.00, -1.00, 747.7, 63.4)">n</text><text xml:space="preserve" font-family="Menlo-Regular,Menlo" font-size="37.0" fill="#93C869" transform="matrix(1.00, 0.00, -0.00, -1.00, 769.9, 63.4)">g</text><text xml:space="preserve" font-family="Menlo-Regular,Menlo" font-size="37.0" fill="#93C869" transform="matrix(1.00, 0.00, -0.00, -1.00, 792.2, 63.4)">t</text><text xml:space="preserve" font-family="Menlo-Regular,Menlo" font-size="37.0" fill="#93C869" transform="matrix(1.00, 0.00, -0.00, -1.00, 814.5, 63.4)">h</text><text xml:space="preserve" font-family="Menlo-Regular,Menlo" font-size="37.0" fill="#E44347" transform="matrix(1.00, 0.00, -0.00, -1.00, 836.8, 63.4)">)</text><text xml:space="preserve" font-family="Menlo-Regular,Menlo" font-size="37.0" fill="#E44347" transform="matrix(1.00, 0.00, -0.00, -1.00, 859.0, 63.4)"> </text><text xml:space="preserve" font-family="Menlo-Regular,Menlo" font-size="37.0" fill="#E44347" transform="matrix(1.00, 0.00, -0.00, -1.00, 881.3, 63.4)">t</text><text xml:space="preserve" font-family="Menlo-Regular,Menlo" font-size="37.0" fill="#E44347" transform="matrix(1.00, 0.00, -0.00, -1.00, 903.6, 63.4)">r</text><text xml:space="preserve" font-family="Menlo-Regular,Menlo" font-size="37.0" fill="#E44347" transform="matrix(1.00, 0.00, -0.00, -1.00, 925.9, 63.4)">i</text><text xml:space="preserve" font-family="Menlo-Regular,Menlo" font-size="37.0" fill="#E44347" transform="matrix(1.00, 0.00, -0.00, -1.00, 948.2, 63.4)"> </text><text xml:space="preserve" font-family="Menlo-Regular,Menlo" font-size="37.0" fill="#FFFFFF" transform="matrix(1.00, 0.00, -0.00, -1.00, 970.4, 63.4)">\</text><text xml:space="preserve" font-family="Menlo-Regular,Menlo" font-size="37.0" fill="#E44347" transform="matrix(1.00, 0.00, -0.00, -1.00, 992.7, 63.4)">(</text><text xml:space="preserve" font-family="Menlo-Regular,Menlo" font-size="37.0" fill="#93C869" transform="matrix(1.00, 0.00, -0.00, -1.00, 1015.0, 63.4)">d</text><text xml:space="preserve" font-family="Menlo-Regular,Menlo" font-size="37.0" fill="#93C869" transform="matrix(1.00, 0.00, -0.00, -1.00, 1037.3, 63.4)">i</text><text xml:space="preserve" font-family="Menlo-Regular,Menlo" font-size="37.0" fill="#93C869" transform="matrix(1.00, 0.00, -0.00, -1.00, 1059.5, 63.4)">a</text><text xml:space="preserve" font-family="Menlo-Regular,Menlo" font-size="37.0" fill="#93C869" transform="matrix(1.00, 0.00, -0.00, -1.00, 1081.8, 63.4)">1</text><text xml:space="preserve" font-family="Menlo-Regular,Menlo" font-size="37.0" fill="#FFFFFF" transform="matrix(1.00, 0.00, -0.00, -1.00, 1104.1, 63.4)">.</text><text xml:space="preserve" font-family="Menlo-Regular,Menlo" font-size="37.0" fill="#93C869" transform="matrix(1.00, 0.00, -0.00, -1.00, 1126.4, 63.4)">t</text><text xml:space="preserve" font-family="Menlo-Regular,Menlo" font-size="37.0" fill="#93C869" transform="matrix(1.00, 0.00, -0.00, -1.00, 1148.6, 63.4)">r</text><text xml:space="preserve" font-family="Menlo-Regular,Menlo" font-size="37.0" fill="#93C869" transform="matrix(1.00, 0.00, -0.00, -1.00, 1170.9, 63.4)">i</text><text xml:space="preserve" font-family="Menlo-Regular,Menlo" font-size="37.0" fill="#FFFFFF" transform="matrix(1.00, 0.00, -0.00, -1.00, 1193.2, 63.4)">.</text><text xml:space="preserve" font-family="Menlo-Regular,Menlo" font-size="37.0" fill="#93C869" transform="matrix(1.00, 0.00, -0.00, -1.00, 1215.5, 63.4)">l</text><text xml:space="preserve" font-family="Menlo-Regular,Menlo" font-size="37.0" fill="#93C869" transform="matrix(1.00, 0.00, -0.00, -1.00, 1237.7, 63.4)">e</text><text xml:space="preserve" font-family="Menlo-Regular,Menlo" font-size="37.0" fill="#93C869" transform="matrix(1.00, 0.00, -0.00, -1.00, 1260.0, 63.4)">n</text><text xml:space="preserve" font-family="Menlo-Regular,Menlo" font-size="37.0" fill="#93C869" transform="matrix(1.00, 0.00, -0.00, -1.00, 1282.3, 63.4)">g</text><text xml:space="preserve" font-family="Menlo-Regular,Menlo" font-size="37.0" fill="#93C869" transform="matrix(1.00, 0.00, -0.00, -1.00, 1304.6, 63.4)">t</text><text xml:space="preserve" font-family="Menlo-Regular,Menlo" font-size="37.0" fill="#93C869" transform="matrix(1.00, 0.00, -0.00, -1.00, 1326.9, 63.4)">h</text><text xml:space="preserve" font-family="Menlo-Regular,Menlo" font-size="37.0" fill="#E44347" transform="matrix(1.00, 0.00, -0.00, -1.00, 1349.1, 63.4)">)</text><text xml:space="preserve" font-family="Menlo-Regular,Menlo" font-size="37.0" fill="#E44347" transform="matrix(1.00, 0.00, -0.00, -1.00, 1371.4, 63.4)">”</text><text xml:space="preserve" font-family="Menlo-Regular,Menlo" font-size="37.0" fill="#FFFFFF" transform="matrix(1.00, 0.00, -0.00, -1.00, 1393.7, 63.4)">)</text><text xml:space="preserve" font-family="Menlo-Regular,Menlo" font-size="37.0" fill="#FFFFFF" transform="matrix(1.00, 0.00, -0.00, -1.00, 1415.9, 63.4)"> </text></g></g></g></svg>