<?xml version="1.0" encoding="UTF-8" standalone="no"?><svg xmlns="http://www.w3.org/2000/svg" xmlns:xlink="http://www.w3.org/1999/xlink" clip-rule="evenodd" stroke-miterlimit="10" viewBox="0 0 1920 1080"><desc>SVG generated by Keynote</desc><defs></defs><g transform="matrix(1.00, 0.00, -0.00, -1.00, 0.0, 1080.0)"><path d="M 0.0 1080.0 L 1920.0 1080.0 L 1920.0 0.0 L 0.0 0.0 Z M 0.0 1080.0 " fill="#52575F"></path><text xml:space="preserve" font-family="Courier,Courier" font-size="94.0" fill="#FEFFFF" transform="matrix(1.00, 0.00, -0.00, -1.00, 54.0, 976.1)">S</text><text xml:space="preserve" font-family="Courier,Courier" font-size="94.0" fill="#FEFFFF" transform="matrix(1.00, 0.00, -0.00, -1.00, 110.4, 976.1)">t</text><text xml:space="preserve" font-family="Courier,Courier" font-size="94.0" fill="#FEFFFF" transform="matrix(1.00, 0.00, -0.00, -1.00, 166.8, 976.1)">r</text><text xml:space="preserve" font-family="Courier,Courier" font-size="94.0" fill="#FEFFFF" transform="matrix(1.00, 0.00, -0.00, -1.00, 223.2, 976.1)">u</text><text xml:space="preserve" font-family="Courier,Courier" font-size="94.0" fill="#FEFFFF" transform="matrix(1.00, 0.00, -0.00, -1.00, 279.7, 976.1)">c</text><text xml:space="preserve" font-family="Courier,Courier" font-size="94.0" fill="#FEFFFF" transform="matrix(1.00, 0.00, -0.00, -1.00, 336.1, 976.1)">t</text><text xml:space="preserve" font-family="Courier,Courier" font-size="94.0" fill="#FEFFFF" transform="matrix(1.00, 0.00, -0.00, -1.00, 392.5, 976.1)"> </text><text xml:space="preserve" font-family="Courier,Courier" font-size="94.0" fill="#FEFFFF" transform="matrix(1.00, 0.00, -0.00, -1.00, 448.9, 976.1)">v</text><text xml:space="preserve" font-family="Courier,Courier" font-size="94.0" fill="#FEFFFF" transform="matrix(1.00, 0.00, -0.00, -1.00, 505.3, 976.1)">s</text><text xml:space="preserve" font-family="Courier,Courier" font-size="94.0" fill="#FEFFFF" transform="matrix(1.00, 0.00, -0.00, -1.00, 561.8, 976.1)"> </text><text xml:space="preserve" font-family="Courier,Courier" font-size="94.0" fill="#FEFFFF" transform="matrix(1.00, 0.00, -0.00, -1.00, 618.2, 976.1)">C</text><text xml:space="preserve" font-family="Courier,Courier" font-size="94.0" fill="#FEFFFF" transform="matrix(1.00, 0.00, -0.00, -1.00, 674.6, 976.1)">l</text><text xml:space="preserve" font-family="Courier,Courier" font-size="94.0" fill="#FEFFFF" transform="matrix(1.00, 0.00, -0.00, -1.00, 731.0, 976.1)">a</text><text xml:space="preserve" font-family="Courier,Courier" font-size="94.0" fill="#FEFFFF" transform="matrix(1.00, 0.00, -0.00, -1.00, 787.4, 976.1)">s</text><text xml:space="preserve" font-family="Courier,Courier" font-size="94.0" fill="#FEFFFF" transform="matrix(1.00, 0.00, -0.00, -1.00, 843.8, 976.1)">s</text><g><clipPath id="clip0x7fbff3ff4b90"><path d="M 1581.2 21.9 L 1650.2 21.9 L 1650.2 90.9 L 1581.2 90.9 Z M 1581.2 21.9 "></path></clipPath><g clip-path="url(#clip0x7fbff3ff4b90)"><image xlink:href="../../F5F7C295-AB87-4E9F-8E10-39488A5480FF/assets/D93F090722A5269D0B30C3E05CCA40BA.png" width="225.00" height="225.00" transform="matrix(0.31, 0.00, -0.00, -0.31, 1581.0, 91.0)"></image></g></g><g><clipPath id="clip0x7fbff3b94dc0"><path d="M 1604.6 25.2 L 1954.7 25.2 L 1954.7 87.7 L 1604.6 87.7 Z M 1604.6 25.2 "></path></clipPath><g clip-path="url(#clip0x7fbff3b94dc0)"><text xml:space="preserve" font-family="Helvetica-Light,Helvetica" font-size="37.0" fill="#FEFFFF" transform="matrix(1.00, 0.00, -0.00, -1.00, 1677.9, 42.9)">S</text><text xml:space="preserve" font-family="Helvetica-Light,Helvetica" font-size="37.0" fill="#FEFFFF" transform="matrix(1.00, 0.00, -0.00, -1.00, 1700.5, 42.9)">w</text><text xml:space="preserve" font-family="Helvetica-Light,Helvetica" font-size="37.0" fill="#FEFFFF" transform="matrix(1.00, 0.00, -0.00, -1.00, 1727.2, 42.9)">i</text><text xml:space="preserve" font-family="Helvetica-Light,Helvetica" font-size="37.0" fill="#FEFFFF" transform="matrix(1.00, 0.00, -0.00, -1.00, 1735.4, 42.9)">t</text><text xml:space="preserve" font-family="Helvetica-Light,Helvetica" font-size="37.0" fill="#FEFFFF" transform="matrix(1.00, 0.00, -0.00, -1.00, 1745.7, 42.9)">f</text><text xml:space="preserve" font-family="Helvetica-Light,Helvetica" font-size="37.0" fill="#FEFFFF" transform="matrix(1.00, 0.00, -0.00, -1.00, 1756.0, 42.9)">t</text><text xml:space="preserve" font-family="Helvetica-Light,Helvetica" font-size="37.0" fill="#FEFFFF" transform="matrix(1.00, 0.00, -0.00, -1.00, 1766.3, 42.9)">y</text><text xml:space="preserve" font-family="Helvetica-Light,Helvetica" font-size="37.0" fill="#FEFFFF" transform="matrix(1.00, 0.00, -0.00, -1.00, 1784.8, 42.9)">J</text><text xml:space="preserve" font-family="Helvetica-Light,Helvetica" font-size="37.0" fill="#FEFFFF" transform="matrix(1.00, 0.00, -0.00, -1.00, 1803.3, 42.9)">S</text><text xml:space="preserve" font-family="Helvetica-Light,Helvetica" font-size="37.0" fill="#FEFFFF" transform="matrix(1.00, 0.00, -0.00, -1.00, 1825.9, 42.9)">O</text><text xml:space="preserve" font-family="Helvetica-Light,Helvetica" font-size="37.0" fill="#FEFFFF" transform="matrix(1.00, 0.00, -0.00, -1.00, 1854.7, 42.9)">N</text><text xml:space="preserve" font-family="Helvetica-Light,Helvetica" font-size="37.0" fill="#FEFFFF" transform="matrix(1.00, 0.00, -0.00, -1.00, 1881.4, 42.9)"> </text><text xml:space="preserve" font-family="Helvetica-Light,Helvetica" font-size="37.0" fill="#FEFFFF" transform="matrix(1.00, 0.00, -0.00, -1.00, 1891.7, 42.9)"> </text><text xml:space="preserve" font-family="Helvetica-Light,Helvetica" font-size="37.0" fill="#FEFFFF" transform="matrix(1.00, 0.00, -0.00, -1.00, 1902.0, 42.9)"> </text><path d="M 69.7 43.9 L 273.2 43.9 " fill="none" stroke="#FEFFFF" stroke-width="1.85" transform="matrix(1.00, 0.00, 0.00, -1.00, 1608.2, 84.0)"></path></g></g></g></svg>