<?xml version="1.0" encoding="UTF-8" standalone="no"?><svg xmlns="http://www.w3.org/2000/svg" xmlns:xlink="http://www.w3.org/1999/xlink" clip-rule="evenodd" stroke-miterlimit="10" viewBox="0 0 726 448"><desc>SVG generated by Keynote</desc><defs></defs><g transform="matrix(1.00, 0.00, -0.00, -1.00, 0.0, 448.0)"><text xml:space="preserve" font-family="Helvetica,Helvetica" font-size="56.0" fill="#FEFFFF" transform="matrix(1.00, 0.00, -0.00, -1.00, 2.1, 404.5)">A</text><text xml:space="preserve" font-family="Helvetica,Helvetica" font-size="56.0" fill="#FEFFFF" transform="matrix(1.00, 0.00, -0.00, -1.00, 39.4, 404.5)">l</text><text xml:space="preserve" font-family="Helvetica,Helvetica" font-size="56.0" fill="#FEFFFF" transform="matrix(1.00, 0.00, -0.00, -1.00, 51.9, 404.5)">m</text><text xml:space="preserve" font-family="Helvetica,Helvetica" font-size="56.0" fill="#FEFFFF" transform="matrix(1.00, 0.00, -0.00, -1.00, 98.5, 404.5)">o</text><text xml:space="preserve" font-family="Helvetica,Helvetica" font-size="56.0" fill="#FEFFFF" transform="matrix(1.00, 0.00, -0.00, -1.00, 129.7, 404.5)">s</text><text xml:space="preserve" font-family="Helvetica,Helvetica" font-size="56.0" fill="#FEFFFF" transform="matrix(1.00, 0.00, -0.00, -1.00, 157.7, 404.5)">t</text><text xml:space="preserve" font-family="Helvetica,Helvetica" font-size="56.0" fill="#FEFFFF" transform="matrix(1.00, 0.00, -0.00, -1.00, 173.2, 404.5)"> </text><text xml:space="preserve" font-family="Helvetica,Helvetica" font-size="56.0" fill="#FEFFFF" transform="matrix(1.00, 0.00, -0.00, -1.00, 188.8, 404.5)">a</text><text xml:space="preserve" font-family="Helvetica,Helvetica" font-size="56.0" fill="#FEFFFF" transform="matrix(1.00, 0.00, -0.00, -1.00, 219.9, 404.5)">l</text><text xml:space="preserve" font-family="Helvetica,Helvetica" font-size="56.0" fill="#FEFFFF" transform="matrix(1.00, 0.00, -0.00, -1.00, 232.4, 404.5)">l</text><text xml:space="preserve" font-family="Helvetica,Helvetica" font-size="56.0" fill="#FEFFFF" transform="matrix(1.00, 0.00, -0.00, -1.00, 244.8, 404.5)"> </text><text xml:space="preserve" font-family="Helvetica,Helvetica" font-size="56.0" fill="#FEFFFF" transform="matrix(1.00, 0.00, -0.00, -1.00, 260.4, 404.5)">t</text><text xml:space="preserve" font-family="Helvetica,Helvetica" font-size="56.0" fill="#FEFFFF" transform="matrix(1.00, 0.00, -0.00, -1.00, 275.9, 404.5)">y</text><text xml:space="preserve" font-family="Helvetica,Helvetica" font-size="56.0" fill="#FEFFFF" transform="matrix(1.00, 0.00, -0.00, -1.00, 303.9, 404.5)">p</text><text xml:space="preserve" font-family="Helvetica,Helvetica" font-size="56.0" fill="#FEFFFF" transform="matrix(1.00, 0.00, -0.00, -1.00, 335.1, 404.5)">e</text><text xml:space="preserve" font-family="Helvetica,Helvetica" font-size="56.0" fill="#FEFFFF" transform="matrix(1.00, 0.00, -0.00, -1.00, 366.2, 404.5)">s</text><text xml:space="preserve" font-family="Helvetica,Helvetica" font-size="56.0" fill="#FEFFFF" transform="matrix(1.00, 0.00, -0.00, -1.00, 394.2, 404.5)"> </text><text xml:space="preserve" font-family="Helvetica,Helvetica" font-size="56.0" fill="#FEFFFF" transform="matrix(1.00, 0.00, -0.00, -1.00, 409.8, 404.5)">i</text><text xml:space="preserve" font-family="Helvetica,Helvetica" font-size="56.0" fill="#FEFFFF" transform="matrix(1.00, 0.00, -0.00, -1.00, 422.2, 404.5)">n</text><text xml:space="preserve" font-family="Helvetica,Helvetica" font-size="56.0" fill="#FEFFFF" transform="matrix(1.00, 0.00, -0.00, -1.00, 453.4, 404.5)"> </text><text xml:space="preserve" font-family="Helvetica,Helvetica" font-size="56.0" fill="#FEFFFF" transform="matrix(1.00, 0.00, -0.00, -1.00, 468.9, 404.5)">S</text><text xml:space="preserve" font-family="Helvetica,Helvetica" font-size="56.0" fill="#FEFFFF" transform="matrix(1.00, 0.00, -0.00, -1.00, 506.3, 404.5)">w</text><text xml:space="preserve" font-family="Helvetica,Helvetica" font-size="56.0" fill="#FEFFFF" transform="matrix(1.00, 0.00, -0.00, -1.00, 546.7, 404.5)">i</text><text xml:space="preserve" font-family="Helvetica,Helvetica" font-size="56.0" fill="#FEFFFF" transform="matrix(1.00, 0.00, -0.00, -1.00, 559.2, 404.5)">f</text><text xml:space="preserve" font-family="Helvetica,Helvetica" font-size="56.0" fill="#FEFFFF" transform="matrix(1.00, 0.00, -0.00, -1.00, 574.7, 404.5)">t</text><text xml:space="preserve" font-family="Helvetica,Helvetica" font-size="56.0" fill="#FEFFFF" transform="matrix(1.00, 0.00, -0.00, -1.00, 590.3, 404.5)"> </text><text xml:space="preserve" font-family="Helvetica,Helvetica" font-size="56.0" fill="#FEFFFF" transform="matrix(1.00, 0.00, -0.00, -1.00, 605.8, 404.5)">a</text><text xml:space="preserve" font-family="Helvetica,Helvetica" font-size="56.0" fill="#FEFFFF" transform="matrix(1.00, 0.00, -0.00, -1.00, 637.0, 404.5)">r</text><text xml:space="preserve" font-family="Helvetica,Helvetica" font-size="56.0" fill="#FEFFFF" transform="matrix(1.00, 0.00, -0.00, -1.00, 655.6, 404.5)">e</text><text xml:space="preserve" font-family="Helvetica,Helvetica" font-size="56.0" fill="#FEFFFF" transform="matrix(1.00, 0.00, -0.00, -1.00, 686.8, 404.5)"> </text><text xml:space="preserve" font-family="Helvetica,Helvetica" font-size="56.0" fill="#FEFFFF" transform="matrix(1.00, 0.00, -0.00, -1.00, 2.1, 337.5)">v</text><text xml:space="preserve" font-family="Helvetica,Helvetica" font-size="56.0" fill="#FEFFFF" transform="matrix(1.00, 0.00, -0.00, -1.00, 30.1, 337.5)">a</text><text xml:space="preserve" font-family="Helvetica,Helvetica" font-size="56.0" fill="#FEFFFF" transform="matrix(1.00, 0.00, -0.00, -1.00, 61.2, 337.5)">l</text><text xml:space="preserve" font-family="Helvetica,Helvetica" font-size="56.0" fill="#FEFFFF" transform="matrix(1.00, 0.00, -0.00, -1.00, 73.7, 337.5)">u</text><text xml:space="preserve" font-family="Helvetica,Helvetica" font-size="56.0" fill="#FEFFFF" transform="matrix(1.00, 0.00, -0.00, -1.00, 104.8, 337.5)">e</text><text xml:space="preserve" font-family="Helvetica,Helvetica" font-size="56.0" fill="#FEFFFF" transform="matrix(1.00, 0.00, -0.00, -1.00, 136.0, 337.5)"> </text><text xml:space="preserve" font-family="Helvetica,Helvetica" font-size="56.0" fill="#FEFFFF" transform="matrix(1.00, 0.00, -0.00, -1.00, 151.5, 337.5)">t</text><text xml:space="preserve" font-family="Helvetica,Helvetica" font-size="56.0" fill="#FEFFFF" transform="matrix(1.00, 0.00, -0.00, -1.00, 167.1, 337.5)">y</text><text xml:space="preserve" font-family="Helvetica,Helvetica" font-size="56.0" fill="#FEFFFF" transform="matrix(1.00, 0.00, -0.00, -1.00, 195.1, 337.5)">p</text><text xml:space="preserve" font-family="Helvetica,Helvetica" font-size="56.0" fill="#FEFFFF" transform="matrix(1.00, 0.00, -0.00, -1.00, 226.2, 337.5)">e</text><text xml:space="preserve" font-family="Helvetica,Helvetica" font-size="56.0" fill="#FEFFFF" transform="matrix(1.00, 0.00, -0.00, -1.00, 257.4, 337.5)">s</text><text xml:space="preserve" font-family="Helvetica,Helvetica" font-size="56.0" fill="#FEFFFF" transform="matrix(1.00, 0.00, -0.00, -1.00, 285.4, 337.5)">,</text><text xml:space="preserve" font-family="Helvetica,Helvetica" font-size="56.0" fill="#FEFFFF" transform="matrix(1.00, 0.00, -0.00, -1.00, 300.9, 337.5)"> </text><text xml:space="preserve" font-family="Helvetica,Helvetica" font-size="56.0" fill="#FEFFFF" transform="matrix(1.00, 0.00, -0.00, -1.00, 316.5, 337.5)">i</text><text xml:space="preserve" font-family="Helvetica,Helvetica" font-size="56.0" fill="#FEFFFF" transform="matrix(1.00, 0.00, -0.00, -1.00, 328.9, 337.5)">n</text><text xml:space="preserve" font-family="Helvetica,Helvetica" font-size="56.0" fill="#FEFFFF" transform="matrix(1.00, 0.00, -0.00, -1.00, 360.1, 337.5)">c</text><text xml:space="preserve" font-family="Helvetica,Helvetica" font-size="56.0" fill="#FEFFFF" transform="matrix(1.00, 0.00, -0.00, -1.00, 388.1, 337.5)">l</text><text xml:space="preserve" font-family="Helvetica,Helvetica" font-size="56.0" fill="#FEFFFF" transform="matrix(1.00, 0.00, -0.00, -1.00, 400.5, 337.5)">u</text><text xml:space="preserve" font-family="Helvetica,Helvetica" font-size="56.0" fill="#FEFFFF" transform="matrix(1.00, 0.00, -0.00, -1.00, 431.7, 337.5)">d</text><text xml:space="preserve" font-family="Helvetica,Helvetica" font-size="56.0" fill="#FEFFFF" transform="matrix(1.00, 0.00, -0.00, -1.00, 462.8, 337.5)">i</text><text xml:space="preserve" font-family="Helvetica,Helvetica" font-size="56.0" fill="#FEFFFF" transform="matrix(1.00, 0.00, -0.00, -1.00, 475.3, 337.5)">n</text><text xml:space="preserve" font-family="Helvetica,Helvetica" font-size="56.0" fill="#FEFFFF" transform="matrix(1.00, 0.00, -0.00, -1.00, 506.5, 337.5)">g</text><text xml:space="preserve" font-family="Helvetica,Helvetica" font-size="56.0" fill="#FEFFFF" transform="matrix(1.00, 0.00, -0.00, -1.00, 537.6, 337.5)"> </text><text xml:space="preserve" font-family="Helvetica,Helvetica" font-size="56.0" fill="#FEFFFF" transform="matrix(1.00, 0.00, -0.00, -1.00, 553.2, 337.5)">a</text><text xml:space="preserve" font-family="Helvetica,Helvetica" font-size="56.0" fill="#FEFFFF" transform="matrix(1.00, 0.00, -0.00, -1.00, 584.3, 337.5)">r</text><text xml:space="preserve" font-family="Helvetica,Helvetica" font-size="56.0" fill="#FEFFFF" transform="matrix(1.00, 0.00, -0.00, -1.00, 603.0, 337.5)">r</text><text xml:space="preserve" font-family="Helvetica,Helvetica" font-size="56.0" fill="#FEFFFF" transform="matrix(1.00, 0.00, -0.00, -1.00, 621.6, 337.5)">a</text><text xml:space="preserve" font-family="Helvetica,Helvetica" font-size="56.0" fill="#FEFFFF" transform="matrix(1.00, 0.00, -0.00, -1.00, 652.8, 337.5)">y</text><text xml:space="preserve" font-family="Helvetica,Helvetica" font-size="56.0" fill="#FEFFFF" transform="matrix(1.00, 0.00, -0.00, -1.00, 680.8, 337.5)">s</text><text xml:space="preserve" font-family="Helvetica,Helvetica" font-size="56.0" fill="#FEFFFF" transform="matrix(1.00, 0.00, -0.00, -1.00, 708.8, 337.5)">,</text><text xml:space="preserve" font-family="Helvetica,Helvetica" font-size="56.0" fill="#FEFFFF" transform="matrix(1.00, 0.00, -0.00, -1.00, 724.3, 337.5)"> </text><text xml:space="preserve" font-family="Helvetica,Helvetica" font-size="56.0" fill="#FEFFFF" transform="matrix(1.00, 0.00, -0.00, -1.00, 2.1, 270.5)">d</text><text xml:space="preserve" font-family="Helvetica,Helvetica" font-size="56.0" fill="#FEFFFF" transform="matrix(1.00, 0.00, -0.00, -1.00, 33.2, 270.5)">i</text><text xml:space="preserve" font-family="Helvetica,Helvetica" font-size="56.0" fill="#FEFFFF" transform="matrix(1.00, 0.00, -0.00, -1.00, 45.7, 270.5)">c</text><text xml:space="preserve" font-family="Helvetica,Helvetica" font-size="56.0" fill="#FEFFFF" transform="matrix(1.00, 0.00, -0.00, -1.00, 73.7, 270.5)">t</text><text xml:space="preserve" font-family="Helvetica,Helvetica" font-size="56.0" fill="#FEFFFF" transform="matrix(1.00, 0.00, -0.00, -1.00, 89.2, 270.5)">i</text><text xml:space="preserve" font-family="Helvetica,Helvetica" font-size="56.0" fill="#FEFFFF" transform="matrix(1.00, 0.00, -0.00, -1.00, 101.7, 270.5)">o</text><text xml:space="preserve" font-family="Helvetica,Helvetica" font-size="56.0" fill="#FEFFFF" transform="matrix(1.00, 0.00, -0.00, -1.00, 132.8, 270.5)">n</text><text xml:space="preserve" font-family="Helvetica,Helvetica" font-size="56.0" fill="#FEFFFF" transform="matrix(1.00, 0.00, -0.00, -1.00, 164.0, 270.5)">a</text><text xml:space="preserve" font-family="Helvetica,Helvetica" font-size="56.0" fill="#FEFFFF" transform="matrix(1.00, 0.00, -0.00, -1.00, 195.1, 270.5)">r</text><text xml:space="preserve" font-family="Helvetica,Helvetica" font-size="56.0" fill="#FEFFFF" transform="matrix(1.00, 0.00, -0.00, -1.00, 213.8, 270.5)">y</text><text xml:space="preserve" font-family="Helvetica,Helvetica" font-size="56.0" fill="#FEFFFF" transform="matrix(1.00, 0.00, -0.00, -1.00, 237.6, 270.5)">,</text><text xml:space="preserve" font-family="Helvetica,Helvetica" font-size="56.0" fill="#FEFFFF" transform="matrix(1.00, 0.00, -0.00, -1.00, 253.2, 270.5)"> </text><text xml:space="preserve" font-family="Helvetica,Helvetica" font-size="56.0" fill="#FEFFFF" transform="matrix(1.00, 0.00, -0.00, -1.00, 268.7, 270.5)">n</text><text xml:space="preserve" font-family="Helvetica,Helvetica" font-size="56.0" fill="#FEFFFF" transform="matrix(1.00, 0.00, -0.00, -1.00, 299.9, 270.5)">u</text><text xml:space="preserve" font-family="Helvetica,Helvetica" font-size="56.0" fill="#FEFFFF" transform="matrix(1.00, 0.00, -0.00, -1.00, 331.1, 270.5)">m</text><text xml:space="preserve" font-family="Helvetica,Helvetica" font-size="56.0" fill="#FEFFFF" transform="matrix(1.00, 0.00, -0.00, -1.00, 377.7, 270.5)">b</text><text xml:space="preserve" font-family="Helvetica,Helvetica" font-size="56.0" fill="#FEFFFF" transform="matrix(1.00, 0.00, -0.00, -1.00, 408.9, 270.5)">e</text><text xml:space="preserve" font-family="Helvetica,Helvetica" font-size="56.0" fill="#FEFFFF" transform="matrix(1.00, 0.00, -0.00, -1.00, 440.0, 270.5)">r</text><text xml:space="preserve" font-family="Helvetica,Helvetica" font-size="56.0" fill="#FEFFFF" transform="matrix(1.00, 0.00, -0.00, -1.00, 458.7, 270.5)">s</text><text xml:space="preserve" font-family="Helvetica,Helvetica" font-size="56.0" fill="#FEFFFF" transform="matrix(1.00, 0.00, -0.00, -1.00, 486.7, 270.5)">,</text><text xml:space="preserve" font-family="Helvetica,Helvetica" font-size="56.0" fill="#FEFFFF" transform="matrix(1.00, 0.00, -0.00, -1.00, 502.2, 270.5)"> </text><text xml:space="preserve" font-family="Helvetica,Helvetica" font-size="56.0" fill="#FEFFFF" transform="matrix(1.00, 0.00, -0.00, -1.00, 2.1, 203.5)">b</text><text xml:space="preserve" font-family="Helvetica,Helvetica" font-size="56.0" fill="#FEFFFF" transform="matrix(1.00, 0.00, -0.00, -1.00, 33.2, 203.5)">o</text><text xml:space="preserve" font-family="Helvetica,Helvetica" font-size="56.0" fill="#FEFFFF" transform="matrix(1.00, 0.00, -0.00, -1.00, 64.4, 203.5)">o</text><text xml:space="preserve" font-family="Helvetica,Helvetica" font-size="56.0" fill="#FEFFFF" transform="matrix(1.00, 0.00, -0.00, -1.00, 95.5, 203.5)">l</text><text xml:space="preserve" font-family="Helvetica,Helvetica" font-size="56.0" fill="#FEFFFF" transform="matrix(1.00, 0.00, -0.00, -1.00, 108.0, 203.5)">e</text><text xml:space="preserve" font-family="Helvetica,Helvetica" font-size="56.0" fill="#FEFFFF" transform="matrix(1.00, 0.00, -0.00, -1.00, 139.1, 203.5)">a</text><text xml:space="preserve" font-family="Helvetica,Helvetica" font-size="56.0" fill="#FEFFFF" transform="matrix(1.00, 0.00, -0.00, -1.00, 170.3, 203.5)">n</text><text xml:space="preserve" font-family="Helvetica,Helvetica" font-size="56.0" fill="#FEFFFF" transform="matrix(1.00, 0.00, -0.00, -1.00, 201.4, 203.5)">s</text><text xml:space="preserve" font-family="Helvetica,Helvetica" font-size="56.0" fill="#FEFFFF" transform="matrix(1.00, 0.00, -0.00, -1.00, 229.4, 203.5)">,</text><text xml:space="preserve" font-family="Helvetica,Helvetica" font-size="56.0" fill="#FEFFFF" transform="matrix(1.00, 0.00, -0.00, -1.00, 245.0, 203.5)"> </text><text xml:space="preserve" font-family="Helvetica,Helvetica" font-size="56.0" fill="#FEFFFF" transform="matrix(1.00, 0.00, -0.00, -1.00, 260.5, 203.5)">t</text><text xml:space="preserve" font-family="Helvetica,Helvetica" font-size="56.0" fill="#FEFFFF" transform="matrix(1.00, 0.00, -0.00, -1.00, 276.1, 203.5)">u</text><text xml:space="preserve" font-family="Helvetica,Helvetica" font-size="56.0" fill="#FEFFFF" transform="matrix(1.00, 0.00, -0.00, -1.00, 307.2, 203.5)">p</text><text xml:space="preserve" font-family="Helvetica,Helvetica" font-size="56.0" fill="#FEFFFF" transform="matrix(1.00, 0.00, -0.00, -1.00, 338.4, 203.5)">l</text><text xml:space="preserve" font-family="Helvetica,Helvetica" font-size="56.0" fill="#FEFFFF" transform="matrix(1.00, 0.00, -0.00, -1.00, 350.8, 203.5)">e</text><text xml:space="preserve" font-family="Helvetica,Helvetica" font-size="56.0" fill="#FEFFFF" transform="matrix(1.00, 0.00, -0.00, -1.00, 382.0, 203.5)">s</text><text xml:space="preserve" font-family="Helvetica,Helvetica" font-size="56.0" fill="#FEFFFF" transform="matrix(1.00, 0.00, -0.00, -1.00, 410.0, 203.5)">,</text><text xml:space="preserve" font-family="Helvetica,Helvetica" font-size="56.0" fill="#FEFFFF" transform="matrix(1.00, 0.00, -0.00, -1.00, 425.5, 203.5)"> </text><text xml:space="preserve" font-family="Helvetica,Helvetica" font-size="56.0" fill="#FEFFFF" transform="matrix(1.00, 0.00, -0.00, -1.00, 441.1, 203.5)">a</text><text xml:space="preserve" font-family="Helvetica,Helvetica" font-size="56.0" fill="#FEFFFF" transform="matrix(1.00, 0.00, -0.00, -1.00, 472.2, 203.5)">n</text><text xml:space="preserve" font-family="Helvetica,Helvetica" font-size="56.0" fill="#FEFFFF" transform="matrix(1.00, 0.00, -0.00, -1.00, 503.4, 203.5)">d</text><text xml:space="preserve" font-family="Helvetica,Helvetica" font-size="56.0" fill="#FEFFFF" transform="matrix(1.00, 0.00, -0.00, -1.00, 534.6, 203.5)"> </text><text xml:space="preserve" font-family="Helvetica,Helvetica" font-size="56.0" fill="#FEFFFF" transform="matrix(1.00, 0.00, -0.00, -1.00, 2.1, 136.5)">e</text><text xml:space="preserve" font-family="Helvetica,Helvetica" font-size="56.0" fill="#FEFFFF" transform="matrix(1.00, 0.00, -0.00, -1.00, 33.2, 136.5)">n</text><text xml:space="preserve" font-family="Helvetica,Helvetica" font-size="56.0" fill="#FEFFFF" transform="matrix(1.00, 0.00, -0.00, -1.00, 64.4, 136.5)">u</text><text xml:space="preserve" font-family="Helvetica,Helvetica" font-size="56.0" fill="#FEFFFF" transform="matrix(1.00, 0.00, -0.00, -1.00, 95.5, 136.5)">m</text><text xml:space="preserve" font-family="Helvetica,Helvetica" font-size="56.0" fill="#FEFFFF" transform="matrix(1.00, 0.00, -0.00, -1.00, 142.2, 136.5)">s</text><text xml:space="preserve" font-family="Helvetica,Helvetica" font-size="56.0" fill="#FEFFFF" transform="matrix(1.00, 0.00, -0.00, -1.00, 170.2, 136.5)">.</text><text xml:space="preserve" font-family="Helvetica,Helvetica" font-size="56.0" fill="#FEFFFF" transform="matrix(1.00, 0.00, -0.00, -1.00, 185.7, 136.5)"> </text><text xml:space="preserve" font-family="Helvetica,Helvetica" font-size="56.0" fill="#FEFFFF" transform="matrix(1.00, 0.00, -0.00, -1.00, 2.1, 69.5)">C</text><text xml:space="preserve" font-family="Helvetica,Helvetica" font-size="56.0" fill="#FEFFFF" transform="matrix(1.00, 0.00, -0.00, -1.00, 42.5, 69.5)">l</text><text xml:space="preserve" font-family="Helvetica,Helvetica" font-size="56.0" fill="#FEFFFF" transform="matrix(1.00, 0.00, -0.00, -1.00, 55.0, 69.5)">a</text><text xml:space="preserve" font-family="Helvetica,Helvetica" font-size="56.0" fill="#FEFFFF" transform="matrix(1.00, 0.00, -0.00, -1.00, 86.1, 69.5)">s</text><text xml:space="preserve" font-family="Helvetica,Helvetica" font-size="56.0" fill="#FEFFFF" transform="matrix(1.00, 0.00, -0.00, -1.00, 114.1, 69.5)">s</text><text xml:space="preserve" font-family="Helvetica,Helvetica" font-size="56.0" fill="#FEFFFF" transform="matrix(1.00, 0.00, -0.00, -1.00, 142.1, 69.5)">e</text><text xml:space="preserve" font-family="Helvetica,Helvetica" font-size="56.0" fill="#FEFFFF" transform="matrix(1.00, 0.00, -0.00, -1.00, 173.3, 69.5)">s</text><text xml:space="preserve" font-family="Helvetica,Helvetica" font-size="56.0" fill="#FEFFFF" transform="matrix(1.00, 0.00, -0.00, -1.00, 201.3, 69.5)"> </text><text xml:space="preserve" font-family="Helvetica,Helvetica" font-size="56.0" fill="#FEFFFF" transform="matrix(1.00, 0.00, -0.00, -1.00, 216.8, 69.5)">a</text><text xml:space="preserve" font-family="Helvetica,Helvetica" font-size="56.0" fill="#FEFFFF" transform="matrix(1.00, 0.00, -0.00, -1.00, 248.0, 69.5)">r</text><text xml:space="preserve" font-family="Helvetica,Helvetica" font-size="56.0" fill="#FEFFFF" transform="matrix(1.00, 0.00, -0.00, -1.00, 266.6, 69.5)">e</text><text xml:space="preserve" font-family="Helvetica,Helvetica" font-size="56.0" fill="#FEFFFF" transform="matrix(1.00, 0.00, -0.00, -1.00, 297.8, 69.5)"> </text><text xml:space="preserve" font-family="Helvetica,Helvetica" font-size="56.0" fill="#FEFFFF" transform="matrix(1.00, 0.00, -0.00, -1.00, 313.3, 69.5)">t</text><text xml:space="preserve" font-family="Helvetica,Helvetica" font-size="56.0" fill="#FEFFFF" transform="matrix(1.00, 0.00, -0.00, -1.00, 328.9, 69.5)">h</text><text xml:space="preserve" font-family="Helvetica,Helvetica" font-size="56.0" fill="#FEFFFF" transform="matrix(1.00, 0.00, -0.00, -1.00, 360.0, 69.5)">e</text><text xml:space="preserve" font-family="Helvetica,Helvetica" font-size="56.0" fill="#FEFFFF" transform="matrix(1.00, 0.00, -0.00, -1.00, 391.2, 69.5)"> </text><text xml:space="preserve" font-family="Helvetica,Helvetica" font-size="56.0" fill="#E24A30" transform="matrix(1.00, 0.00, -0.00, -1.00, 406.7, 69.5)">e</text><text xml:space="preserve" font-family="Helvetica,Helvetica" font-size="56.0" fill="#E24A30" transform="matrix(1.00, 0.00, -0.00, -1.00, 437.8, 69.5)">x</text><text xml:space="preserve" font-family="Helvetica,Helvetica" font-size="56.0" fill="#E24A30" transform="matrix(1.00, 0.00, -0.00, -1.00, 465.8, 69.5)">c</text><text xml:space="preserve" font-family="Helvetica,Helvetica" font-size="56.0" fill="#E24A30" transform="matrix(1.00, 0.00, -0.00, -1.00, 493.8, 69.5)">e</text><text xml:space="preserve" font-family="Helvetica,Helvetica" font-size="56.0" fill="#E24A30" transform="matrix(1.00, 0.00, -0.00, -1.00, 525.0, 69.5)">p</text><text xml:space="preserve" font-family="Helvetica,Helvetica" font-size="56.0" fill="#E24A30" transform="matrix(1.00, 0.00, -0.00, -1.00, 556.2, 69.5)">t</text><text xml:space="preserve" font-family="Helvetica,Helvetica" font-size="56.0" fill="#E24A30" transform="matrix(1.00, 0.00, -0.00, -1.00, 571.7, 69.5)">i</text><text xml:space="preserve" font-family="Helvetica,Helvetica" font-size="56.0" fill="#E24A30" transform="matrix(1.00, 0.00, -0.00, -1.00, 584.2, 69.5)">o</text><text xml:space="preserve" font-family="Helvetica,Helvetica" font-size="56.0" fill="#E24A30" transform="matrix(1.00, 0.00, -0.00, -1.00, 615.3, 69.5)">n</text><text xml:space="preserve" font-family="Helvetica,Helvetica" font-size="56.0" fill="#FEFFFF" transform="matrix(1.00, 0.00, -0.00, -1.00, 646.4, 69.5)"> </text><text xml:space="preserve" font-family="Helvetica,Helvetica" font-size="56.0" fill="#FEFFFF" transform="matrix(1.00, 0.00, -0.00, -1.00, 2.1, 2.5)">r</text><text xml:space="preserve" font-family="Helvetica,Helvetica" font-size="56.0" fill="#FEFFFF" transform="matrix(1.00, 0.00, -0.00, -1.00, 20.7, 2.5)">a</text><text xml:space="preserve" font-family="Helvetica,Helvetica" font-size="56.0" fill="#FEFFFF" transform="matrix(1.00, 0.00, -0.00, -1.00, 51.9, 2.5)">t</text><text xml:space="preserve" font-family="Helvetica,Helvetica" font-size="56.0" fill="#FEFFFF" transform="matrix(1.00, 0.00, -0.00, -1.00, 67.4, 2.5)">h</text><text xml:space="preserve" font-family="Helvetica,Helvetica" font-size="56.0" fill="#FEFFFF" transform="matrix(1.00, 0.00, -0.00, -1.00, 98.6, 2.5)">e</text><text xml:space="preserve" font-family="Helvetica,Helvetica" font-size="56.0" fill="#FEFFFF" transform="matrix(1.00, 0.00, -0.00, -1.00, 129.7, 2.5)">r</text><text xml:space="preserve" font-family="Helvetica,Helvetica" font-size="56.0" fill="#FEFFFF" transform="matrix(1.00, 0.00, -0.00, -1.00, 148.4, 2.5)"> </text><text xml:space="preserve" font-family="Helvetica,Helvetica" font-size="56.0" fill="#FEFFFF" transform="matrix(1.00, 0.00, -0.00, -1.00, 163.9, 2.5)">t</text><text xml:space="preserve" font-family="Helvetica,Helvetica" font-size="56.0" fill="#FEFFFF" transform="matrix(1.00, 0.00, -0.00, -1.00, 179.5, 2.5)">h</text><text xml:space="preserve" font-family="Helvetica,Helvetica" font-size="56.0" fill="#FEFFFF" transform="matrix(1.00, 0.00, -0.00, -1.00, 210.6, 2.5)">a</text><text xml:space="preserve" font-family="Helvetica,Helvetica" font-size="56.0" fill="#FEFFFF" transform="matrix(1.00, 0.00, -0.00, -1.00, 241.8, 2.5)">n</text><text xml:space="preserve" font-family="Helvetica,Helvetica" font-size="56.0" fill="#FEFFFF" transform="matrix(1.00, 0.00, -0.00, -1.00, 272.9, 2.5)"> </text><text xml:space="preserve" font-family="Helvetica,Helvetica" font-size="56.0" fill="#FEFFFF" transform="matrix(1.00, 0.00, -0.00, -1.00, 288.5, 2.5)">t</text><text xml:space="preserve" font-family="Helvetica,Helvetica" font-size="56.0" fill="#FEFFFF" transform="matrix(1.00, 0.00, -0.00, -1.00, 304.0, 2.5)">h</text><text xml:space="preserve" font-family="Helvetica,Helvetica" font-size="56.0" fill="#FEFFFF" transform="matrix(1.00, 0.00, -0.00, -1.00, 335.2, 2.5)">e</text><text xml:space="preserve" font-family="Helvetica,Helvetica" font-size="56.0" fill="#FEFFFF" transform="matrix(1.00, 0.00, -0.00, -1.00, 366.3, 2.5)"> </text><text xml:space="preserve" font-family="Helvetica,Helvetica" font-size="56.0" fill="#FEFFFF" transform="matrix(1.00, 0.00, -0.00, -1.00, 381.9, 2.5)">r</text><text xml:space="preserve" font-family="Helvetica,Helvetica" font-size="56.0" fill="#FEFFFF" transform="matrix(1.00, 0.00, -0.00, -1.00, 400.5, 2.5)">u</text><text xml:space="preserve" font-family="Helvetica,Helvetica" font-size="56.0" fill="#FEFFFF" transform="matrix(1.00, 0.00, -0.00, -1.00, 431.7, 2.5)">l</text><text xml:space="preserve" font-family="Helvetica,Helvetica" font-size="56.0" fill="#FEFFFF" transform="matrix(1.00, 0.00, -0.00, -1.00, 444.1, 2.5)">e</text><text xml:space="preserve" font-family="Helvetica,Helvetica" font-size="56.0" fill="#FEFFFF" transform="matrix(1.00, 0.00, -0.00, -1.00, 475.3, 2.5)">.</text></g></svg>