<?xml version="1.0" encoding="UTF-8" standalone="no"?><svg xmlns="http://www.w3.org/2000/svg" xmlns:xlink="http://www.w3.org/1999/xlink" clip-rule="evenodd" stroke-miterlimit="10" viewBox="0 0 1920 1080"><desc>SVG generated by Keynote</desc><defs></defs><g transform="matrix(1.00, 0.00, -0.00, -1.00, 0.0, 1080.0)"><path d="M 0.0 1080.0 L 1920.0 1080.0 L 1920.0 0.0 L 0.0 0.0 Z M 0.0 1080.0 " fill="#52575F"></path><text xml:space="preserve" font-family="Courier,Courier" font-size="94.0" fill="#FEFFFF" transform="matrix(1.00, 0.00, -0.00, -1.00, 41.9, 992.4)">O</text><text xml:space="preserve" font-family="Courier,Courier" font-size="94.0" fill="#FEFFFF" transform="matrix(1.00, 0.00, -0.00, -1.00, 98.3, 992.4)">O</text><text xml:space="preserve" font-family="Courier,Courier" font-size="94.0" fill="#FEFFFF" transform="matrix(1.00, 0.00, -0.00, -1.00, 154.8, 992.4)">P</text><text xml:space="preserve" font-family="Courier,Courier" font-size="94.0" fill="#FEFFFF" transform="matrix(1.00, 0.00, -0.00, -1.00, 211.2, 992.4)">:</text><text xml:space="preserve" font-family="Courier,Courier" font-size="94.0" fill="#FEFFFF" transform="matrix(1.00, 0.00, -0.00, -1.00, 267.6, 992.4)"> </text><text xml:space="preserve" font-family="Courier,Courier" font-size="94.0" fill="#FEFFFF" transform="matrix(1.00, 0.00, -0.00, -1.00, 324.0, 992.4)">L</text><text xml:space="preserve" font-family="Courier,Courier" font-size="94.0" fill="#FEFFFF" transform="matrix(1.00, 0.00, -0.00, -1.00, 380.4, 992.4)">i</text><text xml:space="preserve" font-family="Courier,Courier" font-size="94.0" fill="#FEFFFF" transform="matrix(1.00, 0.00, -0.00, -1.00, 436.8, 992.4)">s</text><text xml:space="preserve" font-family="Courier,Courier" font-size="94.0" fill="#FEFFFF" transform="matrix(1.00, 0.00, -0.00, -1.00, 493.3, 992.4)">t</text><text xml:space="preserve" font-family="Courier,Courier" font-size="94.0" fill="#FEFFFF" transform="matrix(1.00, 0.00, -0.00, -1.00, 549.7, 992.4)"> </text><text xml:space="preserve" font-family="Courier,Courier" font-size="94.0" fill="#FEFFFF" transform="matrix(1.00, 0.00, -0.00, -1.00, 606.1, 992.4)">o</text><text xml:space="preserve" font-family="Courier,Courier" font-size="94.0" fill="#FEFFFF" transform="matrix(1.00, 0.00, -0.00, -1.00, 662.5, 992.4)">f</text><text xml:space="preserve" font-family="Courier,Courier" font-size="94.0" fill="#FEFFFF" transform="matrix(1.00, 0.00, -0.00, -1.00, 718.9, 992.4)"> </text><text xml:space="preserve" font-family="Courier,Courier" font-size="94.0" fill="#FEFFFF" transform="matrix(1.00, 0.00, -0.00, -1.00, 775.4, 992.4)">g</text><text xml:space="preserve" font-family="Courier,Courier" font-size="94.0" fill="#FEFFFF" transform="matrix(1.00, 0.00, -0.00, -1.00, 831.8, 992.4)">o</text><text xml:space="preserve" font-family="Courier,Courier" font-size="94.0" fill="#FEFFFF" transform="matrix(1.00, 0.00, -0.00, -1.00, 888.2, 992.4)">r</text><text xml:space="preserve" font-family="Courier,Courier" font-size="94.0" fill="#FEFFFF" transform="matrix(1.00, 0.00, -0.00, -1.00, 944.6, 992.4)">i</text><text xml:space="preserve" font-family="Courier,Courier" font-size="94.0" fill="#FEFFFF" transform="matrix(1.00, 0.00, -0.00, -1.00, 1001.0, 992.4)">l</text><text xml:space="preserve" font-family="Courier,Courier" font-size="94.0" fill="#FEFFFF" transform="matrix(1.00, 0.00, -0.00, -1.00, 1057.5, 992.4)">l</text><text xml:space="preserve" font-family="Courier,Courier" font-size="94.0" fill="#FEFFFF" transform="matrix(1.00, 0.00, -0.00, -1.00, 1113.9, 992.4)">a</text><text xml:space="preserve" font-family="Courier,Courier" font-size="94.0" fill="#FEFFFF" transform="matrix(1.00, 0.00, -0.00, -1.00, 1170.3, 992.4)">s</text></g></svg>