<?xml version="1.0" encoding="UTF-8" standalone="no"?><svg xmlns="http://www.w3.org/2000/svg" xmlns:xlink="http://www.w3.org/1999/xlink" clip-rule="evenodd" stroke-miterlimit="10" viewBox="0 0 872 497"><desc>SVG generated by Keynote</desc><defs></defs><g transform="matrix(1.00, 0.00, -0.00, -1.00, 0.0, 497.0)"><path d="M 0.5 0.5 L 863.5 0.5 L 863.5 489.5 L 0.5 489.5 Z M 0.0 0.0 " fill="none" stroke="#961817" stroke-width="5.00" transform="matrix(1.00, 0.00, 0.00, -1.00, 4.0, 493.0)"></path><g><clipPath id="clip0x7fbff547e230"><path d="M 1.4 1.1 L 1701.7 1.1 L 1701.7 495.6 L 1.4 495.6 Z M 1.4 1.1 "></path></clipPath><g clip-path="url(#clip0x7fbff547e230)"><text xml:space="preserve" font-family="Menlo-Regular,Menlo" font-size="37.0" fill="#C1339A" transform="matrix(1.00, 0.00, -0.00, -1.00, 12.1, 450.6)">s</text><text xml:space="preserve" font-family="Menlo-Regular,Menlo" font-size="37.0" fill="#C1339A" transform="matrix(1.00, 0.00, -0.00, -1.00, 34.4, 450.6)">t</text><text xml:space="preserve" font-family="Menlo-Regular,Menlo" font-size="37.0" fill="#C1339A" transform="matrix(1.00, 0.00, -0.00, -1.00, 56.7, 450.6)">r</text><text xml:space="preserve" font-family="Menlo-Regular,Menlo" font-size="37.0" fill="#C1339A" transform="matrix(1.00, 0.00, -0.00, -1.00, 79.0, 450.6)">u</text><text xml:space="preserve" font-family="Menlo-Regular,Menlo" font-size="37.0" fill="#C1339A" transform="matrix(1.00, 0.00, -0.00, -1.00, 101.2, 450.6)">c</text><text xml:space="preserve" font-family="Menlo-Regular,Menlo" font-size="37.0" fill="#C1339A" transform="matrix(1.00, 0.00, -0.00, -1.00, 123.5, 450.6)">t</text><text xml:space="preserve" font-family="Menlo-Regular,Menlo" font-size="37.0" fill="#FFFFFF" transform="matrix(1.00, 0.00, -0.00, -1.00, 145.8, 450.6)"> </text><text xml:space="preserve" font-family="Menlo-Regular,Menlo" font-size="37.0" fill="#FFFFFF" transform="matrix(1.00, 0.00, -0.00, -1.00, 168.1, 450.6)">E</text><text xml:space="preserve" font-family="Menlo-Regular,Menlo" font-size="37.0" fill="#FFFFFF" transform="matrix(1.00, 0.00, -0.00, -1.00, 190.3, 450.6)">q</text><text xml:space="preserve" font-family="Menlo-Regular,Menlo" font-size="37.0" fill="#FFFFFF" transform="matrix(1.00, 0.00, -0.00, -1.00, 212.6, 450.6)">u</text><text xml:space="preserve" font-family="Menlo-Regular,Menlo" font-size="37.0" fill="#FFFFFF" transform="matrix(1.00, 0.00, -0.00, -1.00, 234.9, 450.6)">i</text><text xml:space="preserve" font-family="Menlo-Regular,Menlo" font-size="37.0" fill="#FFFFFF" transform="matrix(1.00, 0.00, -0.00, -1.00, 257.2, 450.6)">l</text><text xml:space="preserve" font-family="Menlo-Regular,Menlo" font-size="37.0" fill="#FFFFFF" transform="matrix(1.00, 0.00, -0.00, -1.00, 279.5, 450.6)">a</text><text xml:space="preserve" font-family="Menlo-Regular,Menlo" font-size="37.0" fill="#FFFFFF" transform="matrix(1.00, 0.00, -0.00, -1.00, 301.7, 450.6)">t</text><text xml:space="preserve" font-family="Menlo-Regular,Menlo" font-size="37.0" fill="#FFFFFF" transform="matrix(1.00, 0.00, -0.00, -1.00, 324.0, 450.6)">e</text><text xml:space="preserve" font-family="Menlo-Regular,Menlo" font-size="37.0" fill="#FFFFFF" transform="matrix(1.00, 0.00, -0.00, -1.00, 346.3, 450.6)">r</text><text xml:space="preserve" font-family="Menlo-Regular,Menlo" font-size="37.0" fill="#FFFFFF" transform="matrix(1.00, 0.00, -0.00, -1.00, 368.6, 450.6)">a</text><text xml:space="preserve" font-family="Menlo-Regular,Menlo" font-size="37.0" fill="#FFFFFF" transform="matrix(1.00, 0.00, -0.00, -1.00, 390.9, 450.6)">l</text><text xml:space="preserve" font-family="Menlo-Regular,Menlo" font-size="37.0" fill="#FFFFFF" transform="matrix(1.00, 0.00, -0.00, -1.00, 413.1, 450.6)">T</text><text xml:space="preserve" font-family="Menlo-Regular,Menlo" font-size="37.0" fill="#FFFFFF" transform="matrix(1.00, 0.00, -0.00, -1.00, 435.4, 450.6)">r</text><text xml:space="preserve" font-family="Menlo-Regular,Menlo" font-size="37.0" fill="#FFFFFF" transform="matrix(1.00, 0.00, -0.00, -1.00, 457.7, 450.6)">i</text><text xml:space="preserve" font-family="Menlo-Regular,Menlo" font-size="37.0" fill="#FFFFFF" transform="matrix(1.00, 0.00, -0.00, -1.00, 480.0, 450.6)">a</text><text xml:space="preserve" font-family="Menlo-Regular,Menlo" font-size="37.0" fill="#FFFFFF" transform="matrix(1.00, 0.00, -0.00, -1.00, 502.2, 450.6)">n</text><text xml:space="preserve" font-family="Menlo-Regular,Menlo" font-size="37.0" fill="#FFFFFF" transform="matrix(1.00, 0.00, -0.00, -1.00, 524.5, 450.6)">g</text><text xml:space="preserve" font-family="Menlo-Regular,Menlo" font-size="37.0" fill="#FFFFFF" transform="matrix(1.00, 0.00, -0.00, -1.00, 546.8, 450.6)">l</text><text xml:space="preserve" font-family="Menlo-Regular,Menlo" font-size="37.0" fill="#FFFFFF" transform="matrix(1.00, 0.00, -0.00, -1.00, 569.1, 450.6)">e</text><text xml:space="preserve" font-family="Menlo-Regular,Menlo" font-size="37.0" fill="#FFFFFF" transform="matrix(1.00, 0.00, -0.00, -1.00, 591.4, 450.6)"> </text><text xml:space="preserve" font-family="Menlo-Regular,Menlo" font-size="37.0" fill="#FFFFFF" transform="matrix(1.00, 0.00, -0.00, -1.00, 613.6, 450.6)">{</text><text xml:space="preserve" font-family="Menlo-Regular,Menlo" font-size="37.0" fill="#FFFFFF" transform="matrix(1.00, 0.00, -0.00, -1.00, 635.9, 450.6)"> </text><text xml:space="preserve" font-family="Menlo-Regular,Menlo" font-size="37.0" fill="#FFFFFF" transform="matrix(1.00, 0.00, -0.00, -1.00, 12.1, 407.6)"> </text><text xml:space="preserve" font-family="Menlo-Regular,Menlo" font-size="37.0" fill="#FFFFFF" transform="matrix(1.00, 0.00, -0.00, -1.00, 34.4, 407.6)"> </text><text xml:space="preserve" font-family="Menlo-Regular,Menlo" font-size="37.0" fill="#FFFFFF" transform="matrix(1.00, 0.00, -0.00, -1.00, 56.7, 407.6)"> </text><text xml:space="preserve" font-family="Menlo-Regular,Menlo" font-size="37.0" fill="#FFFFFF" transform="matrix(1.00, 0.00, -0.00, -1.00, 79.0, 407.6)"> </text><text xml:space="preserve" font-family="Menlo-Regular,Menlo" font-size="37.0" fill="#C1339A" transform="matrix(1.00, 0.00, -0.00, -1.00, 101.2, 407.6)">v</text><text xml:space="preserve" font-family="Menlo-Regular,Menlo" font-size="37.0" fill="#C1339A" transform="matrix(1.00, 0.00, -0.00, -1.00, 123.5, 407.6)">a</text><text xml:space="preserve" font-family="Menlo-Regular,Menlo" font-size="37.0" fill="#C1339A" transform="matrix(1.00, 0.00, -0.00, -1.00, 145.8, 407.6)">r</text><text xml:space="preserve" font-family="Menlo-Regular,Menlo" font-size="37.0" fill="#FFFFFF" transform="matrix(1.00, 0.00, -0.00, -1.00, 168.1, 407.6)"> </text><text xml:space="preserve" font-family="Menlo-Regular,Menlo" font-size="37.0" fill="#FFFFFF" transform="matrix(1.00, 0.00, -0.00, -1.00, 190.3, 407.6)">l</text><text xml:space="preserve" font-family="Menlo-Regular,Menlo" font-size="37.0" fill="#FFFFFF" transform="matrix(1.00, 0.00, -0.00, -1.00, 212.6, 407.6)">e</text><text xml:space="preserve" font-family="Menlo-Regular,Menlo" font-size="37.0" fill="#FFFFFF" transform="matrix(1.00, 0.00, -0.00, -1.00, 234.9, 407.6)">n</text><text xml:space="preserve" font-family="Menlo-Regular,Menlo" font-size="37.0" fill="#FFFFFF" transform="matrix(1.00, 0.00, -0.00, -1.00, 257.2, 407.6)">g</text><text xml:space="preserve" font-family="Menlo-Regular,Menlo" font-size="37.0" fill="#FFFFFF" transform="matrix(1.00, 0.00, -0.00, -1.00, 279.4, 407.6)">t</text><text xml:space="preserve" font-family="Menlo-Regular,Menlo" font-size="37.0" fill="#FFFFFF" transform="matrix(1.00, 0.00, -0.00, -1.00, 301.7, 407.6)">h</text><text xml:space="preserve" font-family="Menlo-Regular,Menlo" font-size="37.0" fill="#FFFFFF" transform="matrix(1.00, 0.00, -0.00, -1.00, 324.0, 407.6)">:</text><text xml:space="preserve" font-family="Menlo-Regular,Menlo" font-size="37.0" fill="#FFFFFF" transform="matrix(1.00, 0.00, -0.00, -1.00, 346.3, 407.6)"> </text><text xml:space="preserve" font-family="Menlo-Regular,Menlo" font-size="37.0" fill="#00AFC9" transform="matrix(1.00, 0.00, -0.00, -1.00, 368.5, 407.6)">I</text><text xml:space="preserve" font-family="Menlo-Regular,Menlo" font-size="37.0" fill="#00AFC9" transform="matrix(1.00, 0.00, -0.00, -1.00, 390.8, 407.6)">n</text><text xml:space="preserve" font-family="Menlo-Regular,Menlo" font-size="37.0" fill="#00AFC9" transform="matrix(1.00, 0.00, -0.00, -1.00, 413.1, 407.6)">t</text><text xml:space="preserve" font-family="Menlo-Regular,Menlo" font-size="37.0" fill="#FFFFFF" transform="matrix(1.00, 0.00, -0.00, -1.00, 435.4, 407.6)"> </text><text xml:space="preserve" font-family="Menlo-Regular,Menlo" font-size="37.0" fill="#FFFFFF" transform="matrix(1.00, 0.00, -0.00, -1.00, 457.6, 407.6)">=</text><text xml:space="preserve" font-family="Menlo-Regular,Menlo" font-size="37.0" fill="#FFFFFF" transform="matrix(1.00, 0.00, -0.00, -1.00, 479.9, 407.6)"> </text><text xml:space="preserve" font-family="Menlo-Regular,Menlo" font-size="37.0" fill="#8B83CE" transform="matrix(1.00, 0.00, -0.00, -1.00, 502.2, 407.6)">0</text><text xml:space="preserve" font-family="Menlo-Regular,Menlo" font-size="37.0" fill="#FFFFFF" transform="matrix(1.00, 0.00, -0.00, -1.00, 524.5, 407.6)"> </text><text xml:space="preserve" font-family="Menlo-Regular,Menlo" font-size="37.0" fill="#FFFFFF" transform="matrix(1.00, 0.00, -0.00, -1.00, 12.1, 364.6)">}</text><text xml:space="preserve" font-family="Menlo-Regular,Menlo" font-size="37.0" fill="#FFFFFF" transform="matrix(1.00, 0.00, -0.00, -1.00, 34.4, 364.6)"> </text><text xml:space="preserve" font-family="Menlo-Regular,Menlo" font-size="37.0" fill="#C1339A" transform="matrix(1.00, 0.00, -0.00, -1.00, 12.1, 278.6)">v</text><text xml:space="preserve" font-family="Menlo-Regular,Menlo" font-size="37.0" fill="#C1339A" transform="matrix(1.00, 0.00, -0.00, -1.00, 34.4, 278.6)">a</text><text xml:space="preserve" font-family="Menlo-Regular,Menlo" font-size="37.0" fill="#C1339A" transform="matrix(1.00, 0.00, -0.00, -1.00, 56.7, 278.6)">r</text><text xml:space="preserve" font-family="Menlo-Regular,Menlo" font-size="37.0" fill="#FFFFFF" transform="matrix(1.00, 0.00, -0.00, -1.00, 78.9, 278.6)"> </text><text xml:space="preserve" font-family="Menlo-Regular,Menlo" font-size="37.0" fill="#FFFFFF" transform="matrix(1.00, 0.00, -0.00, -1.00, 101.2, 278.6)">t</text><text xml:space="preserve" font-family="Menlo-Regular,Menlo" font-size="37.0" fill="#FFFFFF" transform="matrix(1.00, 0.00, -0.00, -1.00, 123.5, 278.6)">r</text><text xml:space="preserve" font-family="Menlo-Regular,Menlo" font-size="37.0" fill="#FFFFFF" transform="matrix(1.00, 0.00, -0.00, -1.00, 145.8, 278.6)">i</text><text xml:space="preserve" font-family="Menlo-Regular,Menlo" font-size="37.0" fill="#FFFFFF" transform="matrix(1.00, 0.00, -0.00, -1.00, 168.1, 278.6)">1</text><text xml:space="preserve" font-family="Menlo-Regular,Menlo" font-size="37.0" fill="#FFFFFF" transform="matrix(1.00, 0.00, -0.00, -1.00, 190.3, 278.6)"> </text><text xml:space="preserve" font-family="Menlo-Regular,Menlo" font-size="37.0" fill="#FFFFFF" transform="matrix(1.00, 0.00, -0.00, -1.00, 212.6, 278.6)">=</text><text xml:space="preserve" font-family="Menlo-Regular,Menlo" font-size="37.0" fill="#FFFFFF" transform="matrix(1.00, 0.00, -0.00, -1.00, 234.9, 278.6)"> </text><text xml:space="preserve" font-family="Menlo-Regular,Menlo" font-size="37.0" fill="#93C869" transform="matrix(1.00, 0.00, -0.00, -1.00, 257.2, 278.6)">E</text><text xml:space="preserve" font-family="Menlo-Regular,Menlo" font-size="37.0" fill="#93C869" transform="matrix(1.00, 0.00, -0.00, -1.00, 279.4, 278.6)">q</text><text xml:space="preserve" font-family="Menlo-Regular,Menlo" font-size="37.0" fill="#93C869" transform="matrix(1.00, 0.00, -0.00, -1.00, 301.7, 278.6)">u</text><text xml:space="preserve" font-family="Menlo-Regular,Menlo" font-size="37.0" fill="#93C869" transform="matrix(1.00, 0.00, -0.00, -1.00, 324.0, 278.6)">i</text><text xml:space="preserve" font-family="Menlo-Regular,Menlo" font-size="37.0" fill="#93C869" transform="matrix(1.00, 0.00, -0.00, -1.00, 346.3, 278.6)">l</text><text xml:space="preserve" font-family="Menlo-Regular,Menlo" font-size="37.0" fill="#93C869" transform="matrix(1.00, 0.00, -0.00, -1.00, 368.6, 278.6)">a</text><text xml:space="preserve" font-family="Menlo-Regular,Menlo" font-size="37.0" fill="#93C869" transform="matrix(1.00, 0.00, -0.00, -1.00, 390.8, 278.6)">t</text><text xml:space="preserve" font-family="Menlo-Regular,Menlo" font-size="37.0" fill="#93C869" transform="matrix(1.00, 0.00, -0.00, -1.00, 413.1, 278.6)">e</text><text xml:space="preserve" font-family="Menlo-Regular,Menlo" font-size="37.0" fill="#93C869" transform="matrix(1.00, 0.00, -0.00, -1.00, 435.4, 278.6)">r</text><text xml:space="preserve" font-family="Menlo-Regular,Menlo" font-size="37.0" fill="#93C869" transform="matrix(1.00, 0.00, -0.00, -1.00, 457.7, 278.6)">a</text><text xml:space="preserve" font-family="Menlo-Regular,Menlo" font-size="37.0" fill="#93C869" transform="matrix(1.00, 0.00, -0.00, -1.00, 480.0, 278.6)">l</text><text xml:space="preserve" font-family="Menlo-Regular,Menlo" font-size="37.0" fill="#93C869" transform="matrix(1.00, 0.00, -0.00, -1.00, 502.2, 278.6)">T</text><text xml:space="preserve" font-family="Menlo-Regular,Menlo" font-size="37.0" fill="#93C869" transform="matrix(1.00, 0.00, -0.00, -1.00, 524.5, 278.6)">r</text><text xml:space="preserve" font-family="Menlo-Regular,Menlo" font-size="37.0" fill="#93C869" transform="matrix(1.00, 0.00, -0.00, -1.00, 546.8, 278.6)">i</text><text xml:space="preserve" font-family="Menlo-Regular,Menlo" font-size="37.0" fill="#93C869" transform="matrix(1.00, 0.00, -0.00, -1.00, 569.1, 278.6)">a</text><text xml:space="preserve" font-family="Menlo-Regular,Menlo" font-size="37.0" fill="#93C869" transform="matrix(1.00, 0.00, -0.00, -1.00, 591.3, 278.6)">n</text><text xml:space="preserve" font-family="Menlo-Regular,Menlo" font-size="37.0" fill="#93C869" transform="matrix(1.00, 0.00, -0.00, -1.00, 613.6, 278.6)">g</text><text xml:space="preserve" font-family="Menlo-Regular,Menlo" font-size="37.0" fill="#93C869" transform="matrix(1.00, 0.00, -0.00, -1.00, 635.9, 278.6)">l</text><text xml:space="preserve" font-family="Menlo-Regular,Menlo" font-size="37.0" fill="#93C869" transform="matrix(1.00, 0.00, -0.00, -1.00, 658.2, 278.6)">e</text><text xml:space="preserve" font-family="Menlo-Regular,Menlo" font-size="37.0" fill="#FFFFFF" transform="matrix(1.00, 0.00, -0.00, -1.00, 680.4, 278.6)">(</text><text xml:space="preserve" font-family="Menlo-Regular,Menlo" font-size="37.0" fill="#FFFFFF" transform="matrix(1.00, 0.00, -0.00, -1.00, 702.7, 278.6)">)</text><text xml:space="preserve" font-family="Menlo-Regular,Menlo" font-size="37.0" fill="#FFFFFF" transform="matrix(1.00, 0.00, -0.00, -1.00, 725.0, 278.6)"> </text><text xml:space="preserve" font-family="Menlo-Regular,Menlo" font-size="37.0" fill="#93C869" transform="matrix(1.00, 0.00, -0.00, -1.00, 12.1, 235.6)">t</text><text xml:space="preserve" font-family="Menlo-Regular,Menlo" font-size="37.0" fill="#93C869" transform="matrix(1.00, 0.00, -0.00, -1.00, 34.4, 235.6)">r</text><text xml:space="preserve" font-family="Menlo-Regular,Menlo" font-size="37.0" fill="#93C869" transform="matrix(1.00, 0.00, -0.00, -1.00, 56.7, 235.6)">i</text><text xml:space="preserve" font-family="Menlo-Regular,Menlo" font-size="37.0" fill="#93C869" transform="matrix(1.00, 0.00, -0.00, -1.00, 79.0, 235.6)">1</text><text xml:space="preserve" font-family="Menlo-Regular,Menlo" font-size="37.0" fill="#FFFFFF" transform="matrix(1.00, 0.00, -0.00, -1.00, 101.2, 235.6)">.</text><text xml:space="preserve" font-family="Menlo-Regular,Menlo" font-size="37.0" fill="#93C869" transform="matrix(1.00, 0.00, -0.00, -1.00, 123.5, 235.6)">l</text><text xml:space="preserve" font-family="Menlo-Regular,Menlo" font-size="37.0" fill="#93C869" transform="matrix(1.00, 0.00, -0.00, -1.00, 145.8, 235.6)">e</text><text xml:space="preserve" font-family="Menlo-Regular,Menlo" font-size="37.0" fill="#93C869" transform="matrix(1.00, 0.00, -0.00, -1.00, 168.1, 235.6)">n</text><text xml:space="preserve" font-family="Menlo-Regular,Menlo" font-size="37.0" fill="#93C869" transform="matrix(1.00, 0.00, -0.00, -1.00, 190.3, 235.6)">g</text><text xml:space="preserve" font-family="Menlo-Regular,Menlo" font-size="37.0" fill="#93C869" transform="matrix(1.00, 0.00, -0.00, -1.00, 212.6, 235.6)">t</text><text xml:space="preserve" font-family="Menlo-Regular,Menlo" font-size="37.0" fill="#93C869" transform="matrix(1.00, 0.00, -0.00, -1.00, 234.9, 235.6)">h</text><text xml:space="preserve" font-family="Menlo-Regular,Menlo" font-size="37.0" fill="#FFFFFF" transform="matrix(1.00, 0.00, -0.00, -1.00, 257.2, 235.6)"> </text><text xml:space="preserve" font-family="Menlo-Regular,Menlo" font-size="37.0" fill="#FFFFFF" transform="matrix(1.00, 0.00, -0.00, -1.00, 279.4, 235.6)">=</text><text xml:space="preserve" font-family="Menlo-Regular,Menlo" font-size="37.0" fill="#FFFFFF" transform="matrix(1.00, 0.00, -0.00, -1.00, 301.7, 235.6)"> </text><text xml:space="preserve" font-family="Menlo-Regular,Menlo" font-size="37.0" fill="#8B83CE" transform="matrix(1.00, 0.00, -0.00, -1.00, 324.0, 235.6)">1</text><text xml:space="preserve" font-family="Menlo-Regular,Menlo" font-size="37.0" fill="#8B83CE" transform="matrix(1.00, 0.00, -0.00, -1.00, 346.3, 235.6)">0</text><text xml:space="preserve" font-family="Menlo-Regular,Menlo" font-size="37.0" fill="#FFFFFF" transform="matrix(1.00, 0.00, -0.00, -1.00, 368.5, 235.6)"> </text><text xml:space="preserve" font-family="Menlo-Regular,Menlo" font-size="37.0" fill="#C1339A" transform="matrix(1.00, 0.00, -0.00, -1.00, 12.1, 192.6)">v</text><text xml:space="preserve" font-family="Menlo-Regular,Menlo" font-size="37.0" fill="#C1339A" transform="matrix(1.00, 0.00, -0.00, -1.00, 34.4, 192.6)">a</text><text xml:space="preserve" font-family="Menlo-Regular,Menlo" font-size="37.0" fill="#C1339A" transform="matrix(1.00, 0.00, -0.00, -1.00, 56.7, 192.6)">r</text><text xml:space="preserve" font-family="Menlo-Regular,Menlo" font-size="37.0" fill="#FFFFFF" transform="matrix(1.00, 0.00, -0.00, -1.00, 78.9, 192.6)"> </text><text xml:space="preserve" font-family="Menlo-Regular,Menlo" font-size="37.0" fill="#FFFFFF" transform="matrix(1.00, 0.00, -0.00, -1.00, 101.2, 192.6)">t</text><text xml:space="preserve" font-family="Menlo-Regular,Menlo" font-size="37.0" fill="#FFFFFF" transform="matrix(1.00, 0.00, -0.00, -1.00, 123.5, 192.6)">r</text><text xml:space="preserve" font-family="Menlo-Regular,Menlo" font-size="37.0" fill="#FFFFFF" transform="matrix(1.00, 0.00, -0.00, -1.00, 145.8, 192.6)">i</text><text xml:space="preserve" font-family="Menlo-Regular,Menlo" font-size="37.0" fill="#FFFFFF" transform="matrix(1.00, 0.00, -0.00, -1.00, 168.1, 192.6)">2</text><text xml:space="preserve" font-family="Menlo-Regular,Menlo" font-size="37.0" fill="#FFFFFF" transform="matrix(1.00, 0.00, -0.00, -1.00, 190.3, 192.6)"> </text><text xml:space="preserve" font-family="Menlo-Regular,Menlo" font-size="37.0" fill="#FFFFFF" transform="matrix(1.00, 0.00, -0.00, -1.00, 212.6, 192.6)">=</text><text xml:space="preserve" font-family="Menlo-Regular,Menlo" font-size="37.0" fill="#FFFFFF" transform="matrix(1.00, 0.00, -0.00, -1.00, 234.9, 192.6)"> </text><text xml:space="preserve" font-family="Menlo-Regular,Menlo" font-size="37.0" fill="#93C869" transform="matrix(1.00, 0.00, -0.00, -1.00, 257.2, 192.6)">t</text><text xml:space="preserve" font-family="Menlo-Regular,Menlo" font-size="37.0" fill="#93C869" transform="matrix(1.00, 0.00, -0.00, -1.00, 279.4, 192.6)">r</text><text xml:space="preserve" font-family="Menlo-Regular,Menlo" font-size="37.0" fill="#93C869" transform="matrix(1.00, 0.00, -0.00, -1.00, 301.7, 192.6)">i</text><text xml:space="preserve" font-family="Menlo-Regular,Menlo" font-size="37.0" fill="#93C869" transform="matrix(1.00, 0.00, -0.00, -1.00, 324.0, 192.6)">1</text><text xml:space="preserve" font-family="Menlo-Regular,Menlo" font-size="37.0" fill="#FFFFFF" transform="matrix(1.00, 0.00, -0.00, -1.00, 346.3, 192.6)"> </text><text xml:space="preserve" font-family="Menlo-Regular,Menlo" font-size="37.0" fill="#93C869" transform="matrix(1.00, 0.00, -0.00, -1.00, 12.1, 149.6)">t</text><text xml:space="preserve" font-family="Menlo-Regular,Menlo" font-size="37.0" fill="#93C869" transform="matrix(1.00, 0.00, -0.00, -1.00, 34.4, 149.6)">r</text><text xml:space="preserve" font-family="Menlo-Regular,Menlo" font-size="37.0" fill="#93C869" transform="matrix(1.00, 0.00, -0.00, -1.00, 56.7, 149.6)">i</text><text xml:space="preserve" font-family="Menlo-Regular,Menlo" font-size="37.0" fill="#93C869" transform="matrix(1.00, 0.00, -0.00, -1.00, 79.0, 149.6)">2</text><text xml:space="preserve" font-family="Menlo-Regular,Menlo" font-size="37.0" fill="#FFFFFF" transform="matrix(1.00, 0.00, -0.00, -1.00, 101.2, 149.6)">.</text><text xml:space="preserve" font-family="Menlo-Regular,Menlo" font-size="37.0" fill="#93C869" transform="matrix(1.00, 0.00, -0.00, -1.00, 123.5, 149.6)">l</text><text xml:space="preserve" font-family="Menlo-Regular,Menlo" font-size="37.0" fill="#93C869" transform="matrix(1.00, 0.00, -0.00, -1.00, 145.8, 149.6)">e</text><text xml:space="preserve" font-family="Menlo-Regular,Menlo" font-size="37.0" fill="#93C869" transform="matrix(1.00, 0.00, -0.00, -1.00, 168.1, 149.6)">n</text><text xml:space="preserve" font-family="Menlo-Regular,Menlo" font-size="37.0" fill="#93C869" transform="matrix(1.00, 0.00, -0.00, -1.00, 190.3, 149.6)">g</text><text xml:space="preserve" font-family="Menlo-Regular,Menlo" font-size="37.0" fill="#93C869" transform="matrix(1.00, 0.00, -0.00, -1.00, 212.6, 149.6)">t</text><text xml:space="preserve" font-family="Menlo-Regular,Menlo" font-size="37.0" fill="#93C869" transform="matrix(1.00, 0.00, -0.00, -1.00, 234.9, 149.6)">h</text><text xml:space="preserve" font-family="Menlo-Regular,Menlo" font-size="37.0" fill="#FFFFFF" transform="matrix(1.00, 0.00, -0.00, -1.00, 257.2, 149.6)"> </text><text xml:space="preserve" font-family="Menlo-Regular,Menlo" font-size="37.0" fill="#FFFFFF" transform="matrix(1.00, 0.00, -0.00, -1.00, 279.4, 149.6)">=</text><text xml:space="preserve" font-family="Menlo-Regular,Menlo" font-size="37.0" fill="#FFFFFF" transform="matrix(1.00, 0.00, -0.00, -1.00, 301.7, 149.6)"> </text><text xml:space="preserve" font-family="Menlo-Regular,Menlo" font-size="37.0" fill="#8B83CE" transform="matrix(1.00, 0.00, -0.00, -1.00, 324.0, 149.6)">1</text><text xml:space="preserve" font-family="Menlo-Regular,Menlo" font-size="37.0" fill="#8B83CE" transform="matrix(1.00, 0.00, -0.00, -1.00, 346.3, 149.6)">2</text><text xml:space="preserve" font-family="Menlo-Regular,Menlo" font-size="37.0" fill="#FFFFFF" transform="matrix(1.00, 0.00, -0.00, -1.00, 368.5, 149.6)"> </text><text xml:space="preserve" font-family="Menlo-Regular,Menlo" font-size="37.0" fill="#00AFC9" transform="matrix(1.00, 0.00, -0.00, -1.00, 12.1, 63.6)">p</text><text xml:space="preserve" font-family="Menlo-Regular,Menlo" font-size="37.0" fill="#00AFC9" transform="matrix(1.00, 0.00, -0.00, -1.00, 34.4, 63.6)">r</text><text xml:space="preserve" font-family="Menlo-Regular,Menlo" font-size="37.0" fill="#00AFC9" transform="matrix(1.00, 0.00, -0.00, -1.00, 56.7, 63.6)">i</text><text xml:space="preserve" font-family="Menlo-Regular,Menlo" font-size="37.0" fill="#00AFC9" transform="matrix(1.00, 0.00, -0.00, -1.00, 79.0, 63.6)">n</text><text xml:space="preserve" font-family="Menlo-Regular,Menlo" font-size="37.0" fill="#00AFC9" transform="matrix(1.00, 0.00, -0.00, -1.00, 101.2, 63.6)">t</text><text xml:space="preserve" font-family="Menlo-Regular,Menlo" font-size="37.0" fill="#FFFFFF" transform="matrix(1.00, 0.00, -0.00, -1.00, 123.5, 63.6)">(</text><text xml:space="preserve" font-family="Menlo-Regular,Menlo" font-size="37.0" fill="#E44347" transform="matrix(1.00, 0.00, -0.00, -1.00, 145.8, 63.6)">"</text><text xml:space="preserve" font-family="Menlo-Regular,Menlo" font-size="37.0" fill="#E44347" transform="matrix(1.00, 0.00, -0.00, -1.00, 168.1, 63.6)">T</text><text xml:space="preserve" font-family="Menlo-Regular,Menlo" font-size="37.0" fill="#E44347" transform="matrix(1.00, 0.00, -0.00, -1.00, 190.3, 63.6)">r</text><text xml:space="preserve" font-family="Menlo-Regular,Menlo" font-size="37.0" fill="#E44347" transform="matrix(1.00, 0.00, -0.00, -1.00, 212.6, 63.6)">i</text><text xml:space="preserve" font-family="Menlo-Regular,Menlo" font-size="37.0" fill="#E44347" transform="matrix(1.00, 0.00, -0.00, -1.00, 234.9, 63.6)">1</text><text xml:space="preserve" font-family="Menlo-Regular,Menlo" font-size="37.0" fill="#E44347" transform="matrix(1.00, 0.00, -0.00, -1.00, 257.2, 63.6)">'</text><text xml:space="preserve" font-family="Menlo-Regular,Menlo" font-size="37.0" fill="#E44347" transform="matrix(1.00, 0.00, -0.00, -1.00, 279.5, 63.6)">s</text><text xml:space="preserve" font-family="Menlo-Regular,Menlo" font-size="37.0" fill="#E44347" transform="matrix(1.00, 0.00, -0.00, -1.00, 301.7, 63.6)"> </text><text xml:space="preserve" font-family="Menlo-Regular,Menlo" font-size="37.0" fill="#E44347" transform="matrix(1.00, 0.00, -0.00, -1.00, 324.0, 63.6)">l</text><text xml:space="preserve" font-family="Menlo-Regular,Menlo" font-size="37.0" fill="#E44347" transform="matrix(1.00, 0.00, -0.00, -1.00, 346.3, 63.6)">e</text><text xml:space="preserve" font-family="Menlo-Regular,Menlo" font-size="37.0" fill="#E44347" transform="matrix(1.00, 0.00, -0.00, -1.00, 368.6, 63.6)">n</text><text xml:space="preserve" font-family="Menlo-Regular,Menlo" font-size="37.0" fill="#E44347" transform="matrix(1.00, 0.00, -0.00, -1.00, 390.9, 63.6)">g</text><text xml:space="preserve" font-family="Menlo-Regular,Menlo" font-size="37.0" fill="#E44347" transform="matrix(1.00, 0.00, -0.00, -1.00, 413.1, 63.6)">t</text><text xml:space="preserve" font-family="Menlo-Regular,Menlo" font-size="37.0" fill="#E44347" transform="matrix(1.00, 0.00, -0.00, -1.00, 435.4, 63.6)">h</text><text xml:space="preserve" font-family="Menlo-Regular,Menlo" font-size="37.0" fill="#E44347" transform="matrix(1.00, 0.00, -0.00, -1.00, 457.7, 63.6)"> </text><text xml:space="preserve" font-family="Menlo-Regular,Menlo" font-size="37.0" fill="#FFFFFF" transform="matrix(1.00, 0.00, -0.00, -1.00, 479.9, 63.6)">\</text><text xml:space="preserve" font-family="Menlo-Regular,Menlo" font-size="37.0" fill="#E44347" transform="matrix(1.00, 0.00, -0.00, -1.00, 502.2, 63.6)">(</text><text xml:space="preserve" font-family="Menlo-Regular,Menlo" font-size="37.0" fill="#93C869" transform="matrix(1.00, 0.00, -0.00, -1.00, 524.5, 63.6)">t</text><text xml:space="preserve" font-family="Menlo-Regular,Menlo" font-size="37.0" fill="#93C869" transform="matrix(1.00, 0.00, -0.00, -1.00, 546.7, 63.6)">r</text><text xml:space="preserve" font-family="Menlo-Regular,Menlo" font-size="37.0" fill="#93C869" transform="matrix(1.00, 0.00, -0.00, -1.00, 569.0, 63.6)">i</text><text xml:space="preserve" font-family="Menlo-Regular,Menlo" font-size="37.0" fill="#93C869" transform="matrix(1.00, 0.00, -0.00, -1.00, 591.3, 63.6)">1</text><text xml:space="preserve" font-family="Menlo-Regular,Menlo" font-size="37.0" fill="#FFFFFF" transform="matrix(1.00, 0.00, -0.00, -1.00, 613.6, 63.6)">.</text><text xml:space="preserve" font-family="Menlo-Regular,Menlo" font-size="37.0" fill="#93C869" transform="matrix(1.00, 0.00, -0.00, -1.00, 635.8, 63.6)">l</text><text xml:space="preserve" font-family="Menlo-Regular,Menlo" font-size="37.0" fill="#93C869" transform="matrix(1.00, 0.00, -0.00, -1.00, 658.1, 63.6)">e</text><text xml:space="preserve" font-family="Menlo-Regular,Menlo" font-size="37.0" fill="#93C869" transform="matrix(1.00, 0.00, -0.00, -1.00, 680.4, 63.6)">n</text><text xml:space="preserve" font-family="Menlo-Regular,Menlo" font-size="37.0" fill="#93C869" transform="matrix(1.00, 0.00, -0.00, -1.00, 702.7, 63.6)">g</text><text xml:space="preserve" font-family="Menlo-Regular,Menlo" font-size="37.0" fill="#93C869" transform="matrix(1.00, 0.00, -0.00, -1.00, 725.0, 63.6)">t</text><text xml:space="preserve" font-family="Menlo-Regular,Menlo" font-size="37.0" fill="#93C869" transform="matrix(1.00, 0.00, -0.00, -1.00, 747.2, 63.6)">h</text><text xml:space="preserve" font-family="Menlo-Regular,Menlo" font-size="37.0" fill="#E44347" transform="matrix(1.00, 0.00, -0.00, -1.00, 769.5, 63.6)">)</text><text xml:space="preserve" font-family="Menlo-Regular,Menlo" font-size="37.0" fill="#E44347" transform="matrix(1.00, 0.00, -0.00, -1.00, 791.8, 63.6)">"</text><text xml:space="preserve" font-family="Menlo-Regular,Menlo" font-size="37.0" fill="#FFFFFF" transform="matrix(1.00, 0.00, -0.00, -1.00, 814.1, 63.6)">)</text><text xml:space="preserve" font-family="Menlo-Regular,Menlo" font-size="37.0" fill="#FFFFFF" transform="matrix(1.00, 0.00, -0.00, -1.00, 836.3, 63.6)"> </text><text xml:space="preserve" font-family="Menlo-Regular,Menlo" font-size="37.0" fill="#00AFC9" transform="matrix(1.00, 0.00, -0.00, -1.00, 12.1, 20.6)">p</text><text xml:space="preserve" font-family="Menlo-Regular,Menlo" font-size="37.0" fill="#00AFC9" transform="matrix(1.00, 0.00, -0.00, -1.00, 34.4, 20.6)">r</text><text xml:space="preserve" font-family="Menlo-Regular,Menlo" font-size="37.0" fill="#00AFC9" transform="matrix(1.00, 0.00, -0.00, -1.00, 56.7, 20.6)">i</text><text xml:space="preserve" font-family="Menlo-Regular,Menlo" font-size="37.0" fill="#00AFC9" transform="matrix(1.00, 0.00, -0.00, -1.00, 79.0, 20.6)">n</text><text xml:space="preserve" font-family="Menlo-Regular,Menlo" font-size="37.0" fill="#00AFC9" transform="matrix(1.00, 0.00, -0.00, -1.00, 101.2, 20.6)">t</text><text xml:space="preserve" font-family="Menlo-Regular,Menlo" font-size="37.0" fill="#FFFFFF" transform="matrix(1.00, 0.00, -0.00, -1.00, 123.5, 20.6)">(</text><text xml:space="preserve" font-family="Menlo-Regular,Menlo" font-size="37.0" fill="#E44347" transform="matrix(1.00, 0.00, -0.00, -1.00, 145.8, 20.6)">"</text><text xml:space="preserve" font-family="Menlo-Regular,Menlo" font-size="37.0" fill="#E44347" transform="matrix(1.00, 0.00, -0.00, -1.00, 168.1, 20.6)">T</text><text xml:space="preserve" font-family="Menlo-Regular,Menlo" font-size="37.0" fill="#E44347" transform="matrix(1.00, 0.00, -0.00, -1.00, 190.3, 20.6)">r</text><text xml:space="preserve" font-family="Menlo-Regular,Menlo" font-size="37.0" fill="#E44347" transform="matrix(1.00, 0.00, -0.00, -1.00, 212.6, 20.6)">i</text><text xml:space="preserve" font-family="Menlo-Regular,Menlo" font-size="37.0" fill="#E44347" transform="matrix(1.00, 0.00, -0.00, -1.00, 234.9, 20.6)">2</text><text xml:space="preserve" font-family="Menlo-Regular,Menlo" font-size="37.0" fill="#E44347" transform="matrix(1.00, 0.00, -0.00, -1.00, 257.2, 20.6)">'</text><text xml:space="preserve" font-family="Menlo-Regular,Menlo" font-size="37.0" fill="#E44347" transform="matrix(1.00, 0.00, -0.00, -1.00, 279.5, 20.6)">s</text><text xml:space="preserve" font-family="Menlo-Regular,Menlo" font-size="37.0" fill="#E44347" transform="matrix(1.00, 0.00, -0.00, -1.00, 301.7, 20.6)"> </text><text xml:space="preserve" font-family="Menlo-Regular,Menlo" font-size="37.0" fill="#E44347" transform="matrix(1.00, 0.00, -0.00, -1.00, 324.0, 20.6)">l</text><text xml:space="preserve" font-family="Menlo-Regular,Menlo" font-size="37.0" fill="#E44347" transform="matrix(1.00, 0.00, -0.00, -1.00, 346.3, 20.6)">e</text><text xml:space="preserve" font-family="Menlo-Regular,Menlo" font-size="37.0" fill="#E44347" transform="matrix(1.00, 0.00, -0.00, -1.00, 368.6, 20.6)">n</text><text xml:space="preserve" font-family="Menlo-Regular,Menlo" font-size="37.0" fill="#E44347" transform="matrix(1.00, 0.00, -0.00, -1.00, 390.9, 20.6)">g</text><text xml:space="preserve" font-family="Menlo-Regular,Menlo" font-size="37.0" fill="#E44347" transform="matrix(1.00, 0.00, -0.00, -1.00, 413.1, 20.6)">t</text><text xml:space="preserve" font-family="Menlo-Regular,Menlo" font-size="37.0" fill="#E44347" transform="matrix(1.00, 0.00, -0.00, -1.00, 435.4, 20.6)">h</text><text xml:space="preserve" font-family="Menlo-Regular,Menlo" font-size="37.0" fill="#E44347" transform="matrix(1.00, 0.00, -0.00, -1.00, 457.7, 20.6)"> </text><text xml:space="preserve" font-family="Menlo-Regular,Menlo" font-size="37.0" fill="#FFFFFF" transform="matrix(1.00, 0.00, -0.00, -1.00, 479.9, 20.6)">\</text><text xml:space="preserve" font-family="Menlo-Regular,Menlo" font-size="37.0" fill="#E44347" transform="matrix(1.00, 0.00, -0.00, -1.00, 502.2, 20.6)">(</text><text xml:space="preserve" font-family="Menlo-Regular,Menlo" font-size="37.0" fill="#93C869" transform="matrix(1.00, 0.00, -0.00, -1.00, 524.5, 20.6)">t</text><text xml:space="preserve" font-family="Menlo-Regular,Menlo" font-size="37.0" fill="#93C869" transform="matrix(1.00, 0.00, -0.00, -1.00, 546.7, 20.6)">r</text><text xml:space="preserve" font-family="Menlo-Regular,Menlo" font-size="37.0" fill="#93C869" transform="matrix(1.00, 0.00, -0.00, -1.00, 569.0, 20.6)">i</text><text xml:space="preserve" font-family="Menlo-Regular,Menlo" font-size="37.0" fill="#93C869" transform="matrix(1.00, 0.00, -0.00, -1.00, 591.3, 20.6)">2</text><text xml:space="preserve" font-family="Menlo-Regular,Menlo" font-size="37.0" fill="#FFFFFF" transform="matrix(1.00, 0.00, -0.00, -1.00, 613.6, 20.6)">.</text><text xml:space="preserve" font-family="Menlo-Regular,Menlo" font-size="37.0" fill="#93C869" transform="matrix(1.00, 0.00, -0.00, -1.00, 635.8, 20.6)">l</text><text xml:space="preserve" font-family="Menlo-Regular,Menlo" font-size="37.0" fill="#93C869" transform="matrix(1.00, 0.00, -0.00, -1.00, 658.1, 20.6)">e</text><text xml:space="preserve" font-family="Menlo-Regular,Menlo" font-size="37.0" fill="#93C869" transform="matrix(1.00, 0.00, -0.00, -1.00, 680.4, 20.6)">n</text><text xml:space="preserve" font-family="Menlo-Regular,Menlo" font-size="37.0" fill="#93C869" transform="matrix(1.00, 0.00, -0.00, -1.00, 702.7, 20.6)">g</text><text xml:space="preserve" font-family="Menlo-Regular,Menlo" font-size="37.0" fill="#93C869" transform="matrix(1.00, 0.00, -0.00, -1.00, 725.0, 20.6)">t</text><text xml:space="preserve" font-family="Menlo-Regular,Menlo" font-size="37.0" fill="#93C869" transform="matrix(1.00, 0.00, -0.00, -1.00, 747.2, 20.6)">h</text><text xml:space="preserve" font-family="Menlo-Regular,Menlo" font-size="37.0" fill="#E44347" transform="matrix(1.00, 0.00, -0.00, -1.00, 769.5, 20.6)">)</text><text xml:space="preserve" font-family="Menlo-Regular,Menlo" font-size="37.0" fill="#E44347" transform="matrix(1.00, 0.00, -0.00, -1.00, 791.8, 20.6)">"</text><text xml:space="preserve" font-family="Menlo-Regular,Menlo" font-size="37.0" fill="#FFFFFF" transform="matrix(1.00, 0.00, -0.00, -1.00, 814.1, 20.6)">)</text></g></g></g></svg>