<?xml version="1.0" encoding="UTF-8" standalone="no"?><svg xmlns="http://www.w3.org/2000/svg" xmlns:xlink="http://www.w3.org/1999/xlink" clip-rule="evenodd" stroke-miterlimit="10" viewBox="0 0 917 110"><desc>SVG generated by Keynote</desc><defs></defs><g transform="matrix(1.00, 0.00, -0.00, -1.00, 0.0, 110.0)"><path d="M 0.2 0.3 L 908.2 0.3 L 908.2 102.3 L 0.2 102.3 Z M 0.0 0.0 " fill="none" stroke="#961817" stroke-width="5.00" transform="matrix(1.00, 0.00, 0.00, -1.00, 4.3, 105.8)"></path><g><clipPath id="clip0x7fbff325d050"><path d="M 1.7 0.9 L 922.4 0.9 L 922.4 108.4 L 1.7 108.4 Z M 1.7 0.9 "></path></clipPath><g clip-path="url(#clip0x7fbff325d050)"><text xml:space="preserve" font-family="Menlo-Bold,Menlo" font-weight="bold" font-size="37.0" fill="#FFFFFF" transform="matrix(1.00, 0.00, -0.00, -1.00, 12.5, 63.4)">&gt;</text><text xml:space="preserve" font-family="Menlo-Bold,Menlo" font-weight="bold" font-size="37.0" fill="#FFFFFF" transform="matrix(1.00, 0.00, -0.00, -1.00, 34.7, 63.4)">&gt;</text><text xml:space="preserve" font-family="Menlo-Bold,Menlo" font-weight="bold" font-size="37.0" fill="#FFFFFF" transform="matrix(1.00, 0.00, -0.00, -1.00, 57.0, 63.4)"> </text><text xml:space="preserve" font-family="Menlo-Bold,Menlo" font-weight="bold" font-size="37.0" fill="#FFFFFF" transform="matrix(1.00, 0.00, -0.00, -1.00, 79.3, 63.4)">R</text><text xml:space="preserve" font-family="Menlo-Bold,Menlo" font-weight="bold" font-size="37.0" fill="#FFFFFF" transform="matrix(1.00, 0.00, -0.00, -1.00, 101.6, 63.4)">e</text><text xml:space="preserve" font-family="Menlo-Bold,Menlo" font-weight="bold" font-size="37.0" fill="#FFFFFF" transform="matrix(1.00, 0.00, -0.00, -1.00, 123.9, 63.4)">c</text><text xml:space="preserve" font-family="Menlo-Bold,Menlo" font-weight="bold" font-size="37.0" fill="#FFFFFF" transform="matrix(1.00, 0.00, -0.00, -1.00, 146.1, 63.4)">t</text><text xml:space="preserve" font-family="Menlo-Bold,Menlo" font-weight="bold" font-size="37.0" fill="#FFFFFF" transform="matrix(1.00, 0.00, -0.00, -1.00, 168.4, 63.4)">1</text><text xml:space="preserve" font-family="Menlo-Bold,Menlo" font-weight="bold" font-size="37.0" fill="#FFFFFF" transform="matrix(1.00, 0.00, -0.00, -1.00, 190.7, 63.4)">'</text><text xml:space="preserve" font-family="Menlo-Bold,Menlo" font-weight="bold" font-size="37.0" fill="#FFFFFF" transform="matrix(1.00, 0.00, -0.00, -1.00, 213.0, 63.4)">s</text><text xml:space="preserve" font-family="Menlo-Bold,Menlo" font-weight="bold" font-size="37.0" fill="#FFFFFF" transform="matrix(1.00, 0.00, -0.00, -1.00, 235.3, 63.4)"> </text><text xml:space="preserve" font-family="Menlo-Bold,Menlo" font-weight="bold" font-size="37.0" fill="#FFFFFF" transform="matrix(1.00, 0.00, -0.00, -1.00, 257.5, 63.4)">l</text><text xml:space="preserve" font-family="Menlo-Bold,Menlo" font-weight="bold" font-size="37.0" fill="#FFFFFF" transform="matrix(1.00, 0.00, -0.00, -1.00, 279.8, 63.4)">e</text><text xml:space="preserve" font-family="Menlo-Bold,Menlo" font-weight="bold" font-size="37.0" fill="#FFFFFF" transform="matrix(1.00, 0.00, -0.00, -1.00, 302.1, 63.4)">n</text><text xml:space="preserve" font-family="Menlo-Bold,Menlo" font-weight="bold" font-size="37.0" fill="#FFFFFF" transform="matrix(1.00, 0.00, -0.00, -1.00, 324.4, 63.4)">g</text><text xml:space="preserve" font-family="Menlo-Bold,Menlo" font-weight="bold" font-size="37.0" fill="#FFFFFF" transform="matrix(1.00, 0.00, -0.00, -1.00, 346.7, 63.4)">t</text><text xml:space="preserve" font-family="Menlo-Bold,Menlo" font-weight="bold" font-size="37.0" fill="#FFFFFF" transform="matrix(1.00, 0.00, -0.00, -1.00, 368.9, 63.4)">h</text><text xml:space="preserve" font-family="Menlo-Bold,Menlo" font-weight="bold" font-size="37.0" fill="#FFFFFF" transform="matrix(1.00, 0.00, -0.00, -1.00, 391.2, 63.4)"> </text><text xml:space="preserve" font-family="Menlo-Bold,Menlo" font-weight="bold" font-size="37.0" fill="#FFFFFF" transform="matrix(1.00, 0.00, -0.00, -1.00, 413.5, 63.4)">i</text><text xml:space="preserve" font-family="Menlo-Bold,Menlo" font-weight="bold" font-size="37.0" fill="#FFFFFF" transform="matrix(1.00, 0.00, -0.00, -1.00, 435.8, 63.4)">s</text><text xml:space="preserve" font-family="Menlo-Bold,Menlo" font-weight="bold" font-size="37.0" fill="#FFFFFF" transform="matrix(1.00, 0.00, -0.00, -1.00, 458.0, 63.4)"> </text><text xml:space="preserve" font-family="Menlo-Bold,Menlo" font-weight="bold" font-size="37.0" fill="#FFFFFF" transform="matrix(1.00, 0.00, -0.00, -1.00, 480.3, 63.4)">1</text><text xml:space="preserve" font-family="Menlo-Bold,Menlo" font-weight="bold" font-size="37.0" fill="#FFFFFF" transform="matrix(1.00, 0.00, -0.00, -1.00, 502.6, 63.4)">2</text><text xml:space="preserve" font-family="Menlo-Bold,Menlo" font-weight="bold" font-size="37.0" fill="#FFFFFF" transform="matrix(1.00, 0.00, -0.00, -1.00, 524.9, 63.4)"> </text><text xml:space="preserve" font-family="Menlo-Bold,Menlo" font-weight="bold" font-size="37.0" fill="#FFFFFF" transform="matrix(1.00, 0.00, -0.00, -1.00, 547.2, 63.4)"> </text><text xml:space="preserve" font-family="Menlo-Bold,Menlo" font-weight="bold" font-size="37.0" fill="#FFFFFF" transform="matrix(1.00, 0.00, -0.00, -1.00, 569.4, 63.4)"> </text><text xml:space="preserve" font-family="Menlo-Bold,Menlo" font-weight="bold" font-size="37.0" fill="#FFFFFF" transform="matrix(1.00, 0.00, -0.00, -1.00, 591.7, 63.4)"> </text><text xml:space="preserve" font-family="Menlo-Bold,Menlo" font-weight="bold" font-size="37.0" fill="#FFFFFF" transform="matrix(1.00, 0.00, -0.00, -1.00, 614.0, 63.4)"> </text><text xml:space="preserve" font-family="Menlo-Bold,Menlo" font-weight="bold" font-size="37.0" fill="#FFFFFF" transform="matrix(1.00, 0.00, -0.00, -1.00, 636.3, 63.4)"> </text><text xml:space="preserve" font-family="Menlo-Bold,Menlo" font-weight="bold" font-size="37.0" fill="#FFFFFF" transform="matrix(1.00, 0.00, -0.00, -1.00, 658.6, 63.4)"> </text><text xml:space="preserve" font-family="Menlo-Bold,Menlo" font-weight="bold" font-size="37.0" fill="#FFFFFF" transform="matrix(1.00, 0.00, -0.00, -1.00, 680.8, 63.4)"> </text><text xml:space="preserve" font-family="Menlo-Bold,Menlo" font-weight="bold" font-size="37.0" fill="#FFFFFF" transform="matrix(1.00, 0.00, -0.00, -1.00, 703.1, 63.4)"> </text><text xml:space="preserve" font-family="Menlo-Bold,Menlo" font-weight="bold" font-size="37.0" fill="#FFFFFF" transform="matrix(1.00, 0.00, -0.00, -1.00, 725.4, 63.4)"> </text><text xml:space="preserve" font-family="Menlo-Bold,Menlo" font-weight="bold" font-size="37.0" fill="#FFFFFF" transform="matrix(1.00, 0.00, -0.00, -1.00, 747.7, 63.4)"> </text><text xml:space="preserve" font-family="Menlo-Bold,Menlo" font-weight="bold" font-size="37.0" fill="#FFFFFF" transform="matrix(1.00, 0.00, -0.00, -1.00, 770.0, 63.4)"> </text><text xml:space="preserve" font-family="Menlo-Bold,Menlo" font-weight="bold" font-size="37.0" fill="#FFFFFF" transform="matrix(1.00, 0.00, -0.00, -1.00, 792.2, 63.4)"> </text><text xml:space="preserve" font-family="Menlo-Bold,Menlo" font-weight="bold" font-size="37.0" fill="#FFFFFF" transform="matrix(1.00, 0.00, -0.00, -1.00, 814.5, 63.4)"> </text><text xml:space="preserve" font-family="Menlo-Bold,Menlo" font-weight="bold" font-size="37.0" fill="#FFFFFF" transform="matrix(1.00, 0.00, -0.00, -1.00, 836.8, 63.4)"> </text><text xml:space="preserve" font-family="Menlo-Bold,Menlo" font-weight="bold" font-size="37.0" fill="#FFFFFF" transform="matrix(1.00, 0.00, -0.00, -1.00, 859.1, 63.4)"> </text><text xml:space="preserve" font-family="Menlo-Bold,Menlo" font-weight="bold" font-size="37.0" fill="#FFFFFF" transform="matrix(1.00, 0.00, -0.00, -1.00, 881.4, 63.4)"> </text><text xml:space="preserve" font-family="Menlo-Bold,Menlo" font-weight="bold" font-size="37.0" fill="#FFFFFF" transform="matrix(1.00, 0.00, -0.00, -1.00, 903.6, 63.4)"> </text><text xml:space="preserve" font-family="Menlo-Bold,Menlo" font-weight="bold" font-size="37.0" fill="#FFFFFF" transform="matrix(1.00, 0.00, -0.00, -1.00, 925.8, 63.4)"> </text><text xml:space="preserve" font-family="Menlo-Bold,Menlo" font-weight="bold" font-size="37.0" fill="#FFFFFF" transform="matrix(1.00, 0.00, -0.00, -1.00, 12.5, 20.4)">&gt;</text><text xml:space="preserve" font-family="Menlo-Bold,Menlo" font-weight="bold" font-size="37.0" fill="#FFFFFF" transform="matrix(1.00, 0.00, -0.00, -1.00, 34.7, 20.4)">&gt;</text><text xml:space="preserve" font-family="Menlo-Bold,Menlo" font-weight="bold" font-size="37.0" fill="#FFFFFF" transform="matrix(1.00, 0.00, -0.00, -1.00, 57.0, 20.4)"> </text><text xml:space="preserve" font-family="Menlo-Bold,Menlo" font-weight="bold" font-size="37.0" fill="#FFFFFF" transform="matrix(1.00, 0.00, -0.00, -1.00, 79.3, 20.4)">R</text><text xml:space="preserve" font-family="Menlo-Bold,Menlo" font-weight="bold" font-size="37.0" fill="#FFFFFF" transform="matrix(1.00, 0.00, -0.00, -1.00, 101.6, 20.4)">e</text><text xml:space="preserve" font-family="Menlo-Bold,Menlo" font-weight="bold" font-size="37.0" fill="#FFFFFF" transform="matrix(1.00, 0.00, -0.00, -1.00, 123.9, 20.4)">c</text><text xml:space="preserve" font-family="Menlo-Bold,Menlo" font-weight="bold" font-size="37.0" fill="#FFFFFF" transform="matrix(1.00, 0.00, -0.00, -1.00, 146.1, 20.4)">t</text><text xml:space="preserve" font-family="Menlo-Bold,Menlo" font-weight="bold" font-size="37.0" fill="#FFFFFF" transform="matrix(1.00, 0.00, -0.00, -1.00, 168.4, 20.4)">2</text><text xml:space="preserve" font-family="Menlo-Bold,Menlo" font-weight="bold" font-size="37.0" fill="#FFFFFF" transform="matrix(1.00, 0.00, -0.00, -1.00, 190.7, 20.4)">'</text><text xml:space="preserve" font-family="Menlo-Bold,Menlo" font-weight="bold" font-size="37.0" fill="#FFFFFF" transform="matrix(1.00, 0.00, -0.00, -1.00, 213.0, 20.4)">s</text><text xml:space="preserve" font-family="Menlo-Bold,Menlo" font-weight="bold" font-size="37.0" fill="#FFFFFF" transform="matrix(1.00, 0.00, -0.00, -1.00, 235.3, 20.4)"> </text><text xml:space="preserve" font-family="Menlo-Bold,Menlo" font-weight="bold" font-size="37.0" fill="#FFFFFF" transform="matrix(1.00, 0.00, -0.00, -1.00, 257.5, 20.4)">l</text><text xml:space="preserve" font-family="Menlo-Bold,Menlo" font-weight="bold" font-size="37.0" fill="#FFFFFF" transform="matrix(1.00, 0.00, -0.00, -1.00, 279.8, 20.4)">e</text><text xml:space="preserve" font-family="Menlo-Bold,Menlo" font-weight="bold" font-size="37.0" fill="#FFFFFF" transform="matrix(1.00, 0.00, -0.00, -1.00, 302.1, 20.4)">n</text><text xml:space="preserve" font-family="Menlo-Bold,Menlo" font-weight="bold" font-size="37.0" fill="#FFFFFF" transform="matrix(1.00, 0.00, -0.00, -1.00, 324.4, 20.4)">g</text><text xml:space="preserve" font-family="Menlo-Bold,Menlo" font-weight="bold" font-size="37.0" fill="#FFFFFF" transform="matrix(1.00, 0.00, -0.00, -1.00, 346.7, 20.4)">t</text><text xml:space="preserve" font-family="Menlo-Bold,Menlo" font-weight="bold" font-size="37.0" fill="#FFFFFF" transform="matrix(1.00, 0.00, -0.00, -1.00, 368.9, 20.4)">h</text><text xml:space="preserve" font-family="Menlo-Bold,Menlo" font-weight="bold" font-size="37.0" fill="#FFFFFF" transform="matrix(1.00, 0.00, -0.00, -1.00, 391.2, 20.4)"> </text><text xml:space="preserve" font-family="Menlo-Bold,Menlo" font-weight="bold" font-size="37.0" fill="#FFFFFF" transform="matrix(1.00, 0.00, -0.00, -1.00, 413.5, 20.4)">i</text><text xml:space="preserve" font-family="Menlo-Bold,Menlo" font-weight="bold" font-size="37.0" fill="#FFFFFF" transform="matrix(1.00, 0.00, -0.00, -1.00, 435.8, 20.4)">s</text><text xml:space="preserve" font-family="Menlo-Bold,Menlo" font-weight="bold" font-size="37.0" fill="#FFFFFF" transform="matrix(1.00, 0.00, -0.00, -1.00, 458.0, 20.4)"> </text><text xml:space="preserve" font-family="Menlo-Bold,Menlo" font-weight="bold" font-size="37.0" fill="#FFFFFF" transform="matrix(1.00, 0.00, -0.00, -1.00, 480.3, 20.4)">1</text><text xml:space="preserve" font-family="Menlo-Bold,Menlo" font-weight="bold" font-size="37.0" fill="#FFFFFF" transform="matrix(1.00, 0.00, -0.00, -1.00, 502.5, 20.4)">2</text></g></g></g></svg>