<?xml version="1.0" encoding="UTF-8" standalone="no"?><svg xmlns="http://www.w3.org/2000/svg" xmlns:xlink="http://www.w3.org/1999/xlink" clip-rule="evenodd" stroke-miterlimit="10" viewBox="0 0 894 497"><desc>SVG generated by Keynote</desc><defs></defs><g transform="matrix(1.00, 0.00, -0.00, -1.00, 0.0, 497.0)"><path d="M 0.4 -0.4 L 886.4 -0.4 L 886.4 489.6 L 0.4 489.6 Z M 0.0 0.0 " fill="none" stroke="#961817" stroke-width="5.00" transform="matrix(1.00, 0.00, 0.00, -1.00, 4.1, 493.1)"></path><g><clipPath id="clip0x7fbff1443f20"><path d="M 1.5 1.2 L 1746.4 1.2 L 1746.4 495.7 L 1.5 495.7 Z M 1.5 1.2 "></path></clipPath><g clip-path="url(#clip0x7fbff1443f20)"><text xml:space="preserve" font-family="Menlo-Regular,Menlo" font-size="37.0" fill="#C1339A" transform="matrix(1.00, 0.00, -0.00, -1.00, 12.3, 450.7)">s</text><text xml:space="preserve" font-family="Menlo-Regular,Menlo" font-size="37.0" fill="#C1339A" transform="matrix(1.00, 0.00, -0.00, -1.00, 34.5, 450.7)">w</text><text xml:space="preserve" font-family="Menlo-Regular,Menlo" font-size="37.0" fill="#C1339A" transform="matrix(1.00, 0.00, -0.00, -1.00, 56.8, 450.7)">i</text><text xml:space="preserve" font-family="Menlo-Regular,Menlo" font-size="37.0" fill="#C1339A" transform="matrix(1.00, 0.00, -0.00, -1.00, 79.1, 450.7)">t</text><text xml:space="preserve" font-family="Menlo-Regular,Menlo" font-size="37.0" fill="#C1339A" transform="matrix(1.00, 0.00, -0.00, -1.00, 101.4, 450.7)">c</text><text xml:space="preserve" font-family="Menlo-Regular,Menlo" font-size="37.0" fill="#C1339A" transform="matrix(1.00, 0.00, -0.00, -1.00, 123.7, 450.7)">h</text><text xml:space="preserve" font-family="Menlo-Regular,Menlo" font-size="37.0" fill="#FFFFFF" transform="matrix(1.00, 0.00, -0.00, -1.00, 145.9, 450.7)"> </text><text xml:space="preserve" font-family="Menlo-Regular,Menlo" font-size="37.0" fill="#93C869" transform="matrix(1.00, 0.00, -0.00, -1.00, 168.2, 450.7)">a</text><text xml:space="preserve" font-family="Menlo-Regular,Menlo" font-size="37.0" fill="#93C869" transform="matrix(1.00, 0.00, -0.00, -1.00, 190.5, 450.7)">T</text><text xml:space="preserve" font-family="Menlo-Regular,Menlo" font-size="37.0" fill="#93C869" transform="matrix(1.00, 0.00, -0.00, -1.00, 212.8, 450.7)">r</text><text xml:space="preserve" font-family="Menlo-Regular,Menlo" font-size="37.0" fill="#93C869" transform="matrix(1.00, 0.00, -0.00, -1.00, 235.0, 450.7)">a</text><text xml:space="preserve" font-family="Menlo-Regular,Menlo" font-size="37.0" fill="#93C869" transform="matrix(1.00, 0.00, -0.00, -1.00, 257.3, 450.7)">d</text><text xml:space="preserve" font-family="Menlo-Regular,Menlo" font-size="37.0" fill="#93C869" transform="matrix(1.00, 0.00, -0.00, -1.00, 279.6, 450.7)">e</text><text xml:space="preserve" font-family="Menlo-Regular,Menlo" font-size="37.0" fill="#FFFFFF" transform="matrix(1.00, 0.00, -0.00, -1.00, 301.8, 450.7)"> </text><text xml:space="preserve" font-family="Menlo-Regular,Menlo" font-size="37.0" fill="#FFFFFF" transform="matrix(1.00, 0.00, -0.00, -1.00, 324.1, 450.7)">{</text><text xml:space="preserve" font-family="Menlo-Regular,Menlo" font-size="37.0" fill="#FFFFFF" transform="matrix(1.00, 0.00, -0.00, -1.00, 346.4, 450.7)"> </text><text xml:space="preserve" font-family="Menlo-Regular,Menlo" font-size="37.0" fill="#C1339A" transform="matrix(1.00, 0.00, -0.00, -1.00, 12.3, 407.7)">c</text><text xml:space="preserve" font-family="Menlo-Regular,Menlo" font-size="37.0" fill="#C1339A" transform="matrix(1.00, 0.00, -0.00, -1.00, 34.5, 407.7)">a</text><text xml:space="preserve" font-family="Menlo-Regular,Menlo" font-size="37.0" fill="#C1339A" transform="matrix(1.00, 0.00, -0.00, -1.00, 56.8, 407.7)">s</text><text xml:space="preserve" font-family="Menlo-Regular,Menlo" font-size="37.0" fill="#C1339A" transform="matrix(1.00, 0.00, -0.00, -1.00, 79.1, 407.7)">e</text><text xml:space="preserve" font-family="Menlo-Regular,Menlo" font-size="37.0" fill="#FFFFFF" transform="matrix(1.00, 0.00, -0.00, -1.00, 101.4, 407.7)"> </text><text xml:space="preserve" font-family="Menlo-Regular,Menlo" font-size="37.0" fill="#C1339A" transform="matrix(1.00, 0.00, -0.00, -1.00, 123.6, 407.7)">l</text><text xml:space="preserve" font-family="Menlo-Regular,Menlo" font-size="37.0" fill="#C1339A" transform="matrix(1.00, 0.00, -0.00, -1.00, 145.9, 407.7)">e</text><text xml:space="preserve" font-family="Menlo-Regular,Menlo" font-size="37.0" fill="#C1339A" transform="matrix(1.00, 0.00, -0.00, -1.00, 168.2, 407.7)">t</text><text xml:space="preserve" font-family="Menlo-Regular,Menlo" font-size="37.0" fill="#FFFFFF" transform="matrix(1.00, 0.00, -0.00, -1.00, 190.5, 407.7)"> </text><text xml:space="preserve" font-family="Menlo-Regular,Menlo" font-size="37.0" fill="#FFFFFF" transform="matrix(1.00, 0.00, -0.00, -1.00, 212.7, 407.7)">.</text><text xml:space="preserve" font-family="Menlo-Regular,Menlo" font-size="37.0" fill="#FFFFFF" transform="matrix(1.00, 0.00, -0.00, -1.00, 235.0, 407.7)">B</text><text xml:space="preserve" font-family="Menlo-Regular,Menlo" font-size="37.0" fill="#FFFFFF" transform="matrix(1.00, 0.00, -0.00, -1.00, 257.3, 407.7)">u</text><text xml:space="preserve" font-family="Menlo-Regular,Menlo" font-size="37.0" fill="#FFFFFF" transform="matrix(1.00, 0.00, -0.00, -1.00, 279.6, 407.7)">y</text><text xml:space="preserve" font-family="Menlo-Regular,Menlo" font-size="37.0" fill="#FFFFFF" transform="matrix(1.00, 0.00, -0.00, -1.00, 301.9, 407.7)">(</text><text xml:space="preserve" font-family="Menlo-Regular,Menlo" font-size="37.0" fill="#FFFFFF" transform="matrix(1.00, 0.00, -0.00, -1.00, 324.1, 407.7)">s</text><text xml:space="preserve" font-family="Menlo-Regular,Menlo" font-size="37.0" fill="#FFFFFF" transform="matrix(1.00, 0.00, -0.00, -1.00, 346.4, 407.7)">t</text><text xml:space="preserve" font-family="Menlo-Regular,Menlo" font-size="37.0" fill="#FFFFFF" transform="matrix(1.00, 0.00, -0.00, -1.00, 368.7, 407.7)">o</text><text xml:space="preserve" font-family="Menlo-Regular,Menlo" font-size="37.0" fill="#FFFFFF" transform="matrix(1.00, 0.00, -0.00, -1.00, 391.0, 407.7)">c</text><text xml:space="preserve" font-family="Menlo-Regular,Menlo" font-size="37.0" fill="#FFFFFF" transform="matrix(1.00, 0.00, -0.00, -1.00, 413.3, 407.7)">k</text><text xml:space="preserve" font-family="Menlo-Regular,Menlo" font-size="37.0" fill="#FFFFFF" transform="matrix(1.00, 0.00, -0.00, -1.00, 435.5, 407.7)">,</text><text xml:space="preserve" font-family="Menlo-Regular,Menlo" font-size="37.0" fill="#FFFFFF" transform="matrix(1.00, 0.00, -0.00, -1.00, 457.8, 407.7)">a</text><text xml:space="preserve" font-family="Menlo-Regular,Menlo" font-size="37.0" fill="#FFFFFF" transform="matrix(1.00, 0.00, -0.00, -1.00, 480.1, 407.7)">m</text><text xml:space="preserve" font-family="Menlo-Regular,Menlo" font-size="37.0" fill="#FFFFFF" transform="matrix(1.00, 0.00, -0.00, -1.00, 502.4, 407.7)">o</text><text xml:space="preserve" font-family="Menlo-Regular,Menlo" font-size="37.0" fill="#FFFFFF" transform="matrix(1.00, 0.00, -0.00, -1.00, 524.7, 407.7)">u</text><text xml:space="preserve" font-family="Menlo-Regular,Menlo" font-size="37.0" fill="#FFFFFF" transform="matrix(1.00, 0.00, -0.00, -1.00, 546.9, 407.7)">n</text><text xml:space="preserve" font-family="Menlo-Regular,Menlo" font-size="37.0" fill="#FFFFFF" transform="matrix(1.00, 0.00, -0.00, -1.00, 569.2, 407.7)">t</text><text xml:space="preserve" font-family="Menlo-Regular,Menlo" font-size="37.0" fill="#FFFFFF" transform="matrix(1.00, 0.00, -0.00, -1.00, 591.5, 407.7)">,</text><text xml:space="preserve" font-family="Menlo-Regular,Menlo" font-size="37.0" fill="#FFFFFF" transform="matrix(1.00, 0.00, -0.00, -1.00, 613.8, 407.7)"> </text><text xml:space="preserve" font-family="Menlo-Regular,Menlo" font-size="37.0" fill="#C1339A" transform="matrix(1.00, 0.00, -0.00, -1.00, 636.0, 407.7)">_</text><text xml:space="preserve" font-family="Menlo-Regular,Menlo" font-size="37.0" fill="#FFFFFF" transform="matrix(1.00, 0.00, -0.00, -1.00, 658.3, 407.7)">:</text><text xml:space="preserve" font-family="Menlo-Regular,Menlo" font-size="37.0" fill="#FFFFFF" transform="matrix(1.00, 0.00, -0.00, -1.00, 680.5, 407.7)"> </text><text xml:space="preserve" font-family="Menlo-Regular,Menlo" font-size="37.0" fill="#FFFFFF" transform="matrix(1.00, 0.00, -0.00, -1.00, 12.3, 364.7)"> </text><text xml:space="preserve" font-family="Menlo-Regular,Menlo" font-size="37.0" fill="#FFFFFF" transform="matrix(1.00, 0.00, -0.00, -1.00, 34.5, 364.7)"> </text><text xml:space="preserve" font-family="Menlo-Regular,Menlo" font-size="37.0" fill="#FFFFFF" transform="matrix(1.00, 0.00, -0.00, -1.00, 56.8, 364.7)"> </text><text xml:space="preserve" font-family="Menlo-Regular,Menlo" font-size="37.0" fill="#FFFFFF" transform="matrix(1.00, 0.00, -0.00, -1.00, 79.1, 364.7)"> </text><text xml:space="preserve" font-family="Menlo-Regular,Menlo" font-size="37.0" fill="#FFFFFF" transform="matrix(1.00, 0.00, -0.00, -1.00, 101.4, 364.7)"> </text><text xml:space="preserve" font-family="Menlo-Regular,Menlo" font-size="37.0" fill="#FFFFFF" transform="matrix(1.00, 0.00, -0.00, -1.00, 123.7, 364.7)"> </text><text xml:space="preserve" font-family="Menlo-Regular,Menlo" font-size="37.0" fill="#FFFFFF" transform="matrix(1.00, 0.00, -0.00, -1.00, 145.9, 364.7)"> </text><text xml:space="preserve" font-family="Menlo-Regular,Menlo" font-size="37.0" fill="#FFFFFF" transform="matrix(1.00, 0.00, -0.00, -1.00, 168.2, 364.7)"> </text><text xml:space="preserve" font-family="Menlo-Regular,Menlo" font-size="37.0" fill="#FFFFFF" transform="matrix(1.00, 0.00, -0.00, -1.00, 190.5, 364.7)"> </text><text xml:space="preserve" font-family="Menlo-Regular,Menlo" font-size="37.0" fill="#FFFFFF" transform="matrix(1.00, 0.00, -0.00, -1.00, 212.8, 364.7)"> </text><text xml:space="preserve" font-family="Menlo-Regular,Menlo" font-size="37.0" fill="#FFFFFF" transform="matrix(1.00, 0.00, -0.00, -1.00, 235.1, 364.7)"> </text><text xml:space="preserve" font-family="Menlo-Regular,Menlo" font-size="37.0" fill="#FFFFFF" transform="matrix(1.00, 0.00, -0.00, -1.00, 257.3, 364.7)">p</text><text xml:space="preserve" font-family="Menlo-Regular,Menlo" font-size="37.0" fill="#FFFFFF" transform="matrix(1.00, 0.00, -0.00, -1.00, 279.6, 364.7)">r</text><text xml:space="preserve" font-family="Menlo-Regular,Menlo" font-size="37.0" fill="#FFFFFF" transform="matrix(1.00, 0.00, -0.00, -1.00, 301.9, 364.7)">o</text><text xml:space="preserve" font-family="Menlo-Regular,Menlo" font-size="37.0" fill="#FFFFFF" transform="matrix(1.00, 0.00, -0.00, -1.00, 324.2, 364.7)">c</text><text xml:space="preserve" font-family="Menlo-Regular,Menlo" font-size="37.0" fill="#FFFFFF" transform="matrix(1.00, 0.00, -0.00, -1.00, 346.5, 364.7)">e</text><text xml:space="preserve" font-family="Menlo-Regular,Menlo" font-size="37.0" fill="#FFFFFF" transform="matrix(1.00, 0.00, -0.00, -1.00, 368.7, 364.7)">s</text><text xml:space="preserve" font-family="Menlo-Regular,Menlo" font-size="37.0" fill="#FFFFFF" transform="matrix(1.00, 0.00, -0.00, -1.00, 391.0, 364.7)">s</text><text xml:space="preserve" font-family="Menlo-Regular,Menlo" font-size="37.0" fill="#FFFFFF" transform="matrix(1.00, 0.00, -0.00, -1.00, 413.3, 364.7)">(</text><text xml:space="preserve" font-family="Menlo-Regular,Menlo" font-size="37.0" fill="#FFFFFF" transform="matrix(1.00, 0.00, -0.00, -1.00, 435.6, 364.7)">s</text><text xml:space="preserve" font-family="Menlo-Regular,Menlo" font-size="37.0" fill="#FFFFFF" transform="matrix(1.00, 0.00, -0.00, -1.00, 457.9, 364.7)">t</text><text xml:space="preserve" font-family="Menlo-Regular,Menlo" font-size="37.0" fill="#FFFFFF" transform="matrix(1.00, 0.00, -0.00, -1.00, 480.1, 364.7)">o</text><text xml:space="preserve" font-family="Menlo-Regular,Menlo" font-size="37.0" fill="#FFFFFF" transform="matrix(1.00, 0.00, -0.00, -1.00, 502.4, 364.7)">c</text><text xml:space="preserve" font-family="Menlo-Regular,Menlo" font-size="37.0" fill="#FFFFFF" transform="matrix(1.00, 0.00, -0.00, -1.00, 524.7, 364.7)">k</text><text xml:space="preserve" font-family="Menlo-Regular,Menlo" font-size="37.0" fill="#FFFFFF" transform="matrix(1.00, 0.00, -0.00, -1.00, 547.0, 364.7)">,</text><text xml:space="preserve" font-family="Menlo-Regular,Menlo" font-size="37.0" fill="#FFFFFF" transform="matrix(1.00, 0.00, -0.00, -1.00, 569.2, 364.7)"> </text><text xml:space="preserve" font-family="Menlo-Regular,Menlo" font-size="37.0" fill="#FFFFFF" transform="matrix(1.00, 0.00, -0.00, -1.00, 591.5, 364.7)">a</text><text xml:space="preserve" font-family="Menlo-Regular,Menlo" font-size="37.0" fill="#FFFFFF" transform="matrix(1.00, 0.00, -0.00, -1.00, 613.8, 364.7)">m</text><text xml:space="preserve" font-family="Menlo-Regular,Menlo" font-size="37.0" fill="#FFFFFF" transform="matrix(1.00, 0.00, -0.00, -1.00, 636.1, 364.7)">o</text><text xml:space="preserve" font-family="Menlo-Regular,Menlo" font-size="37.0" fill="#FFFFFF" transform="matrix(1.00, 0.00, -0.00, -1.00, 658.4, 364.7)">u</text><text xml:space="preserve" font-family="Menlo-Regular,Menlo" font-size="37.0" fill="#FFFFFF" transform="matrix(1.00, 0.00, -0.00, -1.00, 680.6, 364.7)">n</text><text xml:space="preserve" font-family="Menlo-Regular,Menlo" font-size="37.0" fill="#FFFFFF" transform="matrix(1.00, 0.00, -0.00, -1.00, 702.9, 364.7)">t</text><text xml:space="preserve" font-family="Menlo-Regular,Menlo" font-size="37.0" fill="#FFFFFF" transform="matrix(1.00, 0.00, -0.00, -1.00, 725.2, 364.7)">)</text><text xml:space="preserve" font-family="Menlo-Regular,Menlo" font-size="37.0" fill="#FFFFFF" transform="matrix(1.00, 0.00, -0.00, -1.00, 747.4, 364.7)"> </text><text xml:space="preserve" font-family="Menlo-Regular,Menlo" font-size="37.0" fill="#C1339A" transform="matrix(1.00, 0.00, -0.00, -1.00, 12.3, 321.7)">c</text><text xml:space="preserve" font-family="Menlo-Regular,Menlo" font-size="37.0" fill="#C1339A" transform="matrix(1.00, 0.00, -0.00, -1.00, 34.5, 321.7)">a</text><text xml:space="preserve" font-family="Menlo-Regular,Menlo" font-size="37.0" fill="#C1339A" transform="matrix(1.00, 0.00, -0.00, -1.00, 56.8, 321.7)">s</text><text xml:space="preserve" font-family="Menlo-Regular,Menlo" font-size="37.0" fill="#C1339A" transform="matrix(1.00, 0.00, -0.00, -1.00, 79.1, 321.7)">e</text><text xml:space="preserve" font-family="Menlo-Regular,Menlo" font-size="37.0" fill="#FFFFFF" transform="matrix(1.00, 0.00, -0.00, -1.00, 101.4, 321.7)"> </text><text xml:space="preserve" font-family="Menlo-Regular,Menlo" font-size="37.0" fill="#C1339A" transform="matrix(1.00, 0.00, -0.00, -1.00, 123.6, 321.7)">l</text><text xml:space="preserve" font-family="Menlo-Regular,Menlo" font-size="37.0" fill="#C1339A" transform="matrix(1.00, 0.00, -0.00, -1.00, 145.9, 321.7)">e</text><text xml:space="preserve" font-family="Menlo-Regular,Menlo" font-size="37.0" fill="#C1339A" transform="matrix(1.00, 0.00, -0.00, -1.00, 168.2, 321.7)">t</text><text xml:space="preserve" font-family="Menlo-Regular,Menlo" font-size="37.0" fill="#FFFFFF" transform="matrix(1.00, 0.00, -0.00, -1.00, 190.5, 321.7)"> </text><text xml:space="preserve" font-family="Menlo-Regular,Menlo" font-size="37.0" fill="#FFFFFF" transform="matrix(1.00, 0.00, -0.00, -1.00, 212.7, 321.7)">.</text><text xml:space="preserve" font-family="Menlo-Regular,Menlo" font-size="37.0" fill="#FFFFFF" transform="matrix(1.00, 0.00, -0.00, -1.00, 235.0, 321.7)">S</text><text xml:space="preserve" font-family="Menlo-Regular,Menlo" font-size="37.0" fill="#FFFFFF" transform="matrix(1.00, 0.00, -0.00, -1.00, 257.3, 321.7)">e</text><text xml:space="preserve" font-family="Menlo-Regular,Menlo" font-size="37.0" fill="#FFFFFF" transform="matrix(1.00, 0.00, -0.00, -1.00, 279.6, 321.7)">l</text><text xml:space="preserve" font-family="Menlo-Regular,Menlo" font-size="37.0" fill="#FFFFFF" transform="matrix(1.00, 0.00, -0.00, -1.00, 301.9, 321.7)">l</text><text xml:space="preserve" font-family="Menlo-Regular,Menlo" font-size="37.0" fill="#FFFFFF" transform="matrix(1.00, 0.00, -0.00, -1.00, 324.1, 321.7)">(</text><text xml:space="preserve" font-family="Menlo-Regular,Menlo" font-size="37.0" fill="#FFFFFF" transform="matrix(1.00, 0.00, -0.00, -1.00, 346.4, 321.7)">s</text><text xml:space="preserve" font-family="Menlo-Regular,Menlo" font-size="37.0" fill="#FFFFFF" transform="matrix(1.00, 0.00, -0.00, -1.00, 368.7, 321.7)">t</text><text xml:space="preserve" font-family="Menlo-Regular,Menlo" font-size="37.0" fill="#FFFFFF" transform="matrix(1.00, 0.00, -0.00, -1.00, 391.0, 321.7)">o</text><text xml:space="preserve" font-family="Menlo-Regular,Menlo" font-size="37.0" fill="#FFFFFF" transform="matrix(1.00, 0.00, -0.00, -1.00, 413.3, 321.7)">c</text><text xml:space="preserve" font-family="Menlo-Regular,Menlo" font-size="37.0" fill="#FFFFFF" transform="matrix(1.00, 0.00, -0.00, -1.00, 435.5, 321.7)">k</text><text xml:space="preserve" font-family="Menlo-Regular,Menlo" font-size="37.0" fill="#FFFFFF" transform="matrix(1.00, 0.00, -0.00, -1.00, 457.8, 321.7)">,</text><text xml:space="preserve" font-family="Menlo-Regular,Menlo" font-size="37.0" fill="#FFFFFF" transform="matrix(1.00, 0.00, -0.00, -1.00, 480.1, 321.7)"> </text><text xml:space="preserve" font-family="Menlo-Regular,Menlo" font-size="37.0" fill="#FFFFFF" transform="matrix(1.00, 0.00, -0.00, -1.00, 502.4, 321.7)">a</text><text xml:space="preserve" font-family="Menlo-Regular,Menlo" font-size="37.0" fill="#FFFFFF" transform="matrix(1.00, 0.00, -0.00, -1.00, 524.7, 321.7)">m</text><text xml:space="preserve" font-family="Menlo-Regular,Menlo" font-size="37.0" fill="#FFFFFF" transform="matrix(1.00, 0.00, -0.00, -1.00, 546.9, 321.7)">o</text><text xml:space="preserve" font-family="Menlo-Regular,Menlo" font-size="37.0" fill="#FFFFFF" transform="matrix(1.00, 0.00, -0.00, -1.00, 569.2, 321.7)">u</text><text xml:space="preserve" font-family="Menlo-Regular,Menlo" font-size="37.0" fill="#FFFFFF" transform="matrix(1.00, 0.00, -0.00, -1.00, 591.5, 321.7)">n</text><text xml:space="preserve" font-family="Menlo-Regular,Menlo" font-size="37.0" fill="#FFFFFF" transform="matrix(1.00, 0.00, -0.00, -1.00, 613.8, 321.7)">t</text><text xml:space="preserve" font-family="Menlo-Regular,Menlo" font-size="37.0" fill="#FFFFFF" transform="matrix(1.00, 0.00, -0.00, -1.00, 636.1, 321.7)">,</text><text xml:space="preserve" font-family="Menlo-Regular,Menlo" font-size="37.0" fill="#FFFFFF" transform="matrix(1.00, 0.00, -0.00, -1.00, 658.3, 321.7)"> </text><text xml:space="preserve" font-family="Menlo-Regular,Menlo" font-size="37.0" fill="#C1339A" transform="matrix(1.00, 0.00, -0.00, -1.00, 680.5, 321.7)">_</text><text xml:space="preserve" font-family="Menlo-Regular,Menlo" font-size="37.0" fill="#FFFFFF" transform="matrix(1.00, 0.00, -0.00, -1.00, 702.8, 321.7)">)</text><text xml:space="preserve" font-family="Menlo-Regular,Menlo" font-size="37.0" fill="#FFFFFF" transform="matrix(1.00, 0.00, -0.00, -1.00, 725.1, 321.7)">:</text><text xml:space="preserve" font-family="Menlo-Regular,Menlo" font-size="37.0" fill="#FFFFFF" transform="matrix(1.00, 0.00, -0.00, -1.00, 747.4, 321.7)"> </text><text xml:space="preserve" font-family="Menlo-Regular,Menlo" font-size="37.0" fill="#93C869" transform="matrix(1.00, 0.00, -0.00, -1.00, 12.3, 278.7)"> </text><text xml:space="preserve" font-family="Menlo-Regular,Menlo" font-size="37.0" fill="#93C869" transform="matrix(1.00, 0.00, -0.00, -1.00, 34.5, 278.7)"> </text><text xml:space="preserve" font-family="Menlo-Regular,Menlo" font-size="37.0" fill="#93C869" transform="matrix(1.00, 0.00, -0.00, -1.00, 56.8, 278.7)"> </text><text xml:space="preserve" font-family="Menlo-Regular,Menlo" font-size="37.0" fill="#93C869" transform="matrix(1.00, 0.00, -0.00, -1.00, 79.1, 278.7)"> </text><text xml:space="preserve" font-family="Menlo-Regular,Menlo" font-size="37.0" fill="#93C869" transform="matrix(1.00, 0.00, -0.00, -1.00, 101.4, 278.7)"> </text><text xml:space="preserve" font-family="Menlo-Regular,Menlo" font-size="37.0" fill="#93C869" transform="matrix(1.00, 0.00, -0.00, -1.00, 123.7, 278.7)"> </text><text xml:space="preserve" font-family="Menlo-Regular,Menlo" font-size="37.0" fill="#93C869" transform="matrix(1.00, 0.00, -0.00, -1.00, 145.9, 278.7)"> </text><text xml:space="preserve" font-family="Menlo-Regular,Menlo" font-size="37.0" fill="#93C869" transform="matrix(1.00, 0.00, -0.00, -1.00, 168.2, 278.7)"> </text><text xml:space="preserve" font-family="Menlo-Regular,Menlo" font-size="37.0" fill="#93C869" transform="matrix(1.00, 0.00, -0.00, -1.00, 190.5, 278.7)"> </text><text xml:space="preserve" font-family="Menlo-Regular,Menlo" font-size="37.0" fill="#93C869" transform="matrix(1.00, 0.00, -0.00, -1.00, 212.8, 278.7)"> </text><text xml:space="preserve" font-family="Menlo-Regular,Menlo" font-size="37.0" fill="#93C869" transform="matrix(1.00, 0.00, -0.00, -1.00, 235.1, 278.7)"> </text><text xml:space="preserve" font-family="Menlo-Regular,Menlo" font-size="37.0" fill="#FFFFFF" transform="matrix(1.00, 0.00, -0.00, -1.00, 257.3, 278.7)">p</text><text xml:space="preserve" font-family="Menlo-Regular,Menlo" font-size="37.0" fill="#FFFFFF" transform="matrix(1.00, 0.00, -0.00, -1.00, 279.6, 278.7)">r</text><text xml:space="preserve" font-family="Menlo-Regular,Menlo" font-size="37.0" fill="#FFFFFF" transform="matrix(1.00, 0.00, -0.00, -1.00, 301.9, 278.7)">o</text><text xml:space="preserve" font-family="Menlo-Regular,Menlo" font-size="37.0" fill="#FFFFFF" transform="matrix(1.00, 0.00, -0.00, -1.00, 324.1, 278.7)">c</text><text xml:space="preserve" font-family="Menlo-Regular,Menlo" font-size="37.0" fill="#FFFFFF" transform="matrix(1.00, 0.00, -0.00, -1.00, 346.4, 278.7)">e</text><text xml:space="preserve" font-family="Menlo-Regular,Menlo" font-size="37.0" fill="#FFFFFF" transform="matrix(1.00, 0.00, -0.00, -1.00, 368.7, 278.7)">s</text><text xml:space="preserve" font-family="Menlo-Regular,Menlo" font-size="37.0" fill="#FFFFFF" transform="matrix(1.00, 0.00, -0.00, -1.00, 391.0, 278.7)">s</text><text xml:space="preserve" font-family="Menlo-Regular,Menlo" font-size="37.0" fill="#FFFFFF" transform="matrix(1.00, 0.00, -0.00, -1.00, 413.3, 278.7)">(</text><text xml:space="preserve" font-family="Menlo-Regular,Menlo" font-size="37.0" fill="#FFFFFF" transform="matrix(1.00, 0.00, -0.00, -1.00, 435.5, 278.7)">s</text><text xml:space="preserve" font-family="Menlo-Regular,Menlo" font-size="37.0" fill="#FFFFFF" transform="matrix(1.00, 0.00, -0.00, -1.00, 457.8, 278.7)">t</text><text xml:space="preserve" font-family="Menlo-Regular,Menlo" font-size="37.0" fill="#FFFFFF" transform="matrix(1.00, 0.00, -0.00, -1.00, 480.1, 278.7)">o</text><text xml:space="preserve" font-family="Menlo-Regular,Menlo" font-size="37.0" fill="#FFFFFF" transform="matrix(1.00, 0.00, -0.00, -1.00, 502.4, 278.7)">c</text><text xml:space="preserve" font-family="Menlo-Regular,Menlo" font-size="37.0" fill="#FFFFFF" transform="matrix(1.00, 0.00, -0.00, -1.00, 524.6, 278.7)">k</text><text xml:space="preserve" font-family="Menlo-Regular,Menlo" font-size="37.0" fill="#FFFFFF" transform="matrix(1.00, 0.00, -0.00, -1.00, 546.9, 278.7)">,</text><text xml:space="preserve" font-family="Menlo-Regular,Menlo" font-size="37.0" fill="#FFFFFF" transform="matrix(1.00, 0.00, -0.00, -1.00, 569.2, 278.7)"> </text><text xml:space="preserve" font-family="Menlo-Regular,Menlo" font-size="37.0" fill="#FFFFFF" transform="matrix(1.00, 0.00, -0.00, -1.00, 591.5, 278.7)">a</text><text xml:space="preserve" font-family="Menlo-Regular,Menlo" font-size="37.0" fill="#FFFFFF" transform="matrix(1.00, 0.00, -0.00, -1.00, 613.8, 278.7)">m</text><text xml:space="preserve" font-family="Menlo-Regular,Menlo" font-size="37.0" fill="#FFFFFF" transform="matrix(1.00, 0.00, -0.00, -1.00, 636.0, 278.7)">o</text><text xml:space="preserve" font-family="Menlo-Regular,Menlo" font-size="37.0" fill="#FFFFFF" transform="matrix(1.00, 0.00, -0.00, -1.00, 658.3, 278.7)">u</text><text xml:space="preserve" font-family="Menlo-Regular,Menlo" font-size="37.0" fill="#FFFFFF" transform="matrix(1.00, 0.00, -0.00, -1.00, 680.6, 278.7)">n</text><text xml:space="preserve" font-family="Menlo-Regular,Menlo" font-size="37.0" fill="#FFFFFF" transform="matrix(1.00, 0.00, -0.00, -1.00, 702.9, 278.7)">t</text><text xml:space="preserve" font-family="Menlo-Regular,Menlo" font-size="37.0" fill="#FFFFFF" transform="matrix(1.00, 0.00, -0.00, -1.00, 725.2, 278.7)"> </text><text xml:space="preserve" font-family="Menlo-Regular,Menlo" font-size="37.0" fill="#FFFFFF" transform="matrix(1.00, 0.00, -0.00, -1.00, 747.4, 278.7)">*</text><text xml:space="preserve" font-family="Menlo-Regular,Menlo" font-size="37.0" fill="#FFFFFF" transform="matrix(1.00, 0.00, -0.00, -1.00, 769.7, 278.7)"> </text><text xml:space="preserve" font-family="Menlo-Regular,Menlo" font-size="37.0" fill="#FFFFFF" transform="matrix(1.00, 0.00, -0.00, -1.00, 792.0, 278.7)">-</text><text xml:space="preserve" font-family="Menlo-Regular,Menlo" font-size="37.0" fill="#FFFFFF" transform="matrix(1.00, 0.00, -0.00, -1.00, 814.3, 278.7)">1</text><text xml:space="preserve" font-family="Menlo-Regular,Menlo" font-size="37.0" fill="#FFFFFF" transform="matrix(1.00, 0.00, -0.00, -1.00, 836.5, 278.7)">)</text><text xml:space="preserve" font-family="Menlo-Regular,Menlo" font-size="37.0" fill="#FFFFFF" transform="matrix(1.00, 0.00, -0.00, -1.00, 858.7, 278.7)"> </text><text xml:space="preserve" font-family="Menlo-Regular,Menlo" font-size="37.0" fill="#FFFFFF" transform="matrix(1.00, 0.00, -0.00, -1.00, 12.3, 192.7)">}</text><text xml:space="preserve" font-family="Menlo-Regular,Menlo" font-size="37.0" fill="#FFFFFF" transform="matrix(1.00, 0.00, -0.00, -1.00, 34.5, 192.7)"> </text><text xml:space="preserve" font-family="Menlo-Regular,Menlo" font-size="37.0" fill="#FFFFFF" transform="matrix(1.00, 0.00, -0.00, -1.00, 12.3, 149.7)"> </text><text xml:space="preserve" font-family="Menlo-Regular,Menlo" font-size="37.0" fill="#FFFFFF" transform="matrix(1.00, 0.00, -0.00, -1.00, 34.5, 149.7)"> </text><text xml:space="preserve" font-family="Menlo-Regular,Menlo" font-size="37.0" fill="#FFFFFF" transform="matrix(1.00, 0.00, -0.00, -1.00, 56.8, 149.7)"> </text></g></g></g></svg>